<svg width="300" height="300" viewBox="0 0 300 300" fill="none" xmlns="http://www.w3.org/2000/svg">
<path d="M121.828 141.996C124.62 158.261 161.422 165.49 166.498 141.996H158.122C151.777 152.065 140.863 149.484 138.325 141.996H121.828Z" fill="#FBFFFA"/>
<path d="M167.513 141.996C166.498 154.389 198.985 161.876 207.615 141.996H202.031C194.924 154.131 183.503 146.902 182.741 141.996H169.543H167.513Z" fill="#FBFFFA"/>
<path d="M138.325 141.996C140.863 149.484 151.777 152.065 158.122 141.996H138.325Z" fill="black"/>
<path d="M182.741 141.996C183.503 146.902 194.924 154.131 202.031 141.996H182.741Z" fill="black"/>
<path d="M119.29 141.996H121.828M121.828 141.996C124.62 158.261 161.422 165.49 166.498 141.996M121.828 141.996H138.325M166.498 141.996H158.122M166.498 141.996H167.513M138.325 141.996C140.863 149.484 151.777 152.065 158.122 141.996M138.325 141.996H158.122M167.513 141.996C166.498 154.389 198.985 161.876 207.615 141.996M167.513 141.996H169.543M207.615 141.996H211.929C213.198 141.997 213.452 136.575 209.137 136.575M207.615 141.996H202.031M182.741 141.996C183.503 146.902 194.924 154.131 202.031 141.996M182.741 141.996H202.031M182.741 141.996H169.543M209.137 136.575H200.508M209.137 136.575C205.33 111.274 176.65 111.274 168.021 122.117M156.092 136.575H168.021M168.021 136.575C170.305 136.575 171.32 141.996 169.543 141.996M168.021 136.575C167.217 132.961 166.001 129.871 164.467 127.262M118.274 129.346C125.364 115.558 149.93 109.264 162.129 123.924M162.129 123.924C163.96 125.473 164.721 125.215 166.498 123.408C165.511 124.917 165.021 125.762 164.467 127.262M162.129 123.924C162.97 124.936 163.753 126.047 164.467 127.262" stroke="#383838"/>
<path d="M137.564 116.179C122.587 122.633 121.202 132.936 124.874 139.157H170.05C170.05 138.124 169.23 136.54 167.766 136.575C167.026 131.052 164.601 126.818 160.506 122.251C160.374 122.129 160.255 121.999 160.152 121.859C160.271 121.99 160.389 122.12 160.506 122.251C162.322 123.914 166.646 123.805 167.512 122.633C171.726 116.988 175.92 115.878 184.517 115.146C174.111 118.503 165.989 129.604 173.35 139.157H211.928C213.451 139.157 212.944 142.255 211.421 141.997C208.683 144.803 207.159 145.921 204.314 147.16C205.083 146.151 205.564 145.597 206.598 144.062C185.532 143.029 177.324 143.299 170.558 148.967C169.041 147.369 168.385 146.369 167.766 144.32C167.072 144.112 166.684 144.079 165.989 144.32C145.939 142.771 136.895 143.549 126.142 149.484C128.976 152.187 130.73 153.227 134.008 154.647C103.026 147.918 115.708 120.195 137.564 116.179Z" fill="black" fill-opacity="0.2"/>
<circle cx="143.656" cy="145.611" r="2.55982" fill="white"/>
<circle cx="187.818" cy="145.095" r="2.55982" fill="white"/>
</svg>
