<svg width="300" height="300" viewBox="0 0 300 300" fill="none" xmlns="http://www.w3.org/2000/svg">
<path d="M121.828 141.335C124.62 157.198 161.422 164.249 166.498 141.335H158.122C151.777 151.155 140.863 148.637 138.325 141.335H121.828Z" fill="#6D1E1E"/>
<path d="M167.513 141.335C166.498 153.421 198.985 160.723 207.615 141.335H202.031C194.924 153.17 183.503 146.119 182.741 141.335H169.543H167.513Z" fill="#6D1E1E"/>
<path d="M138.325 141.335C140.863 148.637 151.777 151.155 158.122 141.335H138.325Z" fill="black"/>
<path d="M182.741 141.335C183.503 146.119 194.924 153.17 202.031 141.335H182.741Z" fill="black"/>
<path d="M119.29 141.335H121.828M121.828 141.335C124.62 157.198 161.422 164.249 166.498 141.335M121.828 141.335H138.325M166.498 141.335H158.122M166.498 141.335H167.513M138.325 141.335C140.863 148.637 151.777 151.155 158.122 141.335M138.325 141.335H158.122M167.513 141.335C166.498 153.421 198.985 160.723 207.615 141.335M167.513 141.335H169.543M207.615 141.335H211.929C213.198 141.335 213.452 136.047 209.137 136.047M207.615 141.335H202.031M182.741 141.335C183.503 146.119 194.924 153.17 202.031 141.335M182.741 141.335H202.031M182.741 141.335H169.543M209.137 136.047H200.508M209.137 136.047C205.33 111.372 176.65 111.371 168.021 121.947M156.092 136.048H168.021M168.021 136.048C170.305 136.048 171.32 141.335 169.543 141.335M168.021 136.048C167.217 132.523 166.001 129.51 164.467 126.965M118.274 128.997C125.364 115.55 149.93 109.412 162.129 123.71M162.129 123.71C163.96 125.22 164.721 124.968 166.498 123.206C165.511 124.678 165.021 125.502 164.467 126.965M162.129 123.71C162.97 124.696 163.753 125.78 164.467 126.965" stroke="#383838"/>
<path d="M137.564 116.152C122.587 122.438 121.202 132.471 124.874 138.529H170.05C170.05 137.523 169.23 135.98 167.766 136.015C167.026 130.637 164.601 126.513 160.506 122.065C160.374 121.947 160.255 121.82 160.152 121.683C160.271 121.811 160.389 121.938 160.506 122.065C162.322 123.685 166.646 123.578 167.512 122.438C171.726 116.94 175.92 115.859 184.517 115.146C174.111 118.415 165.989 129.226 173.35 138.529H211.928C213.451 138.529 212.944 141.546 211.421 141.295C208.683 144.027 207.159 145.117 204.314 146.323C205.083 145.34 205.564 144.801 206.598 143.306C185.532 142.3 177.324 142.563 170.558 148.083C169.041 146.526 168.385 145.553 167.766 143.557C167.072 143.355 166.684 143.323 165.989 143.557C145.939 142.049 136.895 142.806 126.142 148.586C128.976 151.219 130.73 152.232 134.008 153.614C103.026 147.061 115.708 120.063 137.564 116.152Z" fill="black" fill-opacity="0.2"/>
<circle cx="143.146" cy="145.095" r="2.04786" fill="#5F5F5F"/>
<circle cx="187.31" cy="144.578" r="2.04786" fill="#5F5F5F"/>
</svg>
