<svg width="300" height="300" viewBox="0 0 300 300" fill="none" xmlns="http://www.w3.org/2000/svg">
<path fill-rule="evenodd" clip-rule="evenodd" d="M137.49 191.184C152.048 191.66 160.438 191.975 175.907 192.615C180.381 192.569 182.816 192.128 184.565 176.653C184.911 172.037 183.699 171.92 180.994 172.8C178.283 175.048 165.454 173.198 143.117 170.048C135.434 169.057 131.68 172.579 131.105 176.653C129.482 186.45 133.092 190.594 137.49 191.184ZM143.117 175.112C154.157 175.343 161.514 176.879 176.557 178.745C177.804 178.899 178.814 178.96 179.695 178.86C180.158 178.807 180.586 178.71 180.994 178.559C180.439 183.44 179.985 186.038 179.055 187.528C178.648 188.18 177.866 188.433 177.098 188.433C162.406 188.442 153.814 188.116 138.789 186.891C138.131 186.795 137.6 186.672 137.165 186.507C135.977 186.055 135.506 185.287 135.109 183.918C134.813 182.012 134.977 180.39 135.487 179.075C136.658 176.06 139.652 174.652 143.117 175.112Z" fill="#FA9A6A"/>
<path d="M176.557 178.745C161.514 176.879 154.157 175.343 143.117 175.112C139.652 174.652 136.658 176.06 135.487 179.075L135.65 180.616L138.266 180.829C138.296 180.831 138.326 180.833 138.356 180.836L138.266 180.829C135.651 180.661 134.568 184.581 137.165 186.507C137.6 186.672 138.131 186.795 138.789 186.891C153.814 188.116 162.406 188.442 177.098 188.433C179.718 186.531 179.587 183.148 178.288 183.148C179.478 183.148 180.775 180.396 179.695 178.86C178.814 178.96 177.804 178.899 176.557 178.745Z" fill="#FAF8F2"/>
<path d="M177.098 188.433C177.866 188.433 178.648 188.18 179.055 187.528C179.985 186.038 180.439 183.44 180.994 178.559C180.586 178.71 180.158 178.807 179.695 178.86C180.775 180.396 179.478 183.148 178.288 183.148C179.587 183.148 179.718 186.531 177.098 188.433Z" fill="#3C2746"/>
<path d="M135.109 183.918C135.506 185.287 135.977 186.055 137.165 186.507C134.568 184.581 135.651 180.661 138.266 180.829L135.65 180.616L135.487 179.075C134.977 180.39 134.813 182.012 135.109 183.918Z" fill="#3C2746"/>
<path d="M183.591 176.653C182.706 177.624 181.898 178.225 180.994 178.559M180.994 178.559C180.439 183.44 179.985 186.038 179.055 187.528C178.648 188.18 177.866 188.433 177.098 188.433M180.994 178.559C180.586 178.71 180.158 178.807 179.695 178.86M177.098 188.433C162.406 188.442 153.814 188.116 138.789 186.891C138.131 186.795 137.6 186.672 137.165 186.507M177.098 188.433C179.718 186.531 179.587 183.148 178.288 183.148M178.288 183.148C179.478 183.148 180.775 180.396 179.695 178.86M178.288 183.148C173.942 183.905 170.149 183.324 166.601 182.327M179.695 178.86C178.814 178.96 177.804 178.899 176.557 178.745C161.514 176.879 154.157 175.343 143.117 175.112C139.652 174.652 136.658 176.06 135.487 179.075M138.356 180.836C141.729 181.366 144.778 181.422 147.662 181.006M138.356 180.836C138.326 180.833 138.296 180.831 138.266 180.829M138.356 180.836L138.266 180.829M137.165 186.507C135.977 186.055 135.506 185.287 135.109 183.918C134.813 182.012 134.977 180.39 135.487 179.075M137.165 186.507C134.568 184.581 135.651 180.661 138.266 180.829M135.487 179.075L135.65 180.616L138.266 180.829M137.49 191.184C152.048 191.66 160.438 191.975 175.907 192.615C180.381 192.569 182.816 192.128 184.565 176.653C184.911 172.037 183.699 171.92 180.994 172.8C178.283 175.048 165.454 173.198 143.117 170.048C135.434 169.057 131.68 172.579 131.105 176.653C129.482 186.45 133.092 190.594 137.49 191.184Z" stroke="#A16521"/>
<path d="M181.86 188.872C183.085 185.328 183.645 182.352 184.457 175.773C177.639 180.066 156.32 173.791 144.633 173.791C141.19 173.59 139.09 173.893 137.494 175.155C136.138 176.227 136.723 176.682 138.207 175.795C139.458 175.048 141.246 174.567 143.984 175.002C157.836 176.103 165.927 178.302 180.02 178.745C181.135 179.014 181.016 180.576 179.587 185.57C181.078 186.106 181.519 186.902 181.86 188.872Z" fill="black" fill-opacity="0.15"/>
<path d="M142.793 195.697C153.414 192.913 160.974 193.606 171.796 195.697C168.919 193.994 164.663 192.862 160.217 192.426C159.176 192.324 158.124 192.26 157.078 192.236C151.327 192.103 145.721 193.169 142.793 195.697Z" fill="black" fill-opacity="0.15"/>
<path d="M160.217 192.426L175.692 192.725C179.409 192.313 180.859 191.557 181.86 188.872C178.169 192.069 139.439 189.753 136.733 188.872C134.198 188.137 132.891 185.911 132.409 183.725C132.122 182.42 132.461 181.083 132.969 179.847C133.039 179.678 133.107 179.511 133.174 179.347C135.045 174.745 131.608 173.308 130.753 178.202C130.044 182.256 130.533 186.891 133.054 188.872C134.872 191.12 136.721 191.667 141.17 191.624L157.078 192.236C158.124 192.26 159.176 192.324 160.217 192.426Z" fill="black" fill-opacity="0.15"/>
</svg>
