<svg width="300" height="301" viewBox="0 0 300 301" fill="none" xmlns="http://www.w3.org/2000/svg">
<path fill-rule="evenodd" clip-rule="evenodd" d="M224.187 163.531C227.775 154.212 229.213 149.119 228.302 140.845C231.547 134.56 233.678 131.138 232.633 123.445C231.076 125.569 230.023 126.506 227.93 127.85C231.617 119.175 230.927 113.011 228.302 102.961C227.489 106.075 226.957 107.703 225.57 110.009C224.621 100.979 223.429 94.7289 214.606 88.4246C215.671 84.8742 215.865 81.0008 215.524 75.87C212.038 79.536 209.667 81.4193 206.212 82.4823C202.133 69.7899 197.728 65.2232 186.938 60.6724C180.074 54.0739 175.882 52.1403 168.097 50.3204C170.778 53.7605 171.382 55.1462 169.829 56.0373C155.962 44.3006 122.864 35.685 103.807 56.0373C100.707 59.3482 97.9783 63.4258 95.7646 68.3813C102.773 65.1573 106.598 63.9872 112.873 65.0279C104.069 67.9782 95.0785 74.0222 86.6689 84.4597C97.0639 77.8523 105.325 75.8666 110.058 79.5649C99.3058 78.9941 88.7777 83.4438 82.023 91.2879C78.3204 93.3056 74.9214 95.6877 71.9429 98.4416C62.0567 107.582 56.8036 120.819 60.4646 138.422C61.7771 133.988 62.9203 132.041 65.4879 129.392C65.3172 130.38 65.2294 131.339 65.2294 132.255C69.7371 128.423 73.5169 127.56 81.0387 128.293C76.9369 139.138 77.4411 147.323 81.6883 164.413C82.1097 162.489 82.5195 160.901 83.0131 159.442C84.0235 177.132 98.4758 193.038 118.071 202.159C125.983 205.841 134.694 208.582 143.626 210.183C151.891 211.665 160.345 212.171 168.53 211.545C171.36 211.329 174.157 210.978 176.904 210.485C177.363 210.402 177.82 210.316 178.276 210.226C178.783 210.125 179.288 210.02 179.792 209.909C201.775 205.087 219.949 190.778 224.187 163.531Z" fill="url(#paint0_radial_190_436)"/>
<path d="M65.2294 132.255C63.6301 143.265 63.8187 148.159 66.5288 154.061C67.129 149.722 67.9291 147.739 70.2104 145.03C69.1347 150.858 69.8452 157.029 75.8455 167.276C77.0723 169.371 78.5202 171.636 80.2192 174.104C81.3545 184.262 84.7932 193.468 93.5993 209.345C94.2532 203.001 94.976 199.332 96.8478 192.605L105.131 213.245C105.426 213.123 105.728 213.001 106.037 212.882L109.409 204.499L114.173 210.446C115.94 210.45 116.652 210.274 117.638 209.785C117.632 209.635 117.626 209.488 117.62 209.345C117.465 205.261 117.586 203.735 118.071 202.159C98.4758 193.038 84.0235 177.132 83.0131 159.442C82.5195 160.901 82.1097 162.489 81.6883 164.413C77.4411 147.323 76.9369 139.138 81.0387 128.293C73.5169 127.56 69.7371 128.423 65.2294 132.255Z" fill="#FDEECE"/>
<path d="M65.2294 132.255C65.2294 131.339 65.3172 130.38 65.4879 129.392C62.9203 132.041 61.7771 133.988 60.4646 138.422C62.1109 159.358 64.1467 171.681 77.5736 182.914C75.1861 177.24 74.1705 173.978 75.8455 167.276C69.8452 157.029 69.1347 150.858 70.2104 145.03C67.9291 147.739 67.129 149.722 66.5288 154.061C63.8187 148.159 63.6301 143.265 65.2294 132.255Z" fill="#FDEECE"/>
<path d="M86.6689 84.4597C95.0785 74.0222 104.069 67.9782 112.873 65.0279C106.598 63.9872 102.773 65.1573 95.7646 68.3813C97.9783 63.4258 100.707 59.3482 103.807 56.0373C84.7784 58.9798 67.8278 78.2928 61.764 105.164C65.7364 100.972 67.9583 99.295 71.9429 98.4416C74.9214 95.6877 78.3204 93.3056 82.023 91.2879C88.7777 83.4438 99.3058 78.9941 110.058 79.5649C105.325 75.8666 97.0639 77.8523 86.6689 84.4597Z" fill="#FDEECE"/>
<path d="M143.626 210.183C134.694 208.582 125.983 205.841 118.071 202.159C117.586 203.735 117.465 205.261 117.62 209.345C117.626 209.488 117.632 209.635 117.638 209.785C117.688 210.611 117.712 211.387 117.706 212.119C117.706 212.148 117.706 212.178 117.705 212.208C111.523 225.109 97.4767 228.488 91.4693 230.422C89.6359 231.013 87.9562 232.026 86.3503 233.089C70.7112 243.447 62.4537 266.109 57.8682 299.742H224.366C220.051 269.793 213.115 245.975 200.254 234.94C191.878 226.162 176.904 223.322 176.904 210.485C174.157 210.978 171.36 211.329 168.53 211.545C160.345 212.171 151.891 211.665 143.626 210.183Z" fill="#FDEECE"/>
<path d="M225.919 132.035C226.698 130.566 227.365 129.179 227.93 127.85M225.919 117.718C225.838 114.908 225.752 112.358 225.57 110.009M207.945 99.6575C211.395 95.5438 213.484 92.1633 214.606 88.4246M225.57 110.009C226.957 107.703 227.489 106.075 228.302 102.961C230.927 113.011 231.617 119.175 227.93 127.85M225.57 110.009C224.621 100.979 223.429 94.7289 214.606 88.4246M227.93 127.85C230.023 126.506 231.076 125.569 232.633 123.445C233.678 131.138 231.547 134.56 228.302 140.845C229.213 149.119 227.775 154.212 224.187 163.531C219.949 190.778 201.775 205.087 179.792 209.909C179.288 210.02 178.783 210.125 178.276 210.226C177.82 210.316 177.363 210.402 176.904 210.485M203.397 83.1384C204.425 82.9606 205.352 82.7469 206.212 82.4823M206.212 82.4823C209.667 81.4193 212.038 79.536 215.524 75.87C215.865 81.0008 215.671 84.8742 214.606 88.4246M206.212 82.4823C202.133 69.7899 197.728 65.2232 186.938 60.6724M186.938 60.6724C192.995 71.8938 194.085 79.394 189.753 89.9663M186.938 60.6724C180.074 54.0739 175.882 52.1403 168.097 50.3204C170.778 53.7605 171.382 55.1462 169.829 56.0373M176.11 64.637C175.553 62.0075 173.294 58.9695 169.829 56.0373M169.829 56.0373C155.962 44.3006 122.864 35.685 103.807 56.0373M156.619 86.2218C160.862 77.8961 160.301 73.6672 157.269 68.3811C162.683 70.8039 169.829 78.2926 170.479 89.3053M157.918 74.5482C148.002 65.8577 130.823 59.0132 112.873 65.0279M112.873 65.0279C104.069 67.9782 95.0785 74.0222 86.6689 84.4597C97.0639 77.8523 105.325 75.8666 110.058 79.5649M112.873 65.0279C106.598 63.9872 102.773 65.1573 95.7646 68.3813C97.9783 63.4258 100.707 59.3482 103.807 56.0373M103.807 56.0373C84.7784 58.9798 67.8278 78.2928 61.764 105.164C65.7364 100.972 67.9583 99.295 71.9429 98.4416M139.51 84.4597C135.785 78.7768 126.739 77.8598 117.421 80.762M122.835 89.3053C119.287 84.0923 117.066 82.8123 112.873 82.4777C114.382 81.8074 115.905 81.2342 117.421 80.762M117.421 80.762C114.983 80.0879 112.515 79.6954 110.058 79.5649M110.058 79.5649C99.3058 78.9941 88.7777 83.4438 82.023 91.2879M86.6689 100.759C81.2162 101.836 78.53 102.923 74.9744 106.485C75.8921 100.619 78.421 95.4707 82.023 91.2879M82.023 91.2879C78.3204 93.3056 74.9214 95.6877 71.9429 98.4416M60.4646 138.422C56.8036 120.819 62.0567 107.582 71.9429 98.4416M60.4646 138.422C61.7771 133.988 62.9203 132.041 65.4879 129.392M60.4646 138.422C62.1109 159.358 64.1467 171.681 77.5736 182.914C75.1861 177.24 74.1705 173.978 75.8455 167.276M91.0005 103.182C77.3192 106.487 67.2053 119.45 65.4879 129.392M65.2294 132.255C65.2294 131.339 65.3172 130.38 65.4879 129.392M65.2294 132.255C63.6301 143.265 63.8187 148.159 66.5288 154.061C67.129 149.722 67.9291 147.739 70.2104 145.03C69.1347 150.858 69.8452 157.029 75.8455 167.276M65.2294 132.255C69.7371 128.423 73.5169 127.56 81.0387 128.293M79.7392 165.073C79.8375 179.583 82.2997 188.973 93.5993 209.345M93.5993 209.345C94.2532 203.001 94.976 199.332 96.8478 192.605L105.131 213.245M93.5993 209.345C84.7932 193.468 81.3545 184.262 80.2192 174.104C78.5202 171.636 77.0723 169.371 75.8455 167.276M117.638 209.785C116.652 210.274 115.94 210.45 114.173 210.446L109.409 204.499L106.037 212.882M117.638 209.785C117.632 209.635 117.626 209.488 117.62 209.345C117.465 205.261 117.586 203.735 118.071 202.159M117.638 209.785C117.688 210.611 117.712 211.387 117.706 212.119C117.706 212.148 117.706 212.178 117.705 212.208C111.523 225.109 97.4767 228.488 91.4693 230.422C89.6359 231.013 87.9562 232.026 86.3503 233.089C70.7112 243.447 62.4537 266.109 57.8682 299.742H224.366C220.051 269.793 213.115 245.975 200.254 234.94C191.878 226.162 176.904 223.322 176.904 210.485M118.071 202.159C98.4758 193.038 84.0235 177.132 83.0131 159.442C82.5195 160.901 82.1097 162.489 81.6883 164.413M118.071 202.159C125.983 205.841 134.694 208.582 143.626 210.183C151.891 211.665 160.345 212.171 168.53 211.545C171.36 211.329 174.157 210.978 176.904 210.485M86.8859 151.858C83.9184 156.372 82.8471 159.123 81.6883 164.413M81.6883 164.413C77.4411 147.323 76.9369 139.138 81.0387 128.293M83.0131 128.511C82.3269 128.428 81.6696 128.355 81.0387 128.293M105.131 213.245L105.51 214.19L106.037 212.882M105.131 213.245C105.426 213.123 105.728 213.001 106.037 212.882" stroke="black"/>
<path d="M65.1412 134.843C64.1658 130.089 65.4506 126.909 69.463 120.75C76.6564 107.985 81.6133 105.596 90.8555 103.355C95.4712 97.4682 101.434 93.8165 114.409 87.06C98.5289 87.1917 90.3648 91.1078 76.5937 102.254L77.4581 99.3911C59.0486 120.576 61.6064 125.261 60.8193 136.605C62.8086 132.771 63.9035 130.844 65.1412 134.843Z" fill="black" fill-opacity="0.3"/>
<path d="M74.6489 96.7487C72.4881 99.3911 66.4376 98.7305 62.548 104.456C68.8221 90.0705 81.5809 74.5685 96.0418 68.2137C102.956 51.6078 174.698 40.1576 176.21 98.0699L170.808 89.4821C165.979 73.5802 162.99 71.7496 157.627 69.2237C163.757 73.8971 167.999 89.4821 160.652 96.7487C160.937 92.6992 160.327 90.5371 156.546 87.06C159.269 81.0945 159.732 78.6356 158.923 75.6094C148.983 64.1591 134.502 60.9177 112.896 65.4806C97.2005 72.3703 93.9281 76.1597 88.6712 82.0882C101.052 69.646 133.441 67.293 138.827 83.757C133.141 78.5902 124.349 78.0319 116.786 81.1146C126.298 81.053 129.742 84.0567 135.154 90.5832C128.711 88.6653 125.944 88.513 122.188 89.4821C119.178 84.6873 117.056 83.4208 112.896 82.4358L116.786 81.1146C102.599 77.3812 95.4334 80.2333 83.5085 90.5832C79.2503 92.2028 77.3876 93.629 74.6489 96.7487Z" fill="black" fill-opacity="0.3"/>
<path d="M170.808 56.6724C170.75 54.3933 170.228 53.0258 168.863 50.5068C176.895 55.0396 184.854 66.5813 182.477 79.7932C180.014 70.5989 177.583 65.5652 170.808 56.6724Z" fill="black" fill-opacity="0.3"/>
<path d="M187.447 92.5647C192.983 76.9077 191.682 70.8711 187.447 61.2966C196.955 67.9025 200.794 84.8266 190.256 94.7667C192.717 92.0008 191.038 92.088 187.447 92.5647Z" fill="black" fill-opacity="0.3"/>
<path d="M204.518 83.3164C209.784 81.6936 211.951 80.058 215.106 76.4902C213.809 84.8578 208.268 90.2177 203.437 91.6839C205.743 88.3512 207.358 86.4713 204.518 83.3164Z" fill="black" fill-opacity="0.3"/>
<path d="M225.478 108.419C227.152 108.227 227.615 107.09 228.071 104.235C228.615 110.485 227.956 113.048 225.478 116.346V108.419Z" fill="black" fill-opacity="0.3"/>
<path d="M232.393 123.392C230.853 125.432 229.894 126.094 228.071 126.695L223.317 134.843C229.152 133.962 232.374 127.024 232.393 123.392Z" fill="black" fill-opacity="0.3"/>
<path fill-rule="evenodd" clip-rule="evenodd" d="M81.996 163.249C80.026 152.206 80.9268 147.212 85.2374 139.908C85.1494 145.015 85.2286 147.818 86.1017 152.459C84.0916 155.819 83.1246 157.986 82.5014 160.606C82.3064 161.426 82.1451 162.29 81.996 163.249ZM94.4408 112.198C88.6907 117.85 84.0051 122.456 81.2569 128.457C74.1383 127.504 70.3799 127.465 65.7895 131.98C70.5434 120.31 82.4282 112.603 96.0418 110.621C95.4997 111.157 94.9658 111.681 94.4408 112.198ZM76.5225 181.857C71.8151 174.69 68.8492 170.174 66.7959 158.624C66.3848 152.141 67.0642 149.149 70.1111 145.192C69.4419 152.925 70.9031 158.821 75.5133 166.408C74.6635 170.766 74.4252 173.53 76.5939 181.965L76.5225 181.857Z" fill="black" fill-opacity="0.3"/>
<path d="M81.996 163.249C79.3179 164.297 79.1736 167.069 79.619 173.157C83.6572 190.948 86.8085 198.186 93.4486 207.949L96.6899 193.195L105.766 213.674L109.655 204.205L114.409 210.811L118.083 209.93V202.444C99.0865 192.091 89.1268 183.507 82.5014 160.606C82.3064 161.426 82.1451 162.29 81.996 163.249Z" fill="black" fill-opacity="0.3"/>
<path d="M70.1111 145.192L75.5133 139.908C75.4304 140.89 75.3472 141.841 75.2666 142.762C74.316 153.628 73.7121 160.531 77.8903 170.075L79.619 173.157C79.1736 167.069 79.3179 164.297 81.996 163.249C77.3988 146.017 77.7546 136.105 81.2569 128.457C74.1383 127.504 70.3799 127.465 65.7895 131.98C67.6059 131.903 68.5461 132.132 70.1111 132.861C66.9243 138.946 66.0457 143.069 65.7895 151.798C66.0996 154.328 66.4335 156.586 66.7959 158.624C66.3848 152.141 67.0642 149.149 70.1111 145.192Z" fill="black" fill-opacity="0.3"/>
<defs>
<radialGradient id="paint0_radial_190_436" cx="0" cy="0" r="1" gradientUnits="userSpaceOnUse" gradientTransform="translate(145.385 171.768) rotate(90) scale(127.974 87.5164)">
<stop stop-color="#FFF0D6"/>
<stop offset="1" stop-color="#FDEECE"/>
</radialGradient>
</defs>
</svg>
