<svg width="300" height="300" viewBox="0 0 300 300" fill="none" xmlns="http://www.w3.org/2000/svg">
<path d="M108.454 80.8742C72.5911 84.2329 76.5466 70.3091 87.3583 55.9307C74.6458 64.6352 65.1338 76.1698 60.9151 89.132C60.5289 94.3789 63.0979 98.6723 69.4267 96.3231C73.1461 94.12 77.2134 92.0549 81.5569 90.1337C89.7089 86.528 98.8333 83.4288 108.454 80.8742Z" fill="#D1C9B6"/>
<path d="M60.1977 137.349V134.771C84.2833 114.512 170.432 93.258 227.962 113.023C229.782 113.648 230.833 115.516 230.499 117.411L229.442 123.408C229.969 122.548 231.444 118.733 236.085 115.432C237.274 111.614 235.948 113.034 234.641 108.471C223.164 107.439 223.295 103.685 226.855 91.9683C222.219 106.631 219.244 105.625 213.944 103.833L213.934 103.829C212.116 103.539 211.993 99.5001 213.143 86.8113C210.43 102.083 208.133 104.087 198.903 100.993C196.151 101.74 197.035 93.3659 196.794 85.0064C195.899 92.9112 194.828 95.9898 192.311 99.9616H178.071L176.225 85.0064L174.379 99.9616H159.876C157.154 99.0332 157.201 92.4805 156.184 85.0064C156.221 103.394 154.074 101.251 140.098 102.024C137.093 100.547 137.033 96.7456 134.561 87.8427C135.784 103.192 134.561 104.087 123.221 105.376C119.921 101.374 118.785 98.3262 116.893 92.7418L118.739 107.181C114 107.178 111.344 107.894 106.608 110.018C104.114 109.417 102.737 105.584 100.28 98.4145C102.663 112.559 98.7209 113.727 90.7864 114.659L83.1391 103.314C84.7904 110.08 84.8425 112.96 83.9302 116.98L78.1288 118.527C70.7591 113.46 68.1082 98.6723 81.5569 90.1337C77.2134 92.0549 73.1461 94.12 69.4267 96.3231C65.3355 98.7465 61.6654 101.337 58.5122 104.087C56.6997 105.668 55.0579 107.301 53.6052 108.986C51.7265 113.678 51.8014 116.343 54.1535 119.916C54.7854 120.876 55.1653 121.994 55.1412 123.143C54.9348 133.014 55.7851 136.97 60.1977 137.349Z" fill="#D1C9B6"/>
<path d="M226.064 83.5845C186.311 29.2889 123.733 31.0242 87.3583 55.9307C76.5466 70.3091 72.5911 84.2329 108.454 80.8742C112.169 79.8878 115.958 78.9826 119.793 78.1607L120.848 65.9257C121.193 71.0556 122.549 73.4679 127.968 76.547C133.215 75.598 138.511 74.8035 143.79 74.169C143.944 74.1505 144.098 74.1321 144.252 74.1139C148.005 73.5017 144.344 69.4662 136.934 61.8001C144.451 67.5427 149.321 72.8172 155.823 72.9977C156.648 72.9364 157.472 72.8792 158.293 72.8261C159.175 72.7692 160.054 72.7171 160.93 72.6697C161.53 72.6373 162.128 72.6072 162.725 72.5793C165.283 71.8598 163.254 67.8354 155.129 56.901C163.012 64.0456 168.09 68.8872 173.061 72.3217C177.313 72.3122 181.46 72.4271 185.459 72.6697C191.153 71.4989 184.663 65.9257 173.061 56.901C179.917 58.9638 181.25 59.7111 193.629 73.3688C197.625 73.8173 201.421 74.4119 204.968 75.1566C208.338 73.5881 206.738 70.7007 198.112 62.3158C206.287 67.2149 210.863 74.3727 219.203 79.5916C221.817 80.7724 224.119 82.1021 226.064 83.5845Z" fill="#F2EBD8"/>
<path d="M232.921 93.5153C232.086 89.6561 229.698 86.3539 226.064 83.5845C224.119 82.1021 221.817 80.7724 219.203 79.5916C215.148 77.7592 210.345 76.2854 204.968 75.1566C201.421 74.4119 197.625 73.8173 193.629 73.3688C190.988 73.0723 188.26 72.8397 185.459 72.6697C181.46 72.4271 177.313 72.3122 173.061 72.3217C169.675 72.3293 166.223 72.4157 162.725 72.5793C162.269 72.7074 161.668 72.7307 160.93 72.6697C160.054 72.7171 159.175 72.7692 158.293 72.8261C157.44 72.9654 156.619 73.0198 155.823 72.9977C151.994 73.282 148.128 73.6548 144.252 74.1139C144.109 74.1373 143.955 74.1556 143.79 74.169C138.511 74.8035 133.215 75.598 127.968 76.547C125.226 77.043 122.498 77.5811 119.793 78.1607C115.958 78.9826 112.169 79.8878 108.454 80.8742C98.8333 83.4288 89.7089 86.528 81.5569 90.1337C68.1082 98.6723 70.7591 113.46 78.1288 118.527L83.9302 116.98C84.8425 112.96 84.7904 110.08 83.1391 103.314L90.7864 114.659C98.7209 113.727 102.663 112.559 100.28 98.4145C102.737 105.584 104.114 109.417 106.608 110.018C111.344 107.894 114 107.178 118.739 107.181L116.893 92.7418C118.785 98.3262 119.921 101.374 123.221 105.376C134.561 104.087 135.784 103.192 134.561 87.8427C137.033 96.7456 137.093 100.547 140.098 102.024C154.074 101.251 156.221 103.394 156.184 85.0064C157.201 92.4805 157.154 99.0332 159.876 99.9616H174.379L176.225 85.0064L178.071 99.9616H192.311C194.828 95.9898 195.899 92.9112 196.794 85.0064C197.035 93.3659 196.151 101.74 198.903 100.993C208.133 104.087 210.43 102.083 213.143 86.8113C211.993 99.5001 212.116 103.539 213.934 103.829L213.944 103.833C219.244 105.625 222.219 106.631 226.855 91.9683C223.295 103.685 223.164 107.439 234.641 108.471C233.919 105.947 233.203 101.595 232.921 93.5153Z" fill="#F2EBD8"/>
<path d="M173.061 56.901C184.663 65.9257 191.153 71.4989 185.459 72.6697C188.26 72.8397 190.988 73.0723 193.629 73.3688C181.25 59.7111 179.917 58.9638 173.061 56.901Z" fill="#D1C9B6"/>
<path d="M198.112 62.3158C206.738 70.7007 208.338 73.5881 204.968 75.1566C210.345 76.2854 215.148 77.7592 219.203 79.5916C210.863 74.3727 206.287 67.2149 198.112 62.3158Z" fill="#D1C9B6"/>
<path d="M173.061 72.3217C168.09 68.8872 163.012 64.0456 155.129 56.901C163.254 67.8354 165.283 71.8598 162.725 72.5793C166.223 72.4157 169.675 72.3293 173.061 72.3217Z" fill="#D1C9B6"/>
<path d="M136.934 61.8001C144.344 69.4662 148.005 73.5017 144.252 74.1139C148.128 73.6548 151.994 73.282 155.823 72.9977C149.321 72.8172 144.451 67.5427 136.934 61.8001Z" fill="#D1C9B6"/>
<path d="M120.848 65.9257L119.793 78.1607C122.498 77.5811 125.226 77.043 127.968 76.547C122.549 73.4679 121.193 71.0556 120.848 65.9257Z" fill="#D1C9B6"/>
<path d="M60.9151 89.132C59.3489 93.9442 58.5122 98.9532 58.5122 104.087C61.6654 101.337 65.3355 98.7465 69.4267 96.3231C63.0979 98.6723 60.5289 94.3789 60.9151 89.132Z" fill="#373652"/>
<path d="M226.064 83.5845C229.698 86.3539 232.086 89.6561 232.921 93.5153C233.203 101.595 233.919 105.947 234.641 108.471M226.064 83.5845C186.311 29.2889 123.733 31.0242 87.3583 55.9307M226.064 83.5845C224.119 82.1021 221.817 80.7724 219.203 79.5916M58.5122 104.087C56.6997 105.668 55.0579 107.301 53.6052 108.986C51.7265 113.678 51.8014 116.343 54.1535 119.916C54.7854 120.876 55.1653 121.994 55.1412 123.143C54.9348 133.014 55.7851 136.97 60.1977 137.349V134.771C84.2833 114.512 170.432 93.258 227.962 113.023C229.782 113.648 230.833 115.516 230.499 117.411L229.442 123.408C229.969 122.548 231.444 118.733 236.085 115.432C237.274 111.614 235.948 113.034 234.641 108.471M58.5122 104.087C58.5122 98.9532 59.3489 93.9442 60.9151 89.132M58.5122 104.087C61.6654 101.337 65.3355 98.7465 69.4267 96.3231M87.3583 55.9307C76.5466 70.3091 72.5911 84.2329 108.454 80.8742M87.3583 55.9307C74.6458 64.6352 65.1338 76.1698 60.9151 89.132M108.454 80.8742C98.8333 83.4288 89.7089 86.528 81.5569 90.1337M108.454 80.8742C112.169 79.8878 115.958 78.9826 119.793 78.1607M60.9151 89.132C60.5289 94.3789 63.0979 98.6723 69.4267 96.3231M69.4267 96.3231C73.1461 94.12 77.2134 92.0549 81.5569 90.1337M81.5569 90.1337C68.1082 98.6723 70.7591 113.46 78.1288 118.527L83.9302 116.98C84.8425 112.96 84.7904 110.08 83.1391 103.314L90.7864 114.659C98.7209 113.727 102.663 112.559 100.28 98.4145C102.737 105.584 104.114 109.417 106.608 110.018C111.344 107.894 114 107.178 118.739 107.181L116.893 92.7418C118.785 98.3262 119.921 101.374 123.221 105.376C134.561 104.087 135.784 103.192 134.561 87.8427C137.033 96.7456 137.093 100.547 140.098 102.024C154.074 101.251 156.221 103.394 156.184 85.0064C157.201 92.4805 157.154 99.0332 159.876 99.9616H174.379L176.225 85.0064L178.071 99.9616H192.311C194.828 95.9898 195.899 92.9112 196.794 85.0064C197.035 93.3659 196.151 101.74 198.903 100.993C208.133 104.087 210.43 102.083 213.143 86.8113C211.993 99.5001 212.116 103.539 213.934 103.829M119.793 78.1607L120.848 65.9257C121.193 71.0556 122.549 73.4679 127.968 76.547M119.793 78.1607C122.498 77.5811 125.226 77.043 127.968 76.547M127.968 76.547C133.215 75.598 138.511 74.8035 143.79 74.169M213.934 103.829L213.944 103.833M213.934 103.829C213.937 103.83 213.941 103.831 213.944 103.833M234.641 108.471C223.164 107.439 223.295 103.685 226.855 91.9683C222.219 106.631 219.244 105.625 213.944 103.833M143.79 74.169C143.944 74.1505 144.098 74.1321 144.252 74.1139M143.79 74.169C143.955 74.1556 144.109 74.1373 144.252 74.1139M158.293 72.8261C159.175 72.7692 160.054 72.7171 160.93 72.6697M158.293 72.8261C157.472 72.8792 156.648 72.9364 155.823 72.9977M158.293 72.8261C157.44 72.9654 156.619 73.0198 155.823 72.9977M160.93 72.6697C161.53 72.6373 162.128 72.6072 162.725 72.5793M160.93 72.6697C161.668 72.7307 162.269 72.7074 162.725 72.5793M173.061 72.3217C168.09 68.8872 163.012 64.0456 155.129 56.901C163.254 67.8354 165.283 71.8598 162.725 72.5793M173.061 72.3217C177.313 72.3122 181.46 72.4271 185.459 72.6697M173.061 72.3217C169.675 72.3293 166.223 72.4157 162.725 72.5793M185.459 72.6697C191.153 71.4989 184.663 65.9257 173.061 56.901C179.917 58.9638 181.25 59.7111 193.629 73.3688M185.459 72.6697C188.26 72.8397 190.988 73.0723 193.629 73.3688M193.629 73.3688C197.625 73.8173 201.421 74.4119 204.968 75.1566M204.968 75.1566C208.338 73.5881 206.738 70.7007 198.112 62.3158C206.287 67.2149 210.863 74.3727 219.203 79.5916M204.968 75.1566C210.345 76.2854 215.148 77.7592 219.203 79.5916M144.252 74.1139C148.005 73.5017 144.344 69.4662 136.934 61.8001C144.451 67.5427 149.321 72.8172 155.823 72.9977M144.252 74.1139C148.128 73.6548 151.994 73.282 155.823 72.9977" stroke="#5E594E"/>
</svg>
