<svg width="300" height="300" viewBox="0 0 300 300" fill="none" xmlns="http://www.w3.org/2000/svg">
<path d="M114.631 64.5885C112.476 64.7088 111.342 64.2716 109.522 62.3583L106.149 58.8933L101.703 54.3259L97.4446 49.9506L94.0382 46.451C92.4899 45.191 90.6319 45.821 88.1546 41.5685C73.6002 30.5437 67.5089 31.5827 64.9295 37.0011C70.8422 32.2738 76.5408 36.2016 86.2795 42.914C86.54 43.0936 86.8034 43.2751 87.0698 43.4585C88.6525 46.4788 89.9977 47.439 92.7996 48.4985C97.7256 53.8531 101.447 57.8389 104.274 60.6258C107.623 63.9269 109.716 65.5458 111.07 65.7646C112.235 65.3375 113.423 64.9438 114.631 64.5885Z" fill="#DCDBE2"/>
<path d="M35.8204 82.8331C30.7113 63.3033 41.7046 56.3733 56.5676 73.3832C57.1213 72.8513 57.6933 72.4313 58.2605 72.1268C53.4026 66.5903 49.1771 63.3421 45.5753 62.0802C44.4283 61.6783 43.3446 61.4778 42.3238 61.469C41.5096 61.462 40.7355 61.5769 40.0013 61.8088C39.1178 62.0879 38.2922 62.5365 37.5241 63.1457C26.8337 70.8374 36.6706 97.8464 50.398 110.984C53.8877 114.324 57.9414 111.647 56.2469 107.123C53.5464 99.9148 49.8841 91.6085 54.526 84.8313C54.195 84.4387 53.9401 83.9754 53.7539 83.4631C53.6466 83.6219 53.5424 83.7793 53.4415 83.9356C50.2186 88.9235 50.2019 92.7254 51.9235 100.158C52.6991 102.994 54.1408 106.054 55.3487 108.619C57.4952 113.175 58.9038 116.166 54.526 113.545C41.0812 100.688 36.0251 86.0603 37.2163 78.1082C38.2722 71.059 44.2372 69.2555 53.6194 78.5806C53.737 78.0424 53.8913 77.5126 54.0773 77.0056C44.615 68.5899 37.9021 68.363 36.2278 77.6357C35.9594 79.1222 35.8204 80.8529 35.8204 82.8331Z" fill="#9FA3BC"/>
<path d="M58.2605 84.7231C56.8771 84.2971 56.1894 83.387 56.1031 82.0456C55.9751 81.1901 55.9397 80.402 55.9787 79.6831C55.9935 79.4107 56.0189 79.1481 56.0541 78.8957C56.3607 76.6921 57.4047 75.2529 58.5249 74.6432C59.8058 73.9461 61.1861 74.3336 61.6771 75.9031L61.7409 75.9877C62.6409 77.142 63.3803 76.4824 63.3803 74.3282C63.0967 73.059 62.4808 72.2336 61.6771 71.8287C60.7224 71.3478 59.5028 71.4601 58.2605 72.1268C57.6933 72.4313 57.1213 72.8513 56.5676 73.3832C55.7643 73.928 55.0551 74.863 54.5086 75.9877C54.3507 76.3128 54.2063 76.6537 54.0773 77.0056C53.8913 77.5126 53.737 78.0424 53.6194 78.5806C53.2487 80.2762 53.2418 82.0547 53.7539 83.4631C53.9401 83.9754 54.195 84.4387 54.526 84.8313C55.3103 85.7615 56.522 86.2946 58.2605 86.1406C58.9074 85.9319 58.8085 85.5658 58.2605 84.7231Z" fill="#EBDE40"/>
<path d="M215.892 39.3635C212.021 37.176 204.125 43.931 194.525 56.2389C195.099 56.4003 195.666 56.561 196.228 56.7208C196.806 56.072 197.403 55.3968 198.011 54.7105C198.011 54.7096 198.012 54.7087 198.013 54.7078C201.137 51.1774 204.517 47.3571 206.772 45.3485C207.726 44.4979 208.479 43.9722 208.925 43.931C212.95 44.561 206.447 51.8059 202.267 58.4706C202.684 58.5935 203.097 58.7156 203.506 58.837C203.715 58.5252 203.922 58.2177 204.126 57.9147C204.132 57.9051 204.139 57.8956 204.145 57.886C208.016 52.1342 210.816 47.9728 211.246 45.3485C211.447 44.1222 211.13 43.2315 210.163 42.671C214.344 39.3635 221.931 40.781 208.46 60.3248C209.328 60.5881 210.174 60.8462 210.997 61.0983C215.178 54.7508 217.443 50.2914 218.341 47.081C218.586 46.2048 218.728 45.4216 218.781 44.7185C218.823 44.1421 218.805 43.6195 218.732 43.1435C218.641 42.5497 218.465 42.0285 218.215 41.566C217.906 40.9952 217.486 40.5138 216.976 40.0958C216.649 39.828 216.286 39.5862 215.892 39.3635Z" fill="#959ABA"/>
<path fill-rule="evenodd" clip-rule="evenodd" d="M75.6121 109.785C73.3839 106.058 71.3705 102.814 69.264 99.6475C68.8871 99.081 68.5073 98.5169 68.1228 97.9529C66.8705 96.1166 65.568 94.2816 64.1545 92.3679C62.3998 89.9922 60.4739 87.4951 58.2605 84.7231L56.1031 82.0456C55.9751 81.1901 55.9397 80.402 55.9787 79.6831C55.9935 79.4107 56.0189 79.1481 56.0541 78.8957C57.0203 76.5027 57.5639 76.139 58.5249 80.1556C58.5249 75.4307 61.7409 79.9981 61.6771 84.4081C62.4522 79.8406 65.0844 83.1481 65.5489 89.763C66.0134 84.2506 68.3359 86.9849 68.8004 94.173C68.8004 87.5966 72.259 91.4955 72.259 99.213C72.5164 92.5939 77.1614 98.898 75.6121 103.465C76.7641 101.186 77.0416 101.3 76.6969 104.725C76.6627 105.721 74.3744 103.78 70.6538 98.583C73.4611 102.701 75.6985 106.308 77.0065 108.682C76.5321 109.038 76.0671 109.406 75.6121 109.785Z" fill="#8A90B4"/>
<path d="M76.3872 97.9529C69.7113 88.6176 65.799 83.5216 58.5249 74.6432C57.4047 75.2529 56.3607 76.6921 56.0541 78.8957C57.0203 76.5027 57.5639 76.139 58.5249 80.1556C58.5249 75.4307 61.7409 79.9981 61.6771 84.4081C62.4522 79.8406 65.0844 83.1481 65.5489 89.763C66.0134 84.2506 68.3359 86.9849 68.8004 94.173C68.8004 87.5966 72.259 91.4955 72.259 99.213C72.5164 92.5939 77.1614 98.898 75.6121 103.465C76.7641 101.186 77.0416 101.3 76.6969 104.725C76.6627 105.721 74.3744 103.78 70.6538 98.583C73.4611 102.701 75.6985 106.308 77.0065 108.682C78.4708 107.583 80.0246 106.596 81.6515 105.746C80.5295 102.152 79.2646 100.511 76.3872 97.9529Z" fill="#313151"/>
<path fill-rule="evenodd" clip-rule="evenodd" d="M54.5086 75.9877C53.8319 72.3344 52.7025 70.4001 51.7223 70.3259C51.1946 70.286 50.0634 70.2196 49.8947 69.718C48.8582 66.6356 46.8399 65.7221 46.9688 70.7057C46.0398 64.0908 42.6335 62.5158 43.8722 69.4457C41.9837 63.0917 39.1412 63.8083 40.971 68.2134C41.1297 68.5957 40.8053 68.968 40.506 68.6821C40.1226 68.3161 39.9007 67.7906 39.6826 67.2741C39.4419 66.7042 39.2058 66.1453 38.7627 65.8233C36.8873 67.3381 37.6174 68.2494 38.375 69.1951C38.6517 69.5405 38.3487 69.8592 38.0113 69.5727C37.6246 69.2443 37.2467 68.8127 36.7498 68.1858C35.6458 69.7309 35.5745 70.695 36.2734 71.6514C36.5602 72.0439 36.3446 72.4508 35.9598 72.1538C35.7765 72.0122 35.5801 71.8449 35.3563 71.6507C35.0378 73.8106 35.5658 74.4895 35.9292 74.9567C36.0958 75.1709 36.2278 75.3407 36.2278 75.5882C36.107 75.7796 35.8627 75.5345 35.6427 75.3139C35.4035 75.074 35.193 74.863 35.2015 75.2732C35.2536 77.802 35.4127 78.6215 36.2278 77.6357C37.9021 68.363 44.615 68.5899 54.0773 77.0056C54.2063 76.6537 54.3507 76.3128 54.5086 75.9877Z" fill="#8890B5"/>
<path d="M56.5676 73.3832C41.7046 56.3733 30.7113 63.3033 35.8204 82.8331C35.8204 80.8529 35.9594 79.1222 36.2278 77.6357C35.4127 78.6215 35.2536 77.802 35.2015 75.2732C35.193 74.863 35.4035 75.074 35.6427 75.3139C35.8627 75.5345 36.107 75.7796 36.2278 75.5882C36.2278 75.3407 36.0958 75.1709 35.9292 74.9567C35.5658 74.4895 35.0378 73.8106 35.3563 71.6507C35.5801 71.8449 35.7765 72.0122 35.9598 72.1538C36.3446 72.4508 36.5602 72.0439 36.2734 71.6514C35.5745 70.695 35.6458 69.7309 36.7498 68.1858C37.2467 68.8127 37.6246 69.2443 38.0113 69.5727C38.3487 69.8592 38.6517 69.5405 38.375 69.1951C37.6174 68.2494 36.8873 67.3381 38.7627 65.8233C39.2058 66.1453 39.4419 66.7042 39.6826 67.2741C39.9007 67.7906 40.1226 68.3161 40.506 68.6821C40.8053 68.968 41.1297 68.5957 40.971 68.2134C39.1412 63.8083 41.9837 63.0917 43.8722 69.4457C42.6335 62.5158 46.0398 64.0908 46.9688 70.7057C46.8399 65.7221 48.8582 66.6356 49.8947 69.718C50.0634 70.2196 51.1946 70.286 51.7223 70.3259C52.7025 70.4001 53.8319 72.3344 54.5086 75.9877C55.0551 74.863 55.7643 73.928 56.5676 73.3832Z" fill="#313151"/>
<path fill-rule="evenodd" clip-rule="evenodd" d="M53.4415 83.9356C50.2186 88.9235 50.2019 92.7254 51.9235 100.158C52.6991 102.994 54.1408 106.054 55.3487 108.619C57.4952 113.175 58.9038 116.166 54.526 113.545C41.0812 100.688 36.0251 86.0603 37.2163 78.1082C42.4787 74.3282 51.7687 72.1268 53.4415 83.9356Z" fill="#444861"/>
<path d="M53.7539 83.4631C53.2418 82.0547 53.2487 80.2762 53.6194 78.5806C44.2372 69.2555 38.2722 71.059 37.2163 78.1082C42.4787 74.3282 51.7687 72.1268 53.4415 83.9356C53.5424 83.7793 53.6466 83.6219 53.7539 83.4631Z" fill="#342E48"/>
<path d="M45.5753 62.0802C49.1771 63.3421 53.4026 66.5903 58.2605 72.1268C59.5028 71.4601 60.7224 71.3478 61.6771 71.8287C61.4333 71.0813 61.6505 70.3945 62.2974 68.9732C58.7331 73.5862 54.1574 70.326 57.8005 65.4357C54.1483 69.4583 51.2606 67.0503 55.3299 61.7283C50.8397 66.1383 48.0527 64.8783 51.7687 59.9958C51.0446 60.1658 50.4006 60.6096 49.7431 61.0628C48.5729 61.8693 47.3597 62.7054 45.5753 62.0802Z" fill="#313151"/>
<path d="M47.743 57.1609C44.9652 59.7668 43.4464 61.1727 42.3238 61.469C43.3446 61.4778 44.4283 61.6783 45.5753 62.0802C45.2133 61.1917 46.0205 59.8311 47.743 57.1609Z" fill="#313151"/>
<path d="M63.3803 74.3282C63.3803 76.4824 62.6409 77.142 61.7409 75.9877L69.11 85.7492C67.9532 83.1629 68.5237 81.8413 71.4325 79.6831C71.4185 79.6896 71.4045 79.6961 71.3905 79.7025C71.3755 79.7093 71.3604 79.7162 71.3454 79.723C66.2687 82.0222 62.322 79.9677 66.6327 74.6432C66.5916 74.663 66.5511 74.6826 66.5111 74.7019C66.4683 74.7225 66.4261 74.7429 66.3846 74.763C63.8434 75.9906 63.8019 76.0107 63.3803 74.3282Z" fill="#313151"/>
<path d="M69.11 85.7492L72.259 89.9205C71.6238 88.8529 72.8191 88.1196 75.0937 86.7241C76.7175 85.7279 78.8912 84.3942 81.3419 82.3606C79.0112 83.1876 77.1738 84.1884 75.6438 85.0217C72.8032 86.5689 71.022 87.539 69.11 85.7492Z" fill="#313151"/>
<path d="M72.7346 90.5505L74.9937 93.543C77.41 93.543 78.8163 92.4177 80.6065 90.9852C82.0282 89.8475 83.6922 88.516 86.2966 87.4006C83.1719 87.8063 80.9037 89.1161 79.0433 90.1903C76.5709 91.6179 74.8189 92.6295 72.7346 90.5505Z" fill="#313151"/>
<path d="M81.3419 99.7325C80.7799 98.0728 81.7919 97.4745 85.3666 96.8505C92.0255 96.0976 93.4368 95.3485 95.6932 94.1509C95.8587 94.0631 96.0288 93.9728 96.2059 93.8799C92.6756 95.1615 89.4571 95.591 84.2837 95.748C83.3874 95.748 82.7963 96.0037 82.2611 96.2352C81.2245 96.6835 80.3976 97.0412 77.969 95.2755C79.1197 96.2525 79.7734 97.3186 80.3644 98.2825C80.6855 98.8063 80.9881 99.2998 81.3419 99.7325Z" fill="#313151"/>
<path d="M209.645 97.8485C214.29 109.976 220.382 110.08 224.408 111.025L225.921 108.348C215.892 110.553 211.495 103.588 210.406 96.8157C210.065 97.1851 210.023 97.4827 209.645 97.8485Z" fill="#313151"/>
<path d="M225.921 108.348L227.701 105.198C226.837 105.308 226.122 105.572 225.337 105.887C225.315 105.896 225.292 105.905 225.27 105.914C225.231 105.93 225.192 105.946 225.152 105.962L225.042 106.007C224.009 106.426 222.816 106.91 221.002 107.245C221.766 107.245 222.444 107.218 223.033 107.194L223.033 107.194C225.07 107.112 226.052 107.073 225.921 108.348Z" fill="#313151"/>
<path d="M210.997 61.0983C212.06 61.4235 213.085 61.7389 214.073 62.0433C212.507 59.8417 212.773 58.5977 214.963 56.3734C215.596 57.3568 215.988 57.8485 217.286 57.7909C215.321 55.7053 215.056 54.5337 216.976 52.4359C217.956 53.1208 218.49 53.3379 219.453 53.5384C217.478 51.2637 217.741 50.3284 218.834 48.8134C220.948 50.4255 222.2 50.7875 224.563 50.3884C222.016 50.0548 220.631 49.5215 218.341 47.081C217.443 50.2914 215.178 54.7508 210.997 61.0983Z" fill="#313151"/>
<path d="M208.46 60.3248C221.931 40.781 214.344 39.3635 210.163 42.671C211.13 43.2315 211.447 44.1222 211.246 45.3485C212.011 44.1387 212.587 43.6292 214.654 43.931C215.016 44.2998 214.53 44.4959 213.91 44.7457C213.206 45.0293 212.331 45.3823 212.331 46.136C214.789 45.0584 215.428 45.0335 214.073 47.8685C213.688 47.6551 213.271 47.8009 212.331 48.3409C214.963 47.8685 212.95 51.0184 209.854 51.9634C213.146 52.1347 212.021 53.8534 207.686 54.9559C212.021 53.8534 210.997 58.1058 205.983 57.7909C208.666 58.0175 209.387 58.4046 207.686 60.0902C207.946 60.1689 208.204 60.2471 208.46 60.3248Z" fill="#313151"/>
<path d="M218.781 44.7185C220.982 45.9036 222.333 46.1807 225.027 45.6635C224.441 45.493 223.854 45.3926 223.272 45.293C221.702 45.0243 220.162 44.7609 218.732 43.1435C218.805 43.6195 218.823 44.1421 218.781 44.7185Z" fill="#313151"/>
<path d="M216.976 40.0958C217.486 40.5138 217.906 40.9952 218.215 41.566L223.789 40.9385C222.674 40.7495 221.656 40.7411 220.718 40.7334C219.311 40.7217 218.083 40.7116 216.976 40.0958Z" fill="#313151"/>
<path d="M202.267 58.4706C206.447 51.8059 212.95 44.561 208.925 43.931C208.479 43.9722 207.726 44.4979 206.772 45.3485C206.95 49.4018 206.602 51.1759 201.648 58.2883L201.907 58.3647C202.027 58.4001 202.147 58.4354 202.267 58.4706Z" fill="#2C2D42"/>
<path d="M121.427 87.0856C120.529 85.4476 119.593 84.2931 118.347 83.4277C119.107 84.9124 118.406 86.3715 117.479 88.3025C117.151 88.9855 116.794 89.7275 116.464 90.5505C116.739 90.2825 117 90.0162 117.253 89.757C118.507 88.4753 119.59 87.3675 121.427 87.0856Z" fill="#313151"/>
<path fill-rule="evenodd" clip-rule="evenodd" d="M85.3666 104.095C85.9972 103.863 86.5922 104.152 87.3331 104.511C88.7751 105.209 90.77 106.176 94.6566 104.095C97.4478 102.433 99.79 100.455 101.854 98.7122C104.485 96.4907 106.664 94.6503 108.746 94.3306C112.794 93.7092 114.873 92.1011 116.464 90.5505C116.794 89.7275 117.151 88.9855 117.479 88.3025C118.406 86.3715 119.107 84.9124 118.347 83.4277C118.01 83.1938 117.651 82.9811 117.263 82.7856C116.505 84.7362 115.671 86.271 114.786 87.4981C115.845 84.5296 115.78 83.341 114.786 81.8528C114.442 81.7554 114.081 81.6626 113.701 81.5732C114.255 81.286 114.823 81.0174 115.404 80.7678C104.256 75.9033 94.2518 77.8268 87.0698 83.4631C89.8308 78.5338 96.3445 72.7493 104.767 68.5007C104.773 68.4981 104.778 68.4953 104.784 68.4925C105.029 68.3692 105.275 68.2471 105.523 68.1263C107.297 67.2625 109.152 66.4681 111.07 65.7646C109.716 65.5458 107.623 63.9269 104.274 60.6258C101.447 57.8389 97.7256 53.8531 92.7996 48.4985C89.9977 47.439 88.6525 46.4788 87.0698 43.4585C86.8034 43.2751 86.54 43.0936 86.2795 42.914C76.5408 36.2016 70.8422 32.2738 64.9295 37.0011C60.03 39.493 58.9755 41.4803 57.9981 43.3222C57.4311 44.3906 56.8901 45.4102 55.6395 46.451C52.3848 49.6391 49.478 51.8665 47.0699 53.7117C43.2918 56.6068 40.7413 58.5611 40.0013 61.8088C40.7355 61.5769 41.5096 61.462 42.3238 61.469C43.4464 61.1727 44.9652 59.7668 47.743 57.1609C46.0205 59.8311 45.2133 61.1917 45.5753 62.0802C47.3597 62.7054 48.5729 61.8693 49.7431 61.0628C50.4006 60.6096 51.0446 60.1658 51.7687 59.9958C48.0527 64.8783 50.8397 66.1383 55.3299 61.7283C51.2606 67.0503 54.1483 69.4583 57.8005 65.4357C54.1574 70.326 58.7331 73.5862 62.2974 68.9732C61.6505 70.3945 61.4333 71.0813 61.6771 71.8287C62.4808 72.2336 63.0967 73.059 63.3803 74.3282C63.8019 76.0107 63.8434 75.9906 66.3846 74.763L66.5111 74.7019L66.6327 74.6432C62.322 79.9677 66.2687 82.0222 71.3454 79.723L71.3905 79.7025L71.4325 79.6831C68.5237 81.8413 67.9532 83.1629 69.11 85.7492L61.7409 75.9877C61.7197 75.9605 61.6984 75.9323 61.6771 75.9031C61.1861 74.3336 59.8058 73.9461 58.5249 74.6432C65.799 83.5216 69.7113 88.6176 76.3872 97.9529C79.2646 100.511 80.5295 102.152 81.6515 105.746C82.8523 105.118 84.0928 104.564 85.3666 104.095ZM69.11 85.7492C71.022 87.539 72.8032 86.5689 75.6438 85.0217C77.1738 84.1884 79.0112 83.1876 81.3419 82.3606C78.8912 84.3942 76.7175 85.7279 75.0937 86.7241C72.8191 88.1196 71.6238 88.8529 72.259 89.9205L69.11 85.7492ZM72.7346 90.5505L74.9937 93.543C77.41 93.543 78.8163 92.4177 80.6065 90.9852C82.0282 89.8475 83.6922 88.516 86.2966 87.4006C83.1719 87.8063 80.9037 89.1161 79.0433 90.1903C76.5709 91.6179 74.8189 92.6295 72.7346 90.5505ZM82.2611 96.2352C82.7963 96.0037 83.3874 95.748 84.2837 95.748C89.4571 95.591 92.6756 95.1615 96.2059 93.8799C96.0288 93.9728 95.8587 94.0631 95.6932 94.1509C93.4368 95.3485 92.0255 96.0976 85.3666 96.8505C81.7919 97.4745 80.7799 98.0728 81.3419 99.7325C80.9881 99.2998 80.6855 98.8063 80.3644 98.2825C79.7734 97.3186 79.1197 96.2525 77.969 95.2755C80.3976 97.0412 81.2245 96.6835 82.2611 96.2352Z" fill="#FFFFFB"/>
<path d="M117.263 82.7856C116.545 82.4235 115.731 82.1207 114.786 81.8528C115.78 83.341 115.845 84.5296 114.786 87.4981C115.671 86.271 116.505 84.7362 117.263 82.7856Z" fill="#313151"/>
<path fill-rule="evenodd" clip-rule="evenodd" d="M104.767 68.5007C104.773 68.4981 104.778 68.4953 104.784 68.4925C105.029 68.3692 105.275 68.2471 105.523 68.1263C105.269 68.2497 105.018 68.3746 104.767 68.5007Z" fill="url(#paint0_radial_199_103)"/>
<path d="M210.997 61.0983C210.174 60.8462 209.328 60.5881 208.46 60.3248L200.783 70.74C201.44 71.682 202.093 72.7048 202.792 73.8381L210.997 61.0983Z" fill="#959ABA"/>
<path d="M196.228 56.7208C195.666 56.561 195.099 56.4003 194.525 56.2389L190.102 61.7039C190.607 61.973 191.087 62.2378 191.546 62.4996L196.228 56.7208Z" fill="#959ABA"/>
<path d="M203.506 58.837C203.097 58.7156 202.684 58.5935 202.267 58.4706L196.447 65.8582C196.737 66.1057 197.016 66.3557 197.286 66.6092L203.506 58.837Z" fill="#8E96BB"/>
<path fill-rule="evenodd" clip-rule="evenodd" d="M249.646 58.1058C247.473 71.7823 243.524 81.4163 227.969 104.725L227.701 105.198C226.837 105.308 226.122 105.572 225.337 105.887L225.27 105.914C225.231 105.93 225.192 105.946 225.152 105.962L225.042 106.007C224.009 106.426 222.816 106.91 221.002 107.245C221.766 107.245 222.444 107.218 223.033 107.194L223.033 107.194C225.07 107.112 226.052 107.073 225.921 108.348C215.892 110.553 211.495 103.588 210.406 96.8157C212.096 94.9876 212.819 93.3598 213.706 91.3941C214.71 89.1669 215.546 86.9262 215.736 84.4081C215.913 82.0578 215.736 77.9507 216.357 76.8482C210.997 79.6831 206.772 85.456 204.987 79.6831C204.765 78.9645 204.561 78.2805 204.302 77.6357L203.818 76.4199C204.292 73.1458 206.698 72.2827 210.984 70.7448L210.997 70.74L206.772 70.2237C207.262 68.3986 209.213 67.7324 212.429 66.6338C213.114 66.4 213.856 66.1466 214.654 65.8582H209.854C210.959 62.9037 212.252 62.6048 215.892 63.2529C215.653 63.1791 215.328 62.92 215 62.6583C214.665 62.3913 214.327 62.1216 214.073 62.0433C212.507 59.8417 212.773 58.5977 214.963 56.3734C215.596 57.3568 215.988 57.8485 217.286 57.7909C215.321 55.7053 215.056 54.5337 216.976 52.4359C217.956 53.1208 218.49 53.3379 219.453 53.5384C217.478 51.2637 217.741 50.3284 218.834 48.8134C220.948 50.4255 222.2 50.7875 224.563 50.3884C222.016 50.0548 220.631 49.5215 218.341 47.081C218.586 46.2048 218.728 45.4216 218.781 44.7185C220.982 45.9036 222.333 46.1807 225.027 45.6635C224.441 45.493 223.854 45.3926 223.272 45.293C221.702 45.0243 220.162 44.7609 218.732 43.1435C218.641 42.5497 218.465 42.0285 218.215 41.566L223.789 40.9385C222.674 40.7495 221.656 40.7411 220.718 40.7334C219.311 40.7217 218.083 40.7116 216.976 40.0958C216.649 39.828 216.286 39.5862 215.892 39.3635C224.82 37.6345 243.143 42.5135 249.646 58.1058Z" fill="#FFFFFB"/>
<path d="M214.073 62.0433C213.085 61.7389 212.06 61.4235 210.997 61.0983L202.792 73.8381L203.818 76.4199C204.292 73.1458 206.698 72.2827 210.984 70.7448L210.997 70.74L206.772 70.2237C207.262 68.3986 209.213 67.7324 212.429 66.6338C213.114 66.4 213.856 66.1466 214.654 65.8582H209.854C210.959 62.9037 212.252 62.6048 215.892 63.2529C215.653 63.1791 215.328 62.92 215 62.6583C214.665 62.3913 214.327 62.1216 214.073 62.0433Z" fill="#1D1D31"/>
<path d="M207.686 60.0902C209.387 58.4046 208.666 58.0175 205.983 57.7909C207.519 58.5307 207.107 60.3248 203.807 60.9293C205.584 61.4457 205.076 62.9948 201.523 63.7693C204.055 64.5355 203.092 65.0025 200 65.8582C202.194 67.3484 201.194 67.6041 198.477 67.8199C199.163 68.5711 199.795 69.364 200.417 70.2237L207.686 60.0902Z" fill="#313151"/>
<path d="M201.648 58.2883C206.602 51.1759 206.95 49.4018 206.772 45.3485C204.517 47.3571 201.137 51.1774 198.013 54.7078L198.011 54.7105C197.403 55.3968 196.806 56.072 196.228 56.7208L191.546 62.4996C193.376 63.5451 194.851 64.5431 196.11 65.5765L201.648 58.2883Z" fill="#41435C"/>
<path d="M214.654 43.931C212.587 43.6292 212.011 44.1387 211.246 45.3485C210.816 47.9728 208.016 52.1342 204.145 57.886L204.126 57.9147C203.922 58.2177 203.715 58.5252 203.506 58.837L197.286 66.6092C197.704 67.0028 198.099 67.405 198.477 67.8199C201.194 67.6041 202.194 67.3484 200 65.8582C203.092 65.0025 204.055 64.5355 201.523 63.7693C205.076 62.9948 205.584 61.4457 203.807 60.9293C207.107 60.3248 207.519 58.5307 205.983 57.7909C210.997 58.1058 212.021 53.8534 207.686 54.9559C212.021 53.8534 213.146 52.1347 209.854 51.9634C212.95 51.0184 214.963 47.8685 212.331 48.3409C213.271 47.8009 213.688 47.6551 214.073 47.8685C215.428 45.0335 214.789 45.0584 212.331 46.136C212.331 45.3823 213.206 45.0293 213.91 44.7457C214.53 44.4959 215.016 44.2998 214.654 43.931Z" fill="#959ABA"/>
<path d="M208.46 60.3248C208.204 60.2471 207.946 60.1689 207.686 60.0902L200.417 70.2237C200.539 70.3931 200.661 70.5652 200.783 70.74L208.46 60.3248Z" fill="#313151"/>
<path d="M201.907 58.3647L201.648 58.2883L196.11 65.5765C196.224 65.6701 196.336 65.7639 196.447 65.8582L202.267 58.4706L201.907 58.3647Z" fill="#313151"/>
<path d="M122.217 88.6606C121.952 88.0905 121.691 87.5672 121.427 87.0856M121.427 87.0856C120.529 85.4476 119.593 84.2931 118.347 83.4277M121.427 87.0856C119.59 87.3675 118.507 88.4753 117.253 89.757C117 90.0162 116.739 90.2825 116.464 90.5505M56.1031 82.0456C56.1894 83.387 56.8771 84.2971 58.2605 84.7231M56.1031 82.0456L58.2605 84.7231M56.1031 82.0456C55.9751 81.1901 55.9397 80.402 55.9787 79.6831M61.6771 75.9031C61.1861 74.3336 59.8058 73.9461 58.5249 74.6432M61.6771 75.9031C61.6984 75.9323 61.7197 75.9605 61.7409 75.9877M61.6771 75.9031L61.7409 75.9877M64.1545 92.3679C62.5051 95.988 61.9049 98.5729 61.3675 104.095C63.9951 101.315 65.4703 99.8758 68.1228 97.9529M64.1545 92.3679C65.568 94.2816 66.8705 96.1166 68.1228 97.9529M64.1545 92.3679C62.3998 89.9922 60.4739 87.4951 58.2605 84.7231M68.1228 97.9529C68.5073 98.5169 68.8871 99.081 69.264 99.6475C71.3705 102.814 73.3839 106.058 75.6121 109.785C76.0671 109.406 76.5321 109.038 77.0065 108.682M58.2605 84.7231C58.8085 85.5658 58.9074 85.9319 58.2605 86.1406C56.522 86.2946 55.3103 85.7615 54.526 84.8313M63.3803 74.3282C63.3803 76.4824 62.6409 77.142 61.7409 75.9877M63.3803 74.3282C63.0967 73.059 62.4808 72.2336 61.6771 71.8287M63.3803 74.3282C63.8019 76.0107 63.8434 75.9906 66.3846 74.763M56.5676 73.3832C41.7046 56.3733 30.7113 63.3033 35.8204 82.8331C35.8204 80.8529 35.9594 79.1222 36.2278 77.6357M56.5676 73.3832C57.1213 72.8513 57.6933 72.4313 58.2605 72.1268M56.5676 73.3832C55.7643 73.928 55.0551 74.863 54.5086 75.9877M54.0773 77.0056C53.8913 77.5126 53.737 78.0424 53.6194 78.5806M54.0773 77.0056C44.615 68.5899 37.9021 68.363 36.2278 77.6357M54.0773 77.0056C54.2063 76.6537 54.3507 76.3128 54.5086 75.9877M54.526 84.8313C49.8841 91.6085 53.5464 99.9148 56.2469 107.123C57.9414 111.647 53.8877 114.324 50.398 110.984C36.6706 97.8464 26.8337 70.8374 37.5241 63.1457C38.2922 62.5365 39.1178 62.0879 40.0013 61.8088M54.526 84.8313C54.195 84.4387 53.9401 83.9754 53.7539 83.4631M53.7539 83.4631C53.2418 82.0547 53.2487 80.2762 53.6194 78.5806M53.7539 83.4631C53.6466 83.6219 53.5424 83.7793 53.4415 83.9356M53.6194 78.5806C44.2372 69.2555 38.2722 71.059 37.2163 78.1082M215.892 39.3635C224.82 37.6345 243.143 42.5135 249.646 58.1058C247.473 71.7823 243.524 81.4163 227.969 104.725L227.701 105.198M215.892 39.3635C212.021 37.176 204.125 43.931 194.525 56.2389M215.892 39.3635C216.286 39.5862 216.649 39.828 216.976 40.0958M58.2605 72.1268C53.4026 66.5903 49.1771 63.3421 45.5753 62.0802M58.2605 72.1268C59.5028 71.4601 60.7224 71.3478 61.6771 71.8287M74.9937 93.543L72.7346 90.5505M74.9937 93.543C76.272 94.0487 77.2245 94.6434 77.969 95.2755M74.9937 93.543C77.41 93.543 78.8163 92.4177 80.6065 90.9852C82.0282 89.8475 83.6922 88.516 86.2966 87.4006M82.8902 100.945C82.2324 100.655 81.7526 100.235 81.3419 99.7325M58.5249 74.6432C65.799 83.5216 69.7113 88.6176 76.3872 97.9529C79.2646 100.511 80.5295 102.152 81.6515 105.746M58.5249 74.6432C57.4047 75.2529 56.3607 76.6921 56.0541 78.8957M81.6515 105.746C82.8523 105.118 84.0928 104.564 85.3666 104.095C85.9972 103.863 86.5922 104.152 87.3331 104.511C88.7751 105.209 90.77 106.176 94.6566 104.095C97.4478 102.433 99.79 100.455 101.854 98.7122C104.485 96.4907 106.664 94.6503 108.746 94.3306C112.794 93.7092 114.873 92.1011 116.464 90.5505M81.6515 105.746C80.0246 106.596 78.4708 107.583 77.0065 108.682M102.09 95.2755C105.766 92.3099 110.791 93.0388 114.786 87.4981M117.263 82.7856C117.651 82.9811 118.01 83.1938 118.347 83.4277M117.263 82.7856C116.545 82.4235 115.731 82.1207 114.786 81.8528M117.263 82.7856C116.505 84.7362 115.671 86.271 114.786 87.4981M64.9295 37.0011C67.5089 31.5827 73.6002 30.5437 88.1546 41.5685C90.6319 45.821 92.4899 45.191 94.0382 46.451L97.4446 49.9506L101.703 54.3259L106.149 58.8933L109.522 62.3583C111.342 64.2716 112.476 64.7088 114.631 64.5885C113.423 64.9438 112.235 65.3375 111.07 65.7646M64.9295 37.0011C60.03 39.493 58.9755 41.4803 57.9981 43.3222C57.4311 44.3906 56.8901 45.4102 55.6395 46.451C52.3848 49.6391 49.478 51.8665 47.0699 53.7117C43.2918 56.6068 40.7413 58.5611 40.0013 61.8088M64.9295 37.0011C70.8422 32.2738 76.5408 36.2016 86.2795 42.914C86.54 43.0936 86.8034 43.2751 87.0698 43.4585C88.6525 46.4788 89.9977 47.439 92.7996 48.4985C97.7256 53.8531 101.447 57.8389 104.274 60.6258M40.0013 61.8088C40.7355 61.5769 41.5096 61.462 42.3238 61.469M111.07 65.7646C109.716 65.5458 107.623 63.9269 104.274 60.6258M111.07 65.7646C109.152 66.4681 107.297 67.2625 105.523 68.1263M194.525 56.2389C195.099 56.4003 195.666 56.561 196.228 56.7208M194.525 56.2389L190.102 61.7039C190.607 61.973 191.087 62.2378 191.546 62.4996M210.997 61.0983C210.174 60.8462 209.328 60.5881 208.46 60.3248M210.997 61.0983C212.06 61.4235 213.085 61.7389 214.073 62.0433M210.997 61.0983C215.178 54.7508 217.443 50.2914 218.341 47.081M210.997 61.0983L202.792 73.8381M196.228 56.7208L191.546 62.4996M196.228 56.7208C196.806 56.072 197.403 55.3968 198.011 54.7105M202.267 58.4706C206.447 51.8059 212.95 44.561 208.925 43.931C208.479 43.9722 207.726 44.4979 206.772 45.3485M202.267 58.4706C202.684 58.5935 203.097 58.7156 203.506 58.837M202.267 58.4706C202.147 58.4354 202.027 58.4001 201.907 58.3647M202.267 58.4706L196.447 65.8582M202.267 58.4706L201.907 58.3647M203.506 58.837L197.286 66.6092M203.506 58.837C203.715 58.5252 203.922 58.2177 204.126 57.9147M208.46 60.3248C221.931 40.781 214.344 39.3635 210.163 42.671C211.13 43.2315 211.447 44.1222 211.246 45.3485M208.46 60.3248C208.204 60.2471 207.946 60.1689 207.686 60.0902M208.46 60.3248L200.783 70.74M61.7409 75.9877L69.11 85.7492M55.9787 79.6831C55.9935 79.4107 56.0189 79.1481 56.0541 78.8957M55.9787 79.6831C61.338 85.596 66.5924 92.6247 70.6538 98.583M77.0065 108.682C75.6985 106.308 73.4611 102.701 70.6538 98.583M42.3238 61.469C43.4464 61.1727 44.9652 59.7668 47.743 57.1609C46.0205 59.8311 45.2133 61.1917 45.5753 62.0802M42.3238 61.469C43.3446 61.4778 44.4283 61.6783 45.5753 62.0802M45.5753 62.0802C47.3597 62.7054 48.5729 61.8693 49.7431 61.0628C50.4006 60.6096 51.0446 60.1658 51.7687 59.9958M49.7558 54.9559L56.1031 49.4434C58.1375 45.0203 59.5392 43.8109 62.4522 43.4585L67.252 38.576M71.7422 39.836L67.252 44.561C62.6625 45.9713 61.6267 47.9681 60.1297 51.8059C56.3373 55.1394 54.4644 56.9434 51.7687 59.9958M51.7687 59.9958C48.0527 64.8783 50.8397 66.1383 55.3299 61.7283M55.3299 61.7283L62.4522 56.2159C64.6026 51.0608 66.5956 49.1926 71.7422 47.8685L77.9355 42.5135M55.3299 61.7283C51.2606 67.0503 54.1483 69.4583 57.8005 65.4357M58.5249 64.5633C61.1806 61.8394 63.3803 61.0983 66.4779 58.7358C67.8357 55.7631 68.7018 54.281 70.968 52.9084M58.5249 64.5633C58.2542 64.8588 58.0133 65.1501 57.8005 65.4357M58.5249 64.5633C58.2813 64.8822 58.0393 65.1727 57.8005 65.4357M62.2974 68.9732C61.6505 70.3945 61.4333 71.0813 61.6771 71.8287M62.2974 68.9732C65.8931 65.2968 68.9552 64.5633 72.826 61.7283C73.5266 59.7649 73.9896 58.7825 75.3034 57.8069M62.2974 68.9732C58.7331 73.5862 54.1574 70.326 57.8005 65.4357M70.968 52.9084L68.6455 51.1759C71.7643 48.86 73.708 47.3339 76.4336 44.8496C77.3458 44.0181 78.6772 43.7934 79.7504 44.4029C82.8773 46.1787 85.5688 48.509 87.8967 51.2994C88.8066 52.39 88.7291 54.0053 87.6268 54.901C85.5463 56.5918 83.4998 57.3604 81.484 58.5128C79.6091 59.5848 77.2093 59.9525 75.7671 58.3448C75.609 58.1685 75.4549 57.989 75.3034 57.8069M70.968 52.9084C72.8766 54.4658 73.9939 56.2329 75.3034 57.8069M66.6327 74.6432C62.322 79.9677 66.2687 82.0222 71.3454 79.723M66.6327 74.6432C70.7796 71.5739 73.3486 70.2493 78.2452 68.5007C79.9484 67.8926 81.3419 62.9883 88.7739 59.6808M66.6327 74.6432C66.5916 74.663 66.5511 74.6826 66.5111 74.7019M66.6327 74.6432L66.5111 74.7019M71.4325 79.6831C68.5237 81.8413 67.9532 83.1629 69.11 85.7492M71.4325 79.6831C71.4185 79.6896 71.4045 79.6961 71.3905 79.7025M71.4325 79.6831L71.3905 79.7025M69.11 85.7492L72.259 89.9205M69.11 85.7492C71.022 87.539 72.8032 86.5689 75.6438 85.0217C77.1738 84.1884 79.0112 83.1876 81.3419 82.3606M81.3419 82.3606C84.6205 80.3221 86.7006 79.3787 90.9416 78.1082M81.3419 82.3606C78.8912 84.3942 76.7175 85.7279 75.0937 86.7241C72.8191 88.1196 71.6238 88.8529 72.259 89.9205M72.259 89.9205L72.7346 90.5505M72.7346 90.5505C74.8189 92.6295 76.5709 91.6179 79.0433 90.1903C80.9037 89.1161 83.1719 87.8063 86.2966 87.4006M86.2966 87.4006C93.7286 85.3531 99.3026 87.0856 103.638 78.5807M71.3454 79.723C73.2899 78.1371 74.4517 77.3224 76.8517 76.2182M71.3454 79.723C71.3604 79.7162 71.3755 79.7093 71.3905 79.7025M71.3454 79.723L71.3905 79.7025M79.1742 75.1157C88.6191 70.5482 96.2059 68.8157 99.9219 57.8069M77.969 95.2755C79.1197 96.2525 79.7734 97.3186 80.3644 98.2825C80.6855 98.8063 80.9881 99.2998 81.3419 99.7325M77.969 95.2755C80.3976 97.0412 81.2245 96.6835 82.2611 96.2352C82.7963 96.0037 83.3874 95.748 84.2837 95.748C89.4571 95.591 92.6756 95.1615 96.2059 93.8799M81.3419 99.7325C80.7799 98.0728 81.7919 97.4745 85.3666 96.8505C92.0255 96.0976 93.4368 95.3485 95.6932 94.1509C95.8587 94.0631 96.0288 93.9728 96.2059 93.8799M96.2059 93.8799C97.3362 93.4696 98.4985 92.9719 99.7671 92.3679C111.07 88.6606 107.509 82.3606 111.534 80.3131M84.2837 101.418C87.3673 100.918 89.5481 103.78 92.7996 102.363M95.1221 101.418C97.1474 99.3012 98.3837 98.1563 100.851 96.2205M104.274 60.6258C105.103 62.8283 106.141 67.7866 104.784 68.4925M104.767 68.5007C96.3445 72.7493 89.8308 78.5338 87.0698 83.4631C94.2518 77.8268 104.256 75.9033 115.404 80.7678C114.823 81.0174 114.255 81.286 113.701 81.5732C114.081 81.6626 114.442 81.7554 114.786 81.8528M104.767 68.5007C104.773 68.4981 104.778 68.4953 104.784 68.4925M104.767 68.5007C105.018 68.3746 105.269 68.2497 105.523 68.1263M40.1562 77.6357C42.9866 78.0741 44.3798 77.9994 45.7302 75.9877M41.7045 80.1556C44.2829 80.0704 45.7191 79.6981 48.2075 76.2182M42.4787 82.0456C46.5043 83.4631 47.1237 78.1082 50.2203 78.1082M41.24 85.7492C43.8722 83.7781 46.9688 85.7492 49.601 81.4156M42.4787 88.5031C44.3071 89.1861 45.3129 88.9823 47.1237 87.4006M43.098 92.3679C47.4333 92.1255 46.6592 89.9205 49.601 88.0306M43.098 95.2755C46.0023 95.2132 47.2647 94.5897 48.8268 92.3679M44.3367 96.8505C46.199 97.3721 47.2614 97.3164 49.2913 94.9605M45.1108 99.213C47.1344 99.4627 48.1649 99.0479 49.601 97.323M46.0398 101.103C48.0829 101.84 49.1471 101.713 50.6848 99.213M47.1237 103.15C48.9938 103.98 49.947 103.745 51.3042 100.945M48.8268 105.355C50.557 105.604 51.2727 105.202 51.9235 103.15M50.2203 107.718C51.829 107.654 52.4942 107.247 53.1622 105.746M36.2278 77.6357C35.4127 78.6215 35.2536 77.802 35.2015 75.2732C35.193 74.863 35.4035 75.074 35.6427 75.3139C35.8627 75.5345 36.107 75.7796 36.2278 75.5882C36.2278 75.3407 36.0958 75.1709 35.9292 74.9567C35.5658 74.4895 35.0378 73.8106 35.3563 71.6507C35.5801 71.8449 35.7765 72.0122 35.9598 72.1538C36.3446 72.4508 36.5602 72.0439 36.2734 71.6514C35.5745 70.695 35.6458 69.7309 36.7498 68.1858C37.2467 68.8127 37.6246 69.2443 38.0113 69.5727C38.3487 69.8592 38.6517 69.5405 38.375 69.1951C37.6174 68.2494 36.8873 67.3381 38.7627 65.8233C39.2058 66.1453 39.4419 66.7042 39.6826 67.2741C39.9007 67.7906 40.1226 68.3161 40.506 68.6821C40.8053 68.968 41.1297 68.5957 40.971 68.2134C39.1412 63.8083 41.9837 63.0917 43.8722 69.4457C42.6335 62.5158 46.0398 64.0908 46.9688 70.7057C46.8399 65.7221 48.8582 66.6356 49.8947 69.718C50.0634 70.2196 51.1946 70.286 51.7223 70.3259C52.7025 70.4001 53.8319 72.3344 54.5086 75.9877M56.0541 78.8957C57.0203 76.5027 57.5639 76.139 58.5249 80.1556C58.5249 75.4307 61.7409 79.9981 61.6771 84.4081C62.4522 79.8406 65.0844 83.1481 65.5489 89.763C66.0134 84.2506 68.3359 86.9849 68.8004 94.173C68.8004 87.5966 72.259 91.4955 72.259 99.213C72.5164 92.5939 77.1614 98.898 75.6121 103.465C76.7641 101.186 77.0416 101.3 76.6969 104.725C76.6627 105.721 74.3744 103.78 70.6538 98.583M37.2163 78.1082C36.0251 86.0603 41.0812 100.688 54.526 113.545C58.9038 116.166 57.4952 113.175 55.3487 108.619C54.1408 106.054 52.6991 102.994 51.9235 100.158C50.2019 92.7254 50.2186 88.9235 53.4415 83.9356M37.2163 78.1082C42.4787 74.3282 51.7687 72.1268 53.4415 83.9356M116.464 90.5505C116.794 89.7275 117.151 88.9855 117.479 88.3025C118.406 86.3715 119.107 84.9124 118.347 83.4277M114.786 81.8528C115.78 83.341 115.845 84.5296 114.786 87.4981M210.406 96.8157C210.065 97.1851 210.023 97.4827 209.645 97.8485C214.29 109.976 220.382 110.08 224.408 111.025L225.921 108.348M210.406 96.8157C211.495 103.588 215.892 110.553 225.921 108.348M210.406 96.8157C212.096 94.9876 212.819 93.3598 213.706 91.3941M225.921 108.348L227.701 105.198M225.921 108.348C226.052 107.073 225.07 107.112 223.033 107.194L223.033 107.194C222.444 107.218 221.766 107.245 221.002 107.245M221.002 107.245C218.346 106.714 216.605 104.838 213.415 100.945M221.002 107.245C222.816 106.91 224.009 106.426 225.042 106.007M227.701 105.198C226.837 105.308 226.122 105.572 225.337 105.887M212.95 95.433C217.687 96.271 215.737 101.418 225.337 105.887M225.337 105.887L225.27 105.914M225.337 105.887C225.315 105.896 225.292 105.905 225.27 105.914M213.706 91.3941C215.091 91.5781 217.052 91.9293 218.215 93.543M213.706 91.3941C214.71 89.1669 215.546 86.9262 215.736 84.4081M227.04 101.575C223.626 99.6064 221.796 98.1164 218.834 94.0155M215.736 84.4081C215.913 82.0578 215.736 77.9507 216.357 76.8482C210.997 79.6831 206.772 85.456 204.987 79.6831C204.765 78.9645 204.561 78.2805 204.302 77.6357L203.818 76.4199M215.736 84.4081C218.001 84.298 220.174 84.287 221.931 87.5581M223.944 89.9205C226.576 91.4955 227.992 94.2879 230.756 95.9055M228.124 83.7781C230.137 86.1406 233.173 86.6446 235.866 89.6055M227.35 83.1481C225.717 80.5732 223.863 79.4823 219.453 77.9507M230.756 79.2107C233.325 80.9005 234.749 81.8813 236.95 84.4081M229.518 77.9507C228.07 74.8845 226.429 73.6418 221.466 72.5957M235.866 75.9032C237.531 76.8976 238.41 77.53 239.582 79.2107M230.756 71.4932C230.088 69.9564 229.396 69.3512 227.969 68.4306M235.092 67.5558C237.308 69.6694 238.804 70.8008 242.524 72.5957M233.698 66.7683C232.257 64.2234 230.975 63.1165 227.35 62.0433M225.027 61.0983C222.302 60.5389 220.826 59.8592 218.215 58.1058M214.073 62.0433C212.507 59.8417 212.773 58.5977 214.963 56.3734C215.596 57.3568 215.988 57.8485 217.286 57.7909C215.321 55.7053 215.056 54.5337 216.976 52.4359C217.956 53.1208 218.49 53.3379 219.453 53.5384C217.478 51.2637 217.741 50.3284 218.834 48.8134C220.948 50.4255 222.2 50.7875 224.563 50.3884C222.016 50.0548 220.631 49.5215 218.341 47.081M214.073 62.0433C214.327 62.1216 214.665 62.3913 215 62.6583C215.328 62.92 215.653 63.1791 215.892 63.2529C212.252 62.6048 210.959 62.9037 209.854 65.8582H214.654C213.856 66.1466 213.114 66.4 212.429 66.6338C209.213 67.7324 207.262 68.3986 206.772 70.2237L210.997 70.74M218.341 47.081C218.586 46.2048 218.728 45.4216 218.781 44.7185M218.781 44.7185C220.982 45.9036 222.333 46.1807 225.027 45.6635M218.781 44.7185C218.823 44.1421 218.805 43.6195 218.732 43.1435M225.027 45.6635C230.756 48.4984 231.96 46.4103 236.485 51.0184M225.027 45.6635C224.441 45.493 223.854 45.3926 223.272 45.293C221.702 45.0243 220.162 44.7609 218.732 43.1435M218.732 43.1435C218.641 42.5497 218.465 42.0285 218.215 41.566M226.731 57.4759C230.433 57.8327 232.341 58.2931 234.782 60.6258M236.485 62.0433C238.343 65.5083 242.524 66.4533 245.001 69.9182M242.524 61.0983C243.916 62.672 244.811 63.5168 246.859 64.8783M227.04 51.0184C230.756 54.3259 233.557 53.4167 236.485 56.3734M240.046 59.3658C239.019 58.4897 238.483 58.0985 237.569 57.4759M231.685 72.1232C232.502 73.0565 232.952 73.5546 233.698 74.3282M237.569 52.4359C240.726 53.9615 242.468 55.1793 245.465 58.5783M238.188 48.3409C241.63 50.0459 243.537 51.4151 246.859 55.5859M216.976 40.0958C217.486 40.5138 217.906 40.9952 218.215 41.566M216.976 40.0958C218.083 40.7116 219.311 40.7217 220.718 40.7334C221.656 40.7411 222.674 40.7495 223.789 40.9385L218.215 41.566M227.04 42.041C231.685 45.191 233.991 43.1662 237.104 46.6085M211.246 45.3485C212.011 44.1387 212.587 43.6292 214.654 43.931C215.016 44.2998 214.53 44.4959 213.91 44.7457C213.206 45.0293 212.331 45.3823 212.331 46.136C214.789 45.0584 215.428 45.0335 214.073 47.8685C213.688 47.6551 213.271 47.8009 212.331 48.3409C214.963 47.8685 212.95 51.0184 209.854 51.9634C213.146 52.1347 212.021 53.8534 207.686 54.9559C212.021 53.8534 210.997 58.1058 205.983 57.7909M211.246 45.3485C210.816 47.9728 208.016 52.1342 204.145 57.886M205.983 57.7909C208.666 58.0175 209.387 58.4046 207.686 60.0902M205.983 57.7909C207.519 58.5307 207.107 60.3248 203.807 60.9293C205.584 61.4457 205.076 62.9948 201.523 63.7693C204.055 64.5355 203.092 65.0025 200 65.8582C202.194 67.3484 201.194 67.6041 198.477 67.8199M207.686 60.0902L200.417 70.2237M201.648 58.2883C206.602 51.1759 206.95 49.4018 206.772 45.3485M201.648 58.2883L201.907 58.3647M201.648 58.2883C201.734 58.3138 201.821 58.3393 201.907 58.3647M201.648 58.2883L196.11 65.5765M206.772 45.3485C204.517 47.3571 201.137 51.1774 198.013 54.7078M66.3846 74.763L66.5111 74.7019M66.3846 74.763C66.4261 74.7429 66.4683 74.7225 66.5111 74.7019M225.042 106.007L225.152 105.962M225.042 106.007C225.079 105.992 225.116 105.977 225.152 105.962M225.152 105.962C225.192 105.946 225.231 105.93 225.27 105.914M204.145 57.886L204.126 57.9147M204.145 57.886C204.139 57.8956 204.132 57.9051 204.126 57.9147M198.013 54.7078L198.011 54.7105M198.013 54.7078C198.012 54.7087 198.011 54.7096 198.011 54.7105M104.784 68.4925C105.029 68.3692 105.275 68.2471 105.523 68.1263M202.792 73.8381C202.093 72.7048 201.44 71.682 200.783 70.74M202.792 73.8381L203.818 76.4199M191.546 62.4996C193.376 63.5451 194.851 64.5431 196.11 65.5765M196.11 65.5765C196.224 65.6701 196.336 65.7639 196.447 65.8582M196.447 65.8582C196.737 66.1057 197.016 66.3557 197.286 66.6092M197.286 66.6092C197.704 67.0028 198.099 67.405 198.477 67.8199M200.417 70.2237C200.539 70.3931 200.661 70.5652 200.783 70.74M200.417 70.2237C199.795 69.364 199.163 68.5711 198.477 67.8199M210.997 70.74L210.984 70.7448M210.997 70.74C210.993 70.7416 210.988 70.7432 210.984 70.7448M203.818 76.4199C204.292 73.1458 206.698 72.2827 210.984 70.7448" stroke="#313151"/>
<path d="M83.8924 102.496C85.9865 102.656 87.5084 102.974 89.5991 103.842C90.3076 104.136 90.3502 105.098 89.5849 105.15C88.8356 105.202 87.8769 104.993 86.4237 104.429C85.3746 104.023 84.2216 103.885 83.1439 104.208C82.5526 104.385 82.0021 104.582 81.3981 104.855C80.6983 105.171 79.8462 104.684 79.6612 103.939C79.0943 101.655 77.415 99.8858 75.3766 98.2439C70.0144 91.7961 69.056 89.6739 65.9318 84.8566C68.3254 88.3848 69.778 90.4522 72.5368 93.4321C72.9771 93.9077 73.5197 94.2737 74.0906 94.5807C75.6675 95.4287 76.6871 96.4765 78.1636 98.8739C80.5867 101.688 81.8698 102.506 83.8924 102.496Z" fill="black" fill-opacity="0.4"/>
<path d="M56.7966 71.9417L55.5579 72.7292C48.1259 63.6968 43.043 61.4881 37.4424 62.4918C37.7851 62.2704 38.1459 62.0754 38.5262 61.9125C40.8968 59.3568 41.9147 58.3847 46.1131 57.1369C44.3393 58.7354 43.3594 59.6385 41.9326 61.3932C42.5645 61.4491 43.2345 61.5826 43.9454 61.8057C43.6011 60.6186 45.6602 59.9813 46.8324 59.5891C49.4084 58.7272 53.3865 56.2654 55.1345 53.9961C55.7306 53.2223 55.8808 52.2263 55.9706 51.2536C56.4867 45.6679 58.2296 44.9638 62.8351 45.4821C61.2042 47.0618 60.6308 47.9597 60.0481 49.577C55.4873 54.5108 52.3495 57.7982 49.9839 59.7628C49.832 63.2189 53.2354 60.917 55.8676 58.8695C54.0653 59.4063 53.0128 59.7887 51.0677 60.602C53.4635 58.4914 57.5707 58.3971 59.2739 55.5621C59.8932 47.3722 64.6931 46.2697 66.8608 48.9471C61.4416 52.4121 62.8351 54.7746 61.4416 55.5621C58.6546 58.5546 55.5952 59.8692 53.2354 62.4918L58.9642 62.807C58.2806 63.6151 57.6358 64.3029 57.0352 64.8783L56.1772 65.7995C58.1901 65.012 61.1849 65.1568 64.6931 65.4845L60.9771 68.9495C62.427 69.0847 63.2469 69.3394 64.6931 70.3669C68.2859 70.8765 70.1717 70.5152 73.2089 68.477C74.4085 67.9119 73.6734 64.697 74.4476 61.232C75.5659 62.2673 74.4476 64.2245 74.9121 67.0595C75.4847 63.6628 78.1636 62.3345 82.1893 62.6495C79.7119 65.012 78.1636 67.6231 73.6734 69.5794C69.6295 71.3414 67.599 72.49 65.0028 75.2494C65.8291 76.386 68.3437 75.9918 72.2799 75.5644C74.3312 74.4412 75.5122 74.1818 77.6991 74.3044C83.1183 69.7369 83.5828 69.8944 87.6084 70.3669C79.8668 74.3044 74.2928 75.8794 68.2543 80.9193C68.6485 82.7048 70.2054 82.8574 73.6734 81.0768C77.2028 81.1063 79.2708 80.8178 82.9634 80.2893C85.7859 77.3991 87.6079 76.1893 91.9438 75.8794L89.7761 78.0844L82.9634 80.2893L75.3766 84.2268C72.2799 85.9593 70.3382 87.8967 68.8736 86.4318L66.8608 83.9118C66.9552 82.7397 67.1513 82.0839 68.2543 80.9193C63.2996 80.6043 61.8482 78.6009 65.0028 75.2494L62.3706 75.5644C62.0498 73.141 61.4941 72.3529 59.8932 71.7844C59.8943 70.6944 60.0437 70.0744 60.8856 69.0582C56.7405 73.9205 52.9495 69.2392 56.1772 65.7995L57.0352 64.8783C52.6028 69.1249 50.5847 67.252 53.2354 62.4918C48.2807 66.1145 47.8162 63.122 49.9839 59.7628C47.6044 61.7389 46.0062 62.3765 44.5271 62.0051C47.738 63.197 51.7479 66.171 56.7966 71.9417Z" fill="black" fill-opacity="0.4"/>
<path d="M52.9257 50.8371C55.8676 49.577 55.8676 45.7971 58.0352 44.3796C55.2065 44.9518 53.8659 45.8467 52.9257 50.8371Z" fill="black" fill-opacity="0.4"/>
<path d="M87.7633 44.0646C76.3542 33.7755 71.8521 33.2971 65.0028 35.7172C67.2688 35.9806 67.6507 36.499 66.3963 38.2372C71.0297 35.299 74.2928 35.7172 70.4219 39.8122C73.7303 38.3861 75.8411 39.3397 75.2218 43.2772C79.7119 39.1822 84.3569 42.3322 79.7119 45.0097L80.4861 45.4821C83.4279 42.4897 85.5956 44.8522 83.8924 48.6321L86.0601 50.3646C87.3824 47.8958 88.6473 48.0241 92.2535 52.2546C92.9247 53.0421 92.2561 54.7043 89.0019 58.712C98.1371 48.1597 101.951 62.4853 86.0601 72.8869C89.6012 71.179 91.6166 69.9356 94.5314 67.0895C94.9737 66.6577 95.3178 66.1319 95.5857 65.5749C98.9898 58.4992 101.985 61.9818 101.389 69.2644L109.904 65.4845C101.049 57.0347 96.2211 52.3531 87.7633 44.0646Z" fill="black" fill-opacity="0.4"/>
<path d="M112.227 81.2343L115.788 82.8093L117.801 83.9118C117.582 86.5581 116.95 87.7091 115.788 89.7392C116.168 88.5952 115.71 87.9754 113.819 86.9043C111.423 90.9158 108.798 92.061 105.569 92.4167C112.227 88.0068 110.524 84.0693 106.653 86.9043C107.048 83.9545 107.558 82.258 110.214 79.5018C111.576 79.4773 112.231 79.7764 113.311 80.6043L112.227 81.2343Z" fill="black" fill-opacity="0.4"/>
<path d="M101.543 89.7392C108.666 86.2743 105.259 83.1243 108.666 79.1868C105.845 78.0192 104.497 77.7881 102.318 77.7694C100.15 80.1318 100.473 81.7837 99.0661 83.5968C101.758 82.3206 103.275 81.4442 106.034 79.5018C102.627 84.6993 106.963 83.9118 101.543 89.7392Z" fill="black" fill-opacity="0.4"/>
<path d="M88.8471 98.2439C87.1439 98.8739 91.1696 102.496 95.9695 98.8739C94.9455 100.625 93.9626 101.35 91.4793 102.182C88.2592 103.326 86.6794 100.764 82.9634 101.237C81.2603 101.453 79.9267 99.833 78.9378 97.9292C85.4408 95.7242 92.0328 96.0932 99.8403 91.7867C99.2979 93.6531 95.4534 95.3181 88.8471 98.2439Z" fill="black" fill-opacity="0.4"/>
<path d="M74.2928 93.3617C74.9719 94.3377 76.9249 94.9367 78.1636 96.1967C79.8668 91.7867 89.0019 96.1967 99.0661 90.6842C90.978 93.3917 83.8924 94.149 77.2346 92.4167C76.0704 93.1131 75.4292 93.235 74.2928 93.3617Z" fill="black" fill-opacity="0.4"/>
<path d="M78.1636 90.0542C73.2089 92.7317 72.8492 91.5788 70.4219 88.4793C71.4472 88.0098 72.0656 87.6509 73.2089 86.9043C75.0669 91.4114 80.9506 86.2743 86.5246 86.9043C82.6796 87.6517 81.0138 88.4782 78.1636 90.0542Z" fill="black" fill-opacity="0.4"/>
<path d="M73.6734 57.4521C71.5058 58.3971 73.6734 61.3932 66.8608 64.5395C67.4801 60.4445 65.6221 57.7671 68.2543 55.5621C67.4915 57.2394 67.25 58.2339 67.7898 60.287C71.5749 56.329 72.5882 56.2383 73.6734 57.4521Z" fill="black" fill-opacity="0.4"/>
<path d="M69.3381 52.727C66.3963 53.8296 66.0866 58.8695 62.8351 60.287C62.7779 52.2214 65.4181 52.9609 69.3381 52.727Z" fill="black" fill-opacity="0.4"/>
<path d="M248.48 57.6096C249.441 70.2723 241.358 84.3843 227.578 107.694C227.307 106.539 227.082 105.941 226.494 105.017C225.344 105.895 224.785 106.825 223.862 108.797H220.146H218.598C215.488 108.407 212.249 105.017 209.462 98.0867L211.63 95.0942C213.047 95.4929 213.884 95.6718 214.262 97.1417C214.566 102.83 216.43 105.647 221.385 104.229L219.372 103.127C223.243 105.017 224.738 102.049 220.92 98.0867C225.565 100.292 228.971 98.0867 224.326 91.4717C231.139 96.6692 235.32 90.8417 230.52 86.5893C234.855 86.9043 238.327 85.967 232.842 81.3918C236.403 82.0218 241.669 81.8167 235.784 76.6669C238.998 77.06 240.518 76.7982 241.049 75.4663C241.686 73.868 240.243 72.3108 238.75 71.4558C237.937 70.9903 237.235 70.5223 236.403 69.8944C241.977 70.9969 244.37 69.903 241.513 67.3745L237.797 64.382C243.835 67.3745 246.622 66.1145 244.455 63.9095L241.977 61.862C246.19 63.5598 247.125 63.1377 243.835 57.6096C247.242 58.8695 246.492 56.5542 243.835 53.1996C246.147 55.3504 247.114 56.075 246.622 54.1446L248.48 57.6096Z" fill="black" fill-opacity="0.4"/>
<path d="M215.346 82.1793V84.2268C216.932 84.1098 217.797 84.2201 219.217 85.1718C219.402 82.4872 218.382 81.9897 215.346 82.1793Z" fill="black" fill-opacity="0.4"/>
<path d="M208.379 76.1944C208.347 78.1043 208.949 79.5638 211.168 80.2926C208.688 81.3703 207.361 83.9071 205.33 80.2926L204.315 77.4527L202.285 72.8055L209.927 61.0745C216.74 49.1046 219.848 42.8306 214.417 39.3397C218.558 37.8505 221.151 38.118 226.03 39.6547C224.002 39.8669 224.121 40.3718 230.365 43.1197C233.952 43.9145 234.862 44.7319 235.784 46.4272C233.841 45.1098 232.756 44.4999 230.829 44.5372C227.44 42.7011 225.49 41.7854 223.402 41.3287C222.383 41.1057 220.918 40.2825 220.469 41.2243C220.269 41.6443 220.242 42.4215 220.301 43.5922C227.463 44.4557 228.971 46.5847 232.687 48.6321C230.12 48.6321 227.947 46.4941 224.353 45.5413C223.728 45.3756 223.066 45.3812 222.44 45.5465C218.83 46.5006 219.356 47.9035 221.075 48.6321C226.011 48.8813 227.502 50.3343 229.9 53.1996C225.255 50.3646 220.561 49.5037 219.217 51.1521C225.045 52.7949 226.649 55.7196 231.604 58.8695C226.649 58.2396 224.095 55.1977 217.823 55.7196C217.315 58.1865 222.468 57.6096 226.03 61.862C215.811 57.2946 214.477 61.3137 216.275 63.122L224.017 65.3184C217.557 64.2031 214.433 64.2531 209.927 65.8348C214.199 66.9803 216.852 67.2739 221.849 67.3745C218.669 68.7966 201.269 69.8944 216.275 70.9983C208.379 73.6744 205.434 75.5242 206.779 76.6669L208.379 76.1944Z" fill="black" fill-opacity="0.4"/>
<path d="M220.92 78.8719C217.092 77.967 215.52 76.7522 212.559 74.7769L214.417 73.9894C217.767 76.8277 219.106 76.6153 221.385 75.8794C222.846 76.3095 221.849 79.0915 220.92 78.8719Z" fill="black" fill-opacity="0.4"/>
<path d="M224.017 73.6744L219.217 71.9419L223.397 70.2094C225.751 71.0914 224.791 72.8869 224.017 73.6744Z" fill="black" fill-opacity="0.4"/>
<defs>
<radialGradient id="paint0_radial_199_103" cx="0" cy="0" r="1" gradientTransform="matrix(-20.1283 76.2293 -80.5998 -22.0213 159.997 144.415)" gradientUnits="userSpaceOnUse">
<stop offset="0.550595" stop-color="#FED046"/>
<stop offset="1" stop-color="#FC9F50"/>
</radialGradient>
</defs>
</svg>
