<svg width="300" height="300" viewBox="0 0 300 300" fill="none" xmlns="http://www.w3.org/2000/svg">
<path d="M98.26 125.459C101.702 124.588 103.722 123.71 107.109 121.734C128.582 109.207 208.048 106.197 230.267 121.734L232.358 118.616V110.759C237.947 103.672 241.415 96.9289 235.493 93.065C235.173 92.8558 234.824 92.655 234.448 92.4631C233.321 91.8892 231.938 91.3944 230.267 90.9894C227.41 90.595 224.622 90.218 221.902 89.8592C217.055 88.6251 211.245 87.6208 204.909 86.855C200.175 86.2828 195.148 85.8437 190.01 85.5413C176.411 84.7409 162.038 84.8981 150.277 86.0786C145.801 86.6052 141.641 87.3754 137.73 88.4108C123.711 92.1214 112.884 99.2382 102.161 110.759C99.907 113.18 97.6578 115.796 95.3846 118.616L98.26 125.459Z" fill="#595274"/>
<path d="M162.826 51.9578C141.762 50.5719 109.762 53.7319 102.161 110.759C112.884 99.2382 123.711 92.1214 137.73 88.4108C124.66 82.1187 130.043 65.9991 140.082 65.1373C150.121 64.2756 159.687 77.3031 150.277 86.0786C162.038 84.8981 176.411 84.7409 190.01 85.5413C183.213 76.5427 190.01 64.1235 199.681 65.1373C205.694 65.7676 216.411 75.022 204.909 86.855C211.245 87.6208 217.055 88.6251 221.902 89.8592C221.939 89.2128 221.951 88.5757 221.938 87.9481C221.931 87.6074 221.917 87.2695 221.896 86.9343C221.848 86.1625 221.762 85.4053 221.639 84.6626C221.123 81.5372 219.963 78.668 218.241 76.0456C214.865 68.658 209.311 62.9379 201.25 58.9293C191.948 54.3042 179.309 51.9578 162.826 51.9578Z" fill="#595274"/>
<path d="M95.3846 118.616C97.6578 115.796 99.907 113.18 102.161 110.759C109.762 53.7319 141.762 50.5719 162.826 51.9578C179.309 51.9578 191.948 54.3042 201.25 58.9293C209.311 62.9379 214.865 68.658 218.241 76.0456C217.377 54.2387 216.559 39.2679 214.46 20.2103C213.888 15.0141 206.805 14.2256 205.022 19.1397L192.43 53.8383C161.866 41.5403 133.526 41.2116 116.964 47.1422C116.336 43.0977 115.256 39.0551 111.59 37.0041C105.758 17.0252 102.031 3.46215 100.088 3.54831C98.7811 3.60629 98.206 4.30867 93.8145 12.4192C93.3625 32.7754 88.8479 42.58 88.8479 61.3355C82.5263 64.9322 79.4048 68.261 74.2107 75.3832C66.6063 74.859 54.1885 86.5948 55.129 101.635C55.6835 100.931 56.2019 100.305 56.6969 99.7496C57.5206 88.9619 70.475 77.7847 72.1195 79.3307C73.1651 80.3136 68.4599 85.1601 67.4143 97.0385L68.4599 97.5793C68.9561 97.167 69.4313 96.7381 69.8923 96.312C70.8125 88.9619 72.2667 83.2958 74.2107 83.1325C76.0885 83.4577 77.0369 86.4197 78.6545 93.524C75.1885 90.9921 72.8315 93.5951 69.8923 96.312C69.4313 96.7381 68.9561 97.167 68.4599 97.5793L67.4143 97.0385L64.5394 95.5516C59.6945 109.113 58.784 118.018 59.8163 131.795C59.9604 133.719 60.1424 135.738 60.357 137.878L95.3846 118.616Z" fill="#595274"/>
<path d="M62.971 144.468L98.26 125.459L95.3846 118.616L60.357 137.878C60.1424 135.738 59.9604 133.719 59.8163 131.795C55.9055 134.87 55.8176 136.347 56.4343 138.892C51.5532 143.37 58.2641 155.366 54.6057 159.422C51.73 159.422 50.531 163.252 51.7303 164.491C57.7832 169.811 65.3231 162.97 61.6635 146.242H62.971V144.468Z" fill="#595274"/>
<path d="M230.267 73.2478C225.56 75.022 227.128 83.6394 221.639 84.6626C221.762 85.4053 221.848 86.1625 221.896 86.9343H223.207C223.303 85.4648 224.841 85.8639 225.239 88.455C225.263 88.6155 225.283 88.7845 225.299 88.9619C225.405 88.7938 225.5 88.6253 225.586 88.455C226.3 87.0454 226.383 85.5164 226.606 83.1325C227.253 80.3581 228.435 80.8514 228.435 83.1325C228.63 85.8368 228.803 87.6222 228.969 88.5954C229.18 89.8305 229.381 89.7576 229.604 88.5954C229.8 87.5709 230.014 85.7001 230.267 83.1325C230.267 79.3307 230.553 77.4965 231.572 77.5565C234.717 81.6434 234.901 85.174 234.51 91.4964C234.491 91.8116 234.47 92.1337 234.448 92.4631C234.824 92.655 235.173 92.8558 235.493 93.065C238.63 84.6626 235.276 73.0385 230.267 73.2478Z" fill="#595274"/>
<path d="M56.6969 99.7496C59.332 96.7923 61.3045 95.8157 64.5394 95.5516L67.4143 97.0385C68.4599 85.1601 73.1651 80.3136 72.1195 79.3307C70.475 77.7847 57.5206 88.9619 56.6969 99.7496Z" fill="#FFCD37"/>
<path d="M69.8923 96.312C72.8315 93.5951 75.1885 90.9921 78.6545 93.524C77.0369 86.4197 76.0885 83.4577 74.2107 83.1325C72.2667 83.2958 70.8125 88.9619 69.8923 96.312Z" fill="#FFCD37"/>
<path d="M231.572 77.5565C230.553 77.4965 230.267 79.3307 230.267 83.1325C230.014 85.7001 229.8 87.5709 229.604 88.5954C231.732 88.9226 232.842 89.5225 234.51 91.4964C234.901 85.174 234.717 81.6434 231.572 77.5565Z" fill="#F0DB5E"/>
<path d="M228.435 83.1325C228.435 80.8514 227.253 80.3581 226.606 83.1325C226.383 85.5164 226.3 87.0454 225.586 88.455L228.969 88.5954C228.803 87.6222 228.63 85.8368 228.435 83.1325Z" fill="#F0DB5E"/>
<path d="M225.239 88.455C224.841 85.8639 223.303 85.4648 223.207 86.9343V88.143L225.239 88.455Z" fill="#F0DB5E"/>
<path d="M199.681 65.1373C190.01 64.1235 183.213 76.5427 190.01 85.5413C195.148 85.8437 200.175 86.2828 204.909 86.855C216.411 75.022 205.694 65.7676 199.681 65.1373Z" fill="#FCC839"/>
<path d="M150.277 86.0786C159.687 77.3031 150.121 64.2756 140.082 65.1373C130.043 65.9991 124.66 82.1187 137.73 88.4108C141.641 87.3754 145.801 86.6052 150.277 86.0786Z" fill="#FCC839"/>
<path d="M98.26 125.459L62.971 144.468V146.242H61.6635C65.3231 162.97 57.7832 169.811 51.7303 164.491C50.531 163.252 51.73 159.422 54.6057 159.422C58.2641 155.366 51.5532 143.37 56.4343 138.892C55.8176 136.347 55.9055 134.87 59.8163 131.795M98.26 125.459C101.702 124.588 103.722 123.71 107.109 121.734M98.26 125.459L95.3846 118.616M107.67 121.404C107.479 121.517 107.292 121.627 107.109 121.734M107.109 121.734C128.582 109.207 208.048 106.197 230.267 121.734L232.358 118.616V110.759C237.947 103.672 241.415 96.9289 235.493 93.065M95.3846 118.616C97.6578 115.796 99.907 113.18 102.161 110.759M95.3846 118.616L60.357 137.878C60.1424 135.738 59.9604 133.719 59.8163 131.795M221.902 89.8592C224.622 90.218 227.41 90.595 230.267 90.9894C231.938 91.3944 233.321 91.8892 234.448 92.4631M221.902 89.8592C217.055 88.6251 211.245 87.6208 204.909 86.855M221.902 89.8592C221.939 89.2128 221.951 88.5757 221.938 87.9481M102.161 110.759C109.762 53.7319 141.762 50.5719 162.826 51.9578C179.309 51.9578 191.948 54.3042 201.25 58.9293M102.161 110.759C112.884 99.2382 123.711 92.1214 137.73 88.4108M64.5394 95.5516C61.3045 95.8157 59.332 96.7923 56.6969 99.7496M64.5394 95.5516L67.4143 97.0385M64.5394 95.5516C59.6945 109.113 58.784 118.018 59.8163 131.795M78.6545 93.524L80.4843 92.7637C75.7791 88.2015 81.5299 87.6946 85.9737 94.7913M78.6545 93.524C75.1885 90.9921 72.8315 93.5951 69.8923 96.312M78.6545 93.524C77.0369 86.4197 76.0885 83.4577 74.2107 83.1325C72.2667 83.2958 70.8125 88.9619 69.8923 96.312M89.3719 88.2015C73.6879 87.6946 78.6545 77.1615 76.5638 76.0358C75.8572 75.6554 75.0643 75.4421 74.2107 75.3832M56.6969 99.7496C56.2019 100.305 55.6835 100.931 55.129 101.635C54.1885 86.5948 66.6063 74.859 74.2107 75.3832M56.6969 99.7496C57.5206 88.9619 70.475 77.7847 72.1195 79.3307C73.1651 80.3136 68.4599 85.1601 67.4143 97.0385M67.4143 97.0385L68.4599 97.5793C68.9561 97.167 69.4313 96.7381 69.8923 96.312M74.2107 75.3832C79.4048 68.261 82.5263 64.9322 88.8479 61.3355M88.8479 61.3355C88.9878 67.4567 88.5049 70.37 85.9737 74.0082C89.5348 77.5391 92.2716 76.328 97.7355 71.7271M88.8479 61.3355C88.8479 42.58 93.3625 32.7754 93.8145 12.4192C98.206 4.30867 98.7811 3.60629 100.088 3.54831C102.031 3.46215 105.758 17.0252 111.59 37.0041C115.256 39.0551 116.336 43.0977 116.964 47.1422M110.021 63.3632C110.634 63.7836 111.59 63.0309 112.779 61.8425M112.779 61.8425C114.462 60.1597 116.611 57.6034 118.909 56.2665C117.705 54.0488 117.499 50.5948 116.964 47.1422M112.779 61.8425C110.021 38.2714 102.161 38.2714 100.088 9.37775M116.964 47.1422C133.526 41.2116 161.866 41.5403 192.43 53.8383M195.238 54.9992C194.3 54.601 193.364 54.2141 192.43 53.8383M192.101 54.7458L192.43 53.8383M218.241 76.0456C217.377 54.2387 216.559 39.2679 214.46 20.2103C213.888 15.0141 206.805 14.2256 205.022 19.1397L192.43 53.8383M218.241 76.0456C219.963 78.668 221.123 81.5372 221.639 84.6626M218.241 76.0456C214.865 68.658 209.311 62.9379 201.25 58.9293M221.639 84.6626C227.128 83.6394 225.56 75.022 230.267 73.2478C235.276 73.0385 238.63 84.6626 235.493 93.065M221.639 84.6626C221.762 85.4053 221.848 86.1625 221.896 86.9343M235.493 93.065C235.173 92.8558 234.824 92.655 234.448 92.4631M234.448 92.4631C234.47 92.1337 234.491 91.8116 234.51 91.4964M223.207 86.9343C222.77 86.9343 221.896 86.9343 221.896 86.9343M223.207 86.9343H221.896M223.207 86.9343C223.303 85.4648 224.841 85.8639 225.239 88.455M223.207 86.9343V88.143M221.896 86.9343C221.917 87.2695 221.931 87.6074 221.938 87.9481M201.25 58.9293C199.441 52.6845 201.242 43.2136 208.308 18.2486M150.277 86.0786C159.687 77.3031 150.121 64.2756 140.082 65.1373C130.043 65.9991 124.66 82.1187 137.73 88.4108M150.277 86.0786C145.801 86.6052 141.641 87.3754 137.73 88.4108M150.277 86.0786C162.038 84.8981 176.411 84.7409 190.01 85.5413M190.01 85.5413C183.213 76.5427 190.01 64.1235 199.681 65.1373C205.694 65.7676 216.411 75.022 204.909 86.855M190.01 85.5413C195.148 85.8437 200.175 86.2828 204.909 86.855M229.604 88.5954C229.8 87.5709 230.014 85.7001 230.267 83.1325C230.267 79.3307 230.553 77.4965 231.572 77.5565C234.717 81.6434 234.901 85.174 234.51 91.4964M229.604 88.5954C231.732 88.9226 232.842 89.5225 234.51 91.4964M229.604 88.5954C229.381 89.7576 229.18 89.8305 228.969 88.5954M228.969 88.5954C228.803 87.6222 228.63 85.8368 228.435 83.1325C228.435 80.8514 227.253 80.3581 226.606 83.1325C226.383 85.5164 226.3 87.0454 225.586 88.455M228.969 88.5954L225.586 88.455M225.586 88.455C225.5 88.6253 225.405 88.7938 225.299 88.9619C225.283 88.7845 225.263 88.6155 225.239 88.455M221.938 87.9481L223.207 88.143M225.239 88.455L223.207 88.143" stroke="#454060"/>
<path d="M58.7573 93.0172C62.6783 83.1324 77.3167 72.9943 70.5203 84.3998C67.4384 83.8815 64.9611 85.4687 58.7573 93.0172Z" fill="black" fill-opacity="0.2"/>
<path d="M70.5203 92.0033C73.4758 79.5446 74.9745 81.6683 77.5781 89.4688C74.6705 87.0021 73.156 88.259 70.5203 92.0033Z" fill="black" fill-opacity="0.2"/>
<path d="M79.1465 77.3031C86.1432 70.0356 86.2899 67.522 85.1587 63.6166L89.0797 61.3355C88.998 44.7966 93.2621 31.6816 94.0463 12.9261C94.5409 17.6485 94.7555 20.4713 96.9217 20.5297C90.8462 53.3666 92.763 54.1941 100.32 42.0731C102.538 39.4126 103.457 42.0731 97.4445 51.4509C97.5079 53.0722 99.5819 50.2775 104.764 42.58C100.32 65.3908 93.8836 76.6902 85.9429 73.7547C89.4557 76.0882 91.5519 75.6151 95.3533 73.7547C93.7621 76.7793 92.3925 77.8402 88.5569 77.81C79.9307 81.6118 77.4808 80.6468 79.1465 77.3031Z" fill="black" fill-opacity="0.2"/>
<path d="M191.81 54.7457C204.88 20.783 208.182 5.80246 211.154 8.11047C205.651 24.3828 202.527 35.4833 203.312 49.6767C207.721 55.2863 208.495 58.3764 209.324 63.87C203.038 58.8108 199.004 57.3499 191.81 54.7457Z" fill="black" fill-opacity="0.2"/>
<path d="M234.418 88.2015C235.202 82.3721 231.281 73.5012 230.236 79.5841C231.766 80.1127 232.659 81.3776 234.418 88.2015Z" fill="black" fill-opacity="0.2"/>
<path d="M234.941 106.957L227.36 116.588L232.327 119.123L230.236 122.164C207.233 104.422 119.664 110.759 105.548 122.924C103.347 123.907 101.926 124.459 98.2287 125.459L62.9696 144.468V146.242H61.3713C67.1507 167.786 51.1494 168.55 52.4837 162.97C58.7573 165.251 61.3907 162.192 59.8029 140.92L62.1555 139.906C97.7059 125.459 99.1955 116.724 81.4991 126.219C88.1487 120.443 91.3626 116.807 94.0463 107.971C99.6773 105.084 102.531 101.444 106.855 89.4688C104.717 97.267 103.463 101.595 102.673 110.505C99.7833 112.887 98.1887 114.946 95.3533 118.869L97.7059 124.699L102.673 122.924C116.106 107.876 121.641 103.316 128.551 100.874C185.798 87.4411 240.692 98.0861 234.941 106.957Z" fill="black" fill-opacity="0.2"/>
<path d="M226.606 85.16C226.867 80.8513 228.436 79.3306 228.436 85.16C227.777 81.8247 227.363 82.637 226.606 85.16Z" fill="black" fill-opacity="0.2"/>
</svg>
