<svg width="300" height="300" viewBox="0 0 300 300" fill="none" xmlns="http://www.w3.org/2000/svg">
<path d="M224.919 161.36C224.127 167.363 223.15 170.7 220.858 176.593C224.857 176.722 227.084 176.74 230.511 174.786C232.537 170.457 233.622 167.954 234.572 162.135C236.268 158.957 236.35 157.133 236.348 153.873C237.858 149.664 238.193 147.233 237.871 142.772C238.58 139.974 238.622 136.483 238.696 130.264L238.696 130.25L237.49 129.089L236.856 131.929L233.556 128.314L233.81 121.085C233.81 66.352 188.379 53.4432 162.49 50.0869C146.667 50.0315 133.324 52.3588 122.135 56.2567C137.023 61.3447 150.082 62.5173 147.008 68.5916C186.403 58.9401 232.809 74.9964 229.741 129.605C229.342 137.516 228.837 141 227.457 145.87C227.553 150.961 226.963 154.383 224.919 161.36Z" fill="url(#paint0_linear_200_111)"/>
<path d="M84.8092 126.249C87.3634 120.569 92.1858 121.085 92.9472 119.536C93.3155 115.702 91.9938 114.984 87.8711 115.405C83.6409 115.663 75.1807 115.87 75.1807 114.631C72.1539 114.302 71.7742 115.279 71.8812 117.729C69.1174 119.948 68.7064 121.254 69.0893 123.639C69.9208 122.923 70.7617 122.331 71.6025 121.86L74.4193 117.729L77.0165 120.487C80.1192 120.677 82.9049 122.641 84.8092 126.249Z" fill="#F4C038"/>
<path d="M235.079 126.765V121.085H233.81L233.556 128.314L236.856 131.929L237.49 129.089L235.079 126.765Z" fill="#EFB26F"/>
<path d="M230.511 174.786C232.331 173.822 233.298 173.137 234.318 169.88C236.342 169.734 237.123 168.796 238.379 166.782C238.615 162.746 239.148 160.432 240.917 156.197C241.073 154.065 241.323 152.576 242.44 148.71C241.656 147.068 241.46 146.125 242.44 144.321L241.932 139.416C243.552 138.351 243.749 137.032 243.455 133.994C242.362 135.995 241.663 136.754 239.902 136.059V131.412L238.696 130.25L238.696 130.264C238.622 136.483 238.58 139.974 237.871 142.772C238.193 147.233 237.858 149.664 236.348 153.873C236.35 157.133 236.268 158.957 234.572 162.135C233.622 167.954 232.537 170.457 230.511 174.786Z" fill="#C7C5D3"/>
<path d="M109.191 61.9178C127.973 66.6101 133.715 70.3988 133.303 72.4428C133.64 72.3116 133.978 72.1829 134.318 72.0566C135.587 67.901 117.059 62.7375 110.714 61.12C110.2 61.3824 109.693 61.6483 109.191 61.9178Z" fill="#FFF1FF"/>
<path d="M147.008 68.5916C150.082 62.5173 137.023 61.3447 122.135 56.2567C121.623 56.4351 121.115 56.6168 120.612 56.8017C142.186 63.512 146.978 64.0549 145.993 68.7805C146.331 68.7151 146.669 68.6521 147.008 68.5916Z" fill="#F6D3F3"/>
<path d="M110.714 61.12C117.059 62.7375 135.587 67.901 134.318 72.0566C138.099 70.6502 142.012 69.5503 145.993 68.7805C146.978 64.0549 142.186 63.512 120.612 56.8017C117.098 58.0933 113.802 59.5415 110.714 61.12Z" fill="#F76A9F"/>
<path fill-rule="evenodd" clip-rule="evenodd" d="M86.8558 85.9733L101.323 86.4897C102.675 86.2765 103.242 85.8728 103.607 84.1661L101.323 75.1299C100.469 74.3143 99.863 74.3606 98.531 75.1299L87.1096 82.8752C86.3549 84.4791 86.4847 85.0823 86.8558 85.9733ZM99.8 75.6463L87.6172 84.1661V84.6824L101.577 85.1988L99.8 75.6463Z" fill="#FFF6F1"/>
<path d="M87.6172 84.1661L99.8 75.6463L101.577 85.1988L87.6172 84.6824V84.1661Z" fill="#FCC32B"/>
<path d="M65.0285 129.863C70.2199 125.317 73.0031 123.796 77.465 125.474L78.4802 123.925C78.4557 125.014 78.7755 125.92 79.1722 126.765C80.3008 127.462 81.382 128.278 82.3677 129.347C83.5484 130.627 84.5921 132.271 85.4161 134.51C86.6269 137.8 87.3634 142.375 87.3634 148.968C87.1641 151.32 86.8715 153.01 86.3482 155.324C86.1988 155.984 86.0306 156.696 85.8404 157.488C79.4612 160.657 77.3777 162.894 74.1655 167.04H65.4403L65.0285 162.135C63.3295 160.689 62.4976 159.815 62.4903 157.488C61.6755 157.149 61.2676 156.845 61.4752 154.132L59.952 151.034C60.5135 159.434 61.8628 163.522 65.4403 167.815C91.1706 188.469 98.7848 124.441 74.6732 122.226C71.9199 122.579 69.2551 123.906 67.0586 125.661C65.6474 126.789 64.4295 128.093 63.5056 129.43C63.9183 129.641 64.417 129.778 65.0285 129.863Z" fill="#73649D"/>
<path d="M65.4403 167.815C65.9357 168.409 66.4739 169.008 67.0586 169.622C77.3254 178.222 86.8391 168.66 90.0465 156.972C90.2378 156.274 90.4067 155.569 90.552 154.86C90.777 153.763 90.9453 152.655 91.0526 151.55C91.1086 150.973 91.148 150.397 91.1701 149.823C91.1979 149.103 91.1985 148.386 91.1706 147.677C91.0918 146.789 91.0027 145.929 90.9036 145.096C90.7975 144.204 90.6801 143.344 90.552 142.514C90.3402 141.141 90.0989 139.852 89.8309 138.641C89.6706 137.917 89.5006 137.22 89.3217 136.551C89.0282 135.454 88.7105 134.431 88.3711 133.478C87.5112 131.062 86.5124 129.098 85.4161 127.525C82.3045 123.06 78.4075 121.747 74.6732 122.226C98.7848 124.441 91.1706 188.469 65.4403 167.815Z" fill="#C5B7DB"/>
<path d="M74.4193 117.729L71.6025 121.86C73.4406 120.83 75.2783 120.38 77.0165 120.487L74.4193 117.729Z" fill="#956C50"/>
<path d="M67.0586 125.661C69.2551 123.906 71.9199 122.579 74.6732 122.226C78.4075 121.747 82.3045 123.06 85.4161 127.525C85.2254 127.079 85.0229 126.654 84.8092 126.249C82.9049 122.641 80.1192 120.677 77.0165 120.487C75.2783 120.38 73.4406 120.83 71.6025 121.86C70.7617 122.331 69.9208 122.923 69.0893 123.639C68.4043 124.229 67.7256 124.902 67.0586 125.661Z" fill="#6B5A84"/>
<path d="M77.465 125.474C73.0031 123.796 70.2199 125.317 65.0285 129.863C70.9926 127.198 73.8551 126.183 76.5723 126.765C76.7924 126.282 77.0835 125.866 77.465 125.474Z" fill="url(#paint1_linear_200_111)"/>
<path d="M82.3677 129.347C83.272 130.367 81.7806 132.37 80.003 132.187C82.2766 132.676 83.4602 133.189 85.4161 134.51C84.5921 132.271 83.5484 130.627 82.3677 129.347Z" fill="#362C51"/>
<path d="M87.3634 148.968L84.8254 151.034L86.3482 155.324C86.8715 153.01 87.1641 151.32 87.3634 148.968Z" fill="#3D344F"/>
<path d="M77.0165 152.841L82.3677 149.823C81.4103 152.378 78.7849 157.23 75.9422 156.197C78.0407 154.219 77.9881 153.596 77.0165 152.841Z" fill="#343355"/>
<path d="M72.8964 143.288L78.2264 138.641C79.1296 140.178 79.2306 141.498 78.8691 142.514C77.9854 144.998 74.3375 145.67 72.8964 143.288Z" fill="#3B2E4C"/>
<path d="M61.7289 141.223C61.1063 146.097 65.7898 148.968 67.0589 144.063C65.2236 144.223 64.0145 143.611 61.7289 141.223Z" fill="#2D294C"/>
<path d="M82.7949 155.77C83.2246 155.265 83.7147 154.74 84.3178 154.132C83.6038 152.786 83.1796 151.677 82.9525 150.517L82.7949 155.77Z" fill="#2D2D4F"/>
<path fill-rule="evenodd" clip-rule="evenodd" d="M60.4597 147.677C59.0638 147.958 59.1909 150.259 59.952 151.034L61.4752 154.132C61.2676 156.845 61.6755 157.149 62.4903 157.488C62.4976 159.815 63.3295 160.689 65.0285 162.135L65.4403 167.04H74.1655C77.3777 162.894 79.4612 160.657 85.8404 157.488C86.0306 156.696 86.1988 155.984 86.3482 155.324L84.8254 151.034L87.3634 148.968C87.3634 142.375 86.6269 137.8 85.4161 134.51C83.4602 133.189 82.2766 132.676 80.003 132.187C81.7806 132.37 83.272 130.367 82.3677 129.347C81.382 128.278 80.3008 127.462 79.1722 126.765C78.7755 125.92 78.4557 125.014 78.4802 123.925L77.465 125.474C77.0835 125.866 76.7924 126.282 76.5723 126.765C73.8551 126.183 70.9926 127.198 65.0285 129.863C64.417 129.778 63.9183 129.641 63.5056 129.43C62.3529 128.842 61.8711 127.68 61.4752 125.474C59.8846 127.323 59.952 132.703 61.4752 134.252L60.4597 138.899V147.677ZM84.3178 154.132C83.7147 154.74 83.2246 155.265 82.7949 155.77L82.9525 150.517C83.1796 151.677 83.6038 152.786 84.3178 154.132ZM82.3677 149.823L77.0165 152.841C77.9881 153.596 78.0407 154.219 75.9422 156.197C78.7849 157.23 81.4103 152.378 82.3677 149.823ZM78.2264 138.641L72.8964 143.288C74.3375 145.67 77.9854 144.998 78.8691 142.514C79.2306 141.498 79.1296 140.178 78.2264 138.641ZM61.7289 141.223C61.1063 146.097 65.7898 148.968 67.0589 144.063C65.2236 144.223 64.0145 143.611 61.7289 141.223ZM66.2975 150.517V146.386L68.0741 146.903V149.823L66.2975 150.517ZM69.0893 146.903V149.823L70.866 150.517V146.128L69.0893 146.903Z" fill="#FFFDF5"/>
<path d="M93.4548 140.707C91.6771 140.467 90.9415 139.922 89.8309 138.641C90.0989 139.852 90.3402 141.141 90.552 142.514C91.4475 141.535 92.1408 141.209 93.4548 140.707Z" fill="#3D304C"/>
<path d="M90.9036 145.096C91.0027 145.929 91.0918 146.789 91.1706 147.677C91.9593 147.075 92.5243 146.766 94.2162 146.386C92.8043 146.172 92.0962 145.898 90.9036 145.096Z" fill="#403255"/>
<path d="M94.47 151.034C93.0478 150.926 92.3004 150.715 91.1701 149.823C91.148 150.397 91.1086 150.973 91.0526 151.55L94.47 151.034Z" fill="#423C62"/>
<path d="M92.1858 134.51L88.3711 133.478C88.7105 134.431 89.0282 135.454 89.3217 136.551C89.7332 135.032 90.3611 134.586 92.1858 134.51Z" fill="#392751"/>
<path d="M92.6934 156.713C91.5635 156.528 91.1284 156.067 90.552 154.86C90.4067 155.569 90.2378 156.274 90.0465 156.972C91.102 157.242 91.6744 157.113 92.6934 156.713Z" fill="#332C4A"/>
<path fill-rule="evenodd" clip-rule="evenodd" d="M96.7541 134.252C98.0231 132.187 95.7913 128.313 93.9542 127.023C92.8974 101.192 110.61 81.2671 133.303 72.4428C133.715 70.3988 127.973 66.6101 109.191 61.9178C81.8341 76.6045 71.3841 101.616 69.8508 117.213C67.4886 120.959 67.0873 122.735 67.0586 125.661C67.7256 124.902 68.4043 124.229 69.0893 123.639C68.7064 121.254 69.1174 119.948 71.8812 117.729C71.7742 115.279 72.1539 114.302 75.1807 114.631C75.1807 115.87 83.6409 115.663 87.8711 115.405C91.9938 114.984 93.3155 115.702 92.9472 119.536C92.1858 121.085 87.3634 120.569 84.8092 126.249C85.0229 126.654 85.2254 127.079 85.4161 127.525C86.5124 129.098 87.5112 131.062 88.3711 133.478L92.1858 134.51C90.3611 134.586 89.7332 135.032 89.3217 136.551C89.5006 137.22 89.6706 137.917 89.8309 138.641C90.9415 139.922 91.6771 140.467 93.4548 140.707C92.1408 141.209 91.4475 141.535 90.552 142.514C90.6801 143.344 90.7975 144.204 90.9036 145.096C92.0962 145.898 92.8043 146.172 94.2162 146.386C92.5243 146.766 91.9593 147.075 91.1706 147.677C91.1985 148.386 91.1979 149.103 91.1701 149.823C92.3004 150.715 93.0478 150.926 94.47 151.034L91.0526 151.55C90.9453 152.655 90.777 153.763 90.552 154.86C91.1284 156.067 91.5635 156.528 92.6934 156.713C91.6744 157.113 91.102 157.242 90.0465 156.972C86.8391 168.66 77.3254 178.222 67.0586 169.622C72.9714 175.377 76.7066 177.294 85.8404 174.011C90.9168 171.429 96.2108 168.163 94.7236 164.201C97.4451 164.201 98.3548 158.479 96.8743 157.55C96.8341 157.534 96.794 157.513 96.7541 157.488C96.7958 157.505 96.8359 157.526 96.8743 157.55C98.8693 158.36 101.068 148.172 98.0518 148.193C99.8025 148.131 100.019 142.37 98.0231 141.223C99.0386 141.223 99.0969 137.369 96.7541 134.252ZM101.323 86.4897L86.8558 85.9733C86.4847 85.0823 86.3549 84.4791 87.1096 82.8752L98.531 75.1299C99.863 74.3606 100.469 74.3143 101.323 75.1299L103.607 84.1661C103.242 85.8728 102.675 86.2765 101.323 86.4897Z" fill="url(#paint2_linear_200_111)"/>
<path d="M69.0893 149.823V146.903L70.866 146.128V150.517L69.0893 149.823Z" fill="#2F253D"/>
<path d="M66.2975 146.386V150.517L68.0741 149.823V146.903L66.2975 146.386Z" fill="#2F253D"/>
<path d="M98.0231 148.194C98.0327 148.194 98.0423 148.193 98.0518 148.193M67.0586 169.622C72.9714 175.377 76.7066 177.294 85.8404 174.011C90.9168 171.429 96.2108 168.163 94.7236 164.201C97.4451 164.201 98.3548 158.479 96.8743 157.55M67.0586 169.622C66.4739 169.008 65.9357 168.409 65.4403 167.815M67.0586 169.622C77.3254 178.222 86.8391 168.66 90.0465 156.972M59.952 151.034C59.1909 150.259 59.0638 147.958 60.4597 147.677V138.899L61.4752 134.252C59.952 132.703 59.8846 127.323 61.4752 125.474C61.8711 127.68 62.3529 128.842 63.5056 129.43M59.952 151.034C60.5135 159.434 61.8628 163.522 65.4403 167.815M59.952 151.034L61.4752 154.132C61.2676 156.845 61.6755 157.149 62.4903 157.488C62.4976 159.815 63.3295 160.689 65.0285 162.135L65.4403 167.04H74.1655C77.3777 162.894 79.4612 160.657 85.8404 157.488C86.0306 156.696 86.1988 155.984 86.3482 155.324M65.0285 129.863C70.2199 125.317 73.0031 123.796 77.465 125.474M65.0285 129.863C64.417 129.778 63.9183 129.641 63.5056 129.43M65.0285 129.863C70.9926 127.198 73.8551 126.183 76.5723 126.765M65.0285 129.863C64.8484 132.264 64.2226 133.166 62.4903 134.252M77.465 125.474C77.0835 125.866 76.7924 126.282 76.5723 126.765M77.465 125.474L78.4802 123.925C78.4557 125.014 78.7755 125.92 79.1722 126.765M77.465 132.187H75.9422C75.9173 129.551 76.0292 127.955 76.5723 126.765M63.5056 129.43C64.4295 128.093 65.6474 126.789 67.0586 125.661M91.1706 147.677C91.0918 146.789 91.0027 145.929 90.9036 145.096M91.1706 147.677C91.9593 147.075 92.5243 146.766 94.2162 146.386C92.8043 146.172 92.0962 145.898 90.9036 145.096M91.1706 147.677C91.1985 148.386 91.1979 149.103 91.1701 149.823M74.6732 122.226C98.7848 124.441 91.1706 188.469 65.4403 167.815M74.6732 122.226C71.9199 122.579 69.2551 123.906 67.0586 125.661M74.6732 122.226C78.4075 121.747 82.3045 123.06 85.4161 127.525M230.511 174.786C227.084 176.74 224.857 176.722 220.858 176.593C223.15 170.7 224.127 167.363 224.919 161.36C226.963 154.383 227.553 150.961 227.457 145.87C228.837 141 229.342 137.516 229.741 129.605C232.809 74.9964 186.403 58.9401 147.008 68.5916M230.511 174.786C232.331 173.822 233.298 173.137 234.318 169.88C236.342 169.734 237.123 168.796 238.379 166.782C238.615 162.746 239.148 160.432 240.917 156.197C241.073 154.065 241.323 152.576 242.44 148.71C241.656 147.068 241.46 146.125 242.44 144.321L241.932 139.416C243.552 138.351 243.749 137.032 243.455 133.994C242.362 135.995 241.663 136.754 239.902 136.059V131.412L238.696 130.25M230.511 174.786C232.537 170.457 233.622 167.954 234.572 162.135C236.268 158.957 236.35 157.133 236.348 153.873C237.858 149.664 238.193 147.233 237.871 142.772C238.58 139.974 238.622 136.483 238.696 130.264M233.81 121.085H235.079V126.765L237.49 129.089M233.81 121.085C233.81 66.352 188.379 53.4432 162.49 50.0869C146.667 50.0315 133.324 52.3588 122.135 56.2567M233.81 121.085L233.556 128.314L236.856 131.929L237.49 129.089M67.0586 125.661C67.0873 122.735 67.4886 120.959 69.8508 117.213C71.3841 101.616 81.8341 76.6045 109.191 61.9178M67.0586 125.661C67.7256 124.902 68.4043 124.229 69.0893 123.639M237.49 129.089L238.696 130.25M122.135 56.2567C137.023 61.3447 150.082 62.5173 147.008 68.5916M122.135 56.2567C121.623 56.4351 121.115 56.6168 120.612 56.8017M147.008 68.5916C146.669 68.6521 146.331 68.7151 145.993 68.7805M133.303 72.4428C110.61 81.2671 92.8974 101.192 93.9542 127.023C95.7913 128.313 98.0231 132.187 96.7541 134.252C99.0969 137.369 99.0386 141.223 98.0231 141.223C100.019 142.37 99.8025 148.131 98.0518 148.193M133.303 72.4428C133.715 70.3988 127.973 66.6101 109.191 61.9178M133.303 72.4428C133.64 72.3116 133.978 72.1829 134.318 72.0566M109.191 61.9178C109.693 61.6483 110.2 61.3824 110.714 61.12M110.714 61.12C117.059 62.7375 135.587 67.901 134.318 72.0566M110.714 61.12C113.802 59.5415 117.098 58.0933 120.612 56.8017M134.318 72.0566C138.099 70.6502 142.012 69.5503 145.993 68.7805M145.993 68.7805C146.978 64.0549 142.186 63.512 120.612 56.8017M80.5106 131.412C80.8361 129.591 79.8813 128.275 79.1722 126.765M79.1722 126.765C80.3008 127.462 81.382 128.278 82.3677 129.347M87.3634 148.968L84.8254 151.034L86.3482 155.324M87.3634 148.968C87.1641 151.32 86.8715 153.01 86.3482 155.324M87.3634 148.968C87.3634 142.375 86.6269 137.8 85.4161 134.51M82.3677 129.347C83.272 130.367 81.7806 132.37 80.003 132.187C82.2766 132.676 83.4602 133.189 85.4161 134.51M82.3677 129.347C83.5484 130.627 84.5921 132.271 85.4161 134.51M85.4161 127.525C85.2254 127.079 85.0229 126.654 84.8092 126.249M85.4161 127.525C86.5124 129.098 87.5112 131.062 88.3711 133.478M84.8092 126.249C87.3634 120.569 92.1858 121.085 92.9472 119.536C93.3155 115.702 91.9938 114.984 87.8711 115.405C83.6409 115.663 75.1807 115.87 75.1807 114.631C72.1539 114.302 71.7742 115.279 71.8812 117.729C69.1174 119.948 68.7064 121.254 69.0893 123.639M84.8092 126.249C82.9049 122.641 80.1192 120.677 77.0165 120.487M69.0893 123.639C69.9208 122.923 70.7617 122.331 71.6025 121.86M71.6025 121.86L74.4193 117.729L77.0165 120.487M71.6025 121.86C73.4406 120.83 75.2783 120.38 77.0165 120.487M77.0165 150.001C78.1257 148.591 80.003 148.194 81.7797 146.386M80.5106 159.037C81.3117 157.709 81.9312 156.783 82.7949 155.77M82.7949 146.128C82.6911 147.905 82.7024 149.241 82.9525 150.517M82.7949 155.77C83.2246 155.265 83.7147 154.74 84.3178 154.132C83.6038 152.786 83.1796 151.677 82.9525 150.517M82.7949 155.77L82.9525 150.517M65.4403 158.521L63.5056 156.972L63.5056 159.295M65.4403 158.521L65.7898 156.197M65.4403 158.521H65.7898M67.0589 158.521H69.0893M67.0589 158.521V161.619M67.0589 158.521H65.7898M67.0589 158.521L67.3896 155.77M69.0893 158.521L71.8812 158.004M69.0893 158.521V155.324M69.0893 158.521V161.619M71.8812 158.004L74.1655 156.972M71.8812 158.004L71.6025 160.844M71.8812 158.004L70.866 155.77M74.1655 156.972V160.328M74.1655 156.972L72.8964 155.324M65.7898 158.521V161.361M81.7797 139.416C81.8299 137.458 82.3177 136.479 84.3178 135.027M67.0589 144.063C65.7898 148.968 61.1063 146.097 61.7289 141.223C64.0145 143.611 65.2236 144.223 67.0589 144.063ZM67.0589 144.063C67.0186 141.421 66.1821 140.426 64.267 138.899M74.1655 137.35L69.0893 142.256M88.3711 133.478L92.1858 134.51C90.3611 134.586 89.7332 135.032 89.3217 136.551M88.3711 133.478C88.7105 134.431 89.0282 135.454 89.3217 136.551M89.8309 138.641C90.9415 139.922 91.6771 140.467 93.4548 140.707C92.1408 141.209 91.4475 141.535 90.552 142.514M89.8309 138.641C90.0989 139.852 90.3402 141.141 90.552 142.514M89.8309 138.641C89.6706 137.917 89.5006 137.22 89.3217 136.551M90.552 142.514C90.6801 143.344 90.7975 144.204 90.9036 145.096M91.1701 149.823C92.3004 150.715 93.0478 150.926 94.47 151.034L91.0526 151.55M91.1701 149.823C91.148 150.397 91.1086 150.973 91.0526 151.55M91.0526 151.55C90.9453 152.655 90.777 153.763 90.552 154.86M70.3584 144.063C72.8223 148.757 78.8691 146.903 78.8691 142.514M78.8691 142.514C77.9854 144.998 74.3375 145.67 72.8964 143.288L78.2264 138.641C79.1296 140.178 79.2306 141.498 78.8691 142.514ZM90.552 154.86C91.1284 156.067 91.5635 156.528 92.6934 156.713C91.6744 157.113 91.102 157.242 90.0465 156.972M90.552 154.86C90.4067 155.569 90.2378 156.274 90.0465 156.972M238.696 130.25L238.696 130.264M238.696 130.25C238.696 130.255 238.696 130.26 238.696 130.264M234.572 168.073C237.555 156.815 240.47 151.379 239.902 137.608M96.8743 157.55C96.8341 157.534 96.794 157.513 96.7541 157.488C96.7958 157.505 96.8359 157.526 96.8743 157.55ZM96.8743 157.55C98.8693 158.36 101.068 148.172 98.0518 148.193M86.8558 85.9733L101.323 86.4897C102.675 86.2765 103.242 85.8728 103.607 84.1661L101.323 75.1299C100.469 74.3143 99.863 74.3606 98.531 75.1299L87.1096 82.8752C86.3549 84.4791 86.4847 85.0823 86.8558 85.9733ZM87.6172 84.1661L99.8 75.6463L101.577 85.1988L87.6172 84.6824V84.1661ZM77.0165 152.841L82.3677 149.823C81.4103 152.378 78.7849 157.23 75.9422 156.197C78.0407 154.219 77.9881 153.596 77.0165 152.841ZM66.2975 146.386V150.517L68.0741 149.823V146.903L66.2975 146.386ZM69.0893 149.823V146.903L70.866 146.128V150.517L69.0893 149.823Z" stroke="black"/>
<path d="M75.4343 129.605C71.6684 127.27 69.5567 127.018 65.7896 129.605C69.4894 125.881 71.6373 123.981 77.4648 125.474V124.442C83.9957 129.971 87.4809 133.346 87.6171 148.71C87.743 154.854 86.9297 156.719 84.3176 158.004C82.1372 158.777 80.1249 160.318 73.6577 167.041H64.7744L65.7896 164.975H73.15C74.7402 164.755 75.5093 163.055 76.1957 151.55L81.0181 146.903C81.6192 143.375 81.7403 141.57 80.0028 139.932C78.4972 145.791 76.7714 147.066 72.6424 146.903L70.612 142.772C78.7338 137.867 82.222 134.024 76.1957 132.445C78.9234 131.637 79.4789 130.343 77.4648 125.474L75.4343 129.605Z" fill="black" fill-opacity="0.2"/>
<path d="M83.5561 123.667C85.079 121.343 85.2232 118.387 88.1247 118.504C88.921 119.327 88.9509 117.079 90.1101 115.922C107.16 43.3745 238.886 42.6 233.556 127.798L230.51 160.07L235.079 162.135C232.153 175.642 228.802 177.678 221.12 175.819C226.79 157.927 228.45 147.013 230.51 127.023C227.719 36.1456 103.861 60.6723 95.2313 111.791C93.536 117.155 93.4571 120.147 93.7084 125.474C94.7237 128.314 89.0897 129.382 86.0942 125.991C84.2578 126.051 83.9584 125.247 83.5561 123.667Z" fill="black" fill-opacity="0.2"/>
<defs>
<linearGradient id="paint0_linear_200_111" x1="151.48" y1="50.0859" x2="214.665" y2="137.882" gradientUnits="userSpaceOnUse">
<stop stop-color="#7A61A5"/>
<stop offset="1" stop-color="#453663"/>
</linearGradient>
<linearGradient id="paint1_linear_200_111" x1="151.48" y1="50.0859" x2="214.665" y2="137.882" gradientUnits="userSpaceOnUse">
<stop stop-color="#7A61A5"/>
<stop offset="1" stop-color="#453663"/>
</linearGradient>
<linearGradient id="paint2_linear_200_111" x1="151.48" y1="50.0859" x2="214.665" y2="137.882" gradientUnits="userSpaceOnUse">
<stop stop-color="#7A61A5"/>
<stop offset="1" stop-color="#453663"/>
</linearGradient>
</defs>
</svg>
