<svg width="300" height="300" viewBox="0 0 300 300" fill="none" xmlns="http://www.w3.org/2000/svg">
<path fill-rule="evenodd" clip-rule="evenodd" d="M79.8592 78.3914C85.22 69.8752 109.523 83.0383 126.02 116.211C126.608 116.111 127.2 116.015 127.797 115.921C110.031 82.0059 90.5886 70.2666 79.3196 75.5872C78.5835 76.6852 78.4198 77.8692 79.3196 79.1659C79.4694 78.8816 79.6497 78.6232 79.8592 78.3914Z" fill="#984F56"/>
<path d="M111.278 95.2147C116.043 100.842 120.833 107.848 125.259 116.343C125.512 116.299 125.766 116.255 126.02 116.211C109.523 83.0383 85.22 69.8752 79.8592 78.3914C83.7107 74.1276 97.3913 78.8188 111.278 95.2147Z" fill="#482F44"/>
<path d="M115.36 119.475C118.116 118.519 121.379 117.484 125.259 116.343C120.833 107.848 116.043 100.842 111.278 95.2147C113.584 109.114 125.259 113.798 115.36 119.475Z" fill="#482F44"/>
<path d="M127.797 115.921C132.549 115.177 137.582 114.642 142.772 114.292C141.978 112.524 141.168 110.798 140.344 109.114C134.148 96.4563 127.15 86.1963 120.183 78.7729L115.868 78.133C114.999 75.6181 114.094 75.3527 112.061 76.8421C107.456 73.9657 106.777 71.8407 106.475 67.8059C99.0573 63.9265 92.3944 64.0587 87.6952 68.8388C86.086 70.8397 81.075 72.9688 79.3196 75.5872C90.5886 70.2666 110.031 82.0059 127.797 115.921Z" fill="url(#paint0_linear_200_116)"/>
<path d="M106.475 67.8059C106.777 71.8407 107.456 73.9657 112.061 76.8421C114.094 75.3527 114.999 75.6181 115.868 78.133L120.183 78.7729C115.516 73.8008 110.863 70.1012 106.475 67.8059Z" fill="#927E56"/>
<path d="M140.344 109.114C141.168 110.798 141.978 112.524 142.772 114.292C143.362 114.252 143.954 114.215 144.548 114.18C146.809 114.046 149.097 113.948 151.401 113.881C145.83 113.259 143.22 112.395 140.344 109.114Z" fill="#482F44"/>
<path d="M192.046 115.763C193.932 115.988 195.783 116.231 197.594 116.489L201.12 98.7829C198.809 110.002 194.996 116.089 192.046 115.763Z" fill="#482F44"/>
<path d="M200.132 72.9697L203.178 76.326C203.178 84.6792 202.456 91.8786 201.325 97.7546C201.258 98.102 201.19 98.4448 201.12 98.7829L197.594 116.489C202.811 117.234 207.689 118.108 212.061 119.084L212.569 117.376C219.929 75.5515 205.97 72.9697 200.132 72.9697Z" fill="url(#paint1_linear_200_116)"/>
<path d="M95.8171 145.001C92.4923 145.146 89.6942 145.278 87.6952 145.272C87.2273 145.27 86.8031 145.261 86.4262 145.243C85.2731 145.187 84.5629 145.046 84.3958 144.772C84.424 145.474 84.446 146.153 84.4629 146.808H97.375L97.0985 143.968C96.8003 144.625 96.3874 145.001 95.8171 145.001Z" fill="#B38552"/>
<path d="M80.3348 144.772C71.7054 143.163 66.1216 142.677 64.0912 139.837C63.6153 139.172 62.911 140.219 63.011 141.386C63.0664 142.032 63.3681 142.714 64.0912 143.163C65.2413 144.21 67.9069 144.826 80.3348 146.033V144.772Z" fill="#B38552"/>
<path d="M84.9034 143.968C85.2508 143.805 85.6001 144.069 86.4262 145.243C86.8031 145.261 87.2273 145.27 87.6952 145.272C86.4262 142.161 80.3348 141.902 80.3348 143.968V144.772V146.033V159.975C80.7063 160.446 81.0253 160.878 81.3496 161.264C82.3766 162.487 83.4568 163.249 86.4262 163.331C86.4262 163.331 88.2029 163.073 87.1876 162.298C83.5924 162.298 84.7504 157.924 84.4629 146.808C84.446 146.153 84.424 145.474 84.3958 144.772C84.2765 144.577 84.4336 144.314 84.9034 143.968Z" fill="#D09283"/>
<path d="M100.132 169.269L99.878 162.298H89.2183C93.5343 162.991 95.9331 164.095 100.132 169.269Z" fill="#482F44"/>
<path d="M101.655 141.902C102.416 141.902 102.416 143.71 101.909 144.226C99.1505 144.462 99.6244 146.55 101.909 146.808C102.416 147.324 102.284 148.385 101.655 148.615L101.909 161.264C103.965 163.644 100.64 164.106 99.878 162.298L100.132 169.269C100.104 169.622 100.085 169.966 100.073 170.302L104.954 161.524C104.248 151.185 104.214 145.211 104.447 134.157L111.278 135.448C109.615 134.059 107.691 132.661 104.954 130.801C104.576 126.996 108.41 123.747 115.36 121.194L102.416 125.696C101.722 126.279 101.174 126.858 100.717 127.445L99.878 131.834L104.447 133.383C102.139 133.864 100.882 134.17 99.3706 135.448L99.878 142.355C100.377 142.068 100.976 141.902 101.655 141.902Z" fill="#6062AD"/>
<path d="M103.681 179.596C103.593 179.255 103.51 178.91 103.432 178.563C104.428 176.437 105.451 174.644 106.733 172.884C108.71 170.167 111.302 167.526 115.36 163.847L113.584 157.135L104.954 161.524L100.073 170.302C100.03 171.535 100.092 172.656 100.233 173.658C100.5 175.565 101.05 177.042 101.702 178.047C102.323 179.002 103.034 179.531 103.681 179.596Z" fill="#B57F73"/>
<path d="M103.432 178.563C103.51 178.91 103.593 179.255 103.681 179.596C104.036 180.988 104.462 182.335 104.954 183.637C110.637 198.669 125.144 207.771 142.01 211.688C119.731 204.072 113.583 194.18 106.733 172.884C105.451 174.644 104.428 176.437 103.432 178.563Z" fill="#6062AD"/>
<path d="M99.878 155.844V162.298C100.64 164.106 103.965 163.644 101.909 161.264L101.655 148.615H99.878V155.844Z" fill="#B38552"/>
<path d="M98.9549 143.163C97.8927 144.547 97.9769 146.811 99.878 148.615H101.655C102.284 148.385 102.416 147.324 101.909 146.808C99.6244 146.55 99.1505 144.462 101.909 144.226C102.416 143.71 102.416 141.902 101.655 141.902C100.976 141.902 100.377 142.068 99.878 142.355C99.5135 142.565 99.2029 142.84 98.9549 143.163Z" fill="#B38552"/>
<path d="M99.878 148.615C97.9769 146.811 97.8927 144.547 98.9549 143.163H97.375C97.2961 143.464 97.2045 143.734 97.0985 143.968L97.375 146.808C98.3787 149.6 98.9184 151.659 99.878 155.844V148.615Z" fill="#B38552"/>
<path d="M84.4629 146.808C84.7504 157.924 83.5924 162.298 87.1876 162.298H89.2183H99.878V155.844C98.9184 151.659 98.3787 149.6 97.375 146.808H84.4629Z" fill="#E9895D"/>
<path d="M80.3348 159.975V146.033C67.9069 144.826 65.2413 144.21 64.0912 143.163C63.3681 142.714 63.0664 142.032 63.011 141.386C62.4394 143.394 65.6905 155.815 67.1367 157.651C75.8674 160.543 80.2497 161.265 81.3496 161.264C81.0253 160.878 80.7063 160.446 80.3348 159.975Z" fill="#E9895D"/>
<path d="M86.4262 145.243C85.6001 144.069 85.2508 143.805 84.9034 143.968C84.4336 144.314 84.2765 144.577 84.3958 144.772C84.5629 145.046 85.2731 145.187 86.4262 145.243Z" fill="#482F44"/>
<path d="M98.3552 131.834C99.2893 133.346 99.1055 134.005 97.8475 134.932C97.8696 138.221 97.8644 141.297 97.375 143.163H98.9549C99.2029 142.84 99.5135 142.565 99.878 142.355L99.3706 135.448C100.882 134.17 102.139 133.864 104.447 133.383L99.878 131.834L100.717 127.445C99.6601 128.804 99.0943 130.21 98.3552 131.834Z" fill="#482F44"/>
<path d="M103.681 179.596C103.034 179.531 102.323 179.002 101.702 178.047C101.05 177.042 100.5 175.565 100.233 173.658C98.911 180.8 103.079 181.448 104.954 183.637C104.462 182.335 104.036 180.988 103.681 179.596Z" fill="#482F44"/>
<path d="M142.772 114.292C137.582 114.642 132.549 115.177 127.797 115.921C127.2 116.015 126.608 116.111 126.02 116.211C125.766 116.255 125.512 116.299 125.259 116.343C121.379 117.484 118.116 118.519 115.36 119.475C108.367 121.902 104.643 123.825 102.416 125.696L115.36 121.194C122.556 118.551 133.093 116.655 145.755 115.663C145.434 115.152 145.038 114.665 144.548 114.18C143.954 114.215 143.362 114.252 142.772 114.292Z" fill="#D6CEF7"/>
<path d="M192.01 115.758C180.561 114.389 167.862 113.644 155.462 113.798C155.848 113.972 156.155 114.454 156.363 115.063C167.305 114.666 179.393 114.871 192.01 115.758Z" fill="#D6CEF7"/>
<path d="M151.401 113.881C149.097 113.948 146.809 114.046 144.548 114.18C145.038 114.665 145.434 115.152 145.755 115.663C146.936 117.546 147.084 119.743 147.086 123.314C147.754 125.632 157.393 126.67 157.239 123.314C157.115 120.612 156.698 119.728 155.462 119.183C156.752 119.183 156.912 116.678 156.363 115.063C156.155 114.454 155.848 113.972 155.462 113.798C154.104 113.815 152.75 113.842 151.401 113.881Z" fill="#B57F73"/>
<path d="M223.482 128.477C222.731 125.994 221.124 125.163 220.869 123.572C220.623 126.953 212.569 129.51 204.954 135.965C211.28 132.415 215.596 131.022 223.075 128.609L223.482 128.477Z" fill="#7A78A9"/>
<path d="M178.558 151.713C179.574 167.204 212.315 163.331 215.36 144.226L209.523 145.414C209.596 150.043 206.332 151.902 201.003 155.328C194.007 160.063 182.161 161.709 178.558 151.713Z" fill="#7375B2"/>
<path d="M209.523 145.414L205.97 146.137C207.23 149.187 204.849 152.724 201.003 155.328C206.332 151.902 209.596 150.043 209.523 145.414Z" fill="#332C4F"/>
<path d="M143.787 160.551C153.01 163.868 164.277 162.93 170.944 151.713L167.391 151.082C161.24 158.608 156.584 161.311 147.848 160.913C146.585 160.856 145.237 160.733 143.787 160.551Z" fill="#716FAE"/>
<path d="M167.391 151.082L160.538 149.864C165.107 150.676 162.315 160.913 147.848 160.913C156.584 161.311 161.24 158.608 167.391 151.082Z" fill="#352E4D"/>
<path d="M137.015 157.135C137.054 164.466 135.665 168.236 135.157 173.658C136.421 169.839 137.043 167.747 140.741 162.557V159.27C139.427 158.633 138.177 157.914 137.015 157.135Z" fill="#6567A2"/>
<path d="M118.914 150.681C123.736 149.131 120.944 141.128 116.883 142.161C119.021 142.902 119.908 145.148 119.384 147.582C119.161 148.615 118.684 149.681 117.941 150.681C118.254 150.794 118.581 150.804 118.914 150.681Z" fill="#6C6E94"/>
<path d="M116.883 142.161C116.071 142.483 115.623 143.261 115.454 144.226C117.307 144.252 118.251 144.662 119.384 147.582C119.908 145.148 119.021 142.902 116.883 142.161Z" fill="#352E4D"/>
<path d="M137.374 136.268C138.769 135.257 139.54 133.335 138.457 130.801C136.061 126.951 132.101 128.866 131.203 131.834C134.748 131.057 136.632 131.886 137.212 133.899C137.404 134.564 137.454 135.359 137.374 136.268Z" fill="#6C6E94"/>
<path d="M131.203 131.834C130.932 132.728 130.939 133.717 131.35 134.674C131.703 135.494 132.233 136.09 132.851 136.481C131.35 133.705 134.65 130.801 137.212 133.899C136.632 131.886 134.748 131.057 131.203 131.834Z" fill="#352E4D"/>
<path d="M115.36 131.317C119.55 129.254 115.77 124.608 113.584 125.696C113.399 125.786 113.23 125.883 113.076 125.987C115.695 125.874 116.376 129.252 113.584 131.083C114.103 131.326 114.708 131.426 115.36 131.317Z" fill="#6C6E94"/>
<path d="M115.162 129.252C115.828 127.606 114.946 125.906 113.076 125.987C112.477 126.393 112.105 126.903 111.921 127.445C113.463 126.82 114.156 127.478 115.162 129.252Z" fill="#352E4D"/>
<path d="M157.239 131.834C156.372 132.17 155.66 132.805 155.436 133.899C155.884 133.671 156.429 133.612 156.935 133.705C158.037 133.905 158.95 134.821 158.254 136.268C161.478 135.141 159.806 130.914 157.239 131.834Z" fill="#6C6E94"/>
<path d="M155.436 133.899C155.17 135.194 155.587 136.481 157.239 136.481C156.206 135.411 155.816 134.809 156.935 133.705C156.429 133.612 155.884 133.671 155.436 133.899Z" fill="#352E4D"/>
<path d="M187.949 133.899C195.817 133.899 194.041 123.572 188.457 124.347C187.575 124.469 186.84 124.742 186.241 125.121C189.415 125.506 191.146 128.428 189.472 131.369C188.998 132.202 188.252 133.036 187.188 133.815C187.43 133.87 187.684 133.899 187.949 133.899Z" fill="#6C6E94"/>
<path d="M186.241 125.121C184.992 125.911 184.331 127.164 184.155 128.477C185.36 126.821 189.472 127.187 189.472 131.369C191.146 128.428 189.415 125.506 186.241 125.121Z" fill="#352E4D"/>
<path d="M208.508 129.51C210.792 125.121 206.025 121.958 204.193 124.347C205.776 124.993 206.315 125.464 206.874 126.412C207.541 127.118 208 128.268 208 129.664C208.166 129.624 208.335 129.573 208.508 129.51Z" fill="#6C6E94"/>
<path d="M204.193 124.347C203.82 125.016 203.667 125.729 203.696 126.412C204.732 125.318 205.987 125.473 206.874 126.412C206.315 125.464 205.776 124.993 204.193 124.347Z" fill="#352E4D"/>
<path d="M219.421 141.386C222.213 138.03 219.177 133.718 216.883 134.674C216.549 134.813 216.325 135.087 216.191 135.448C217.643 135.604 218.771 136.555 219.228 138.441C219.424 139.248 219.497 140.226 219.421 141.386Z" fill="#6C6E94"/>
<path d="M216.191 135.448C215.912 136.205 216.031 137.346 216.376 138.441C217.1 137.441 217.711 137.391 219.228 138.441C218.771 136.555 217.643 135.604 216.191 135.448Z" fill="#352E4D"/>
<path d="M216.883 163.073C220.69 161.524 219.204 155.47 216.376 156.619C216.121 156.722 215.902 156.901 215.719 157.135C216.482 157.726 217.211 158.592 217.47 159.717C217.688 160.658 217.577 161.779 216.883 163.073Z" fill="#6C6E94"/>
<path d="M215.719 157.135C214.986 158.071 214.819 159.887 215.188 161.266C215.258 159.344 216.874 158.509 217.47 159.717C217.211 158.592 216.482 157.726 215.719 157.135Z" fill="#352E4D"/>
<path d="M211.807 179.596C215.614 179.854 217.137 172.367 213.076 171.851C212.719 171.842 212.386 171.936 212.081 172.109C213.365 173.718 213.717 176.01 212.805 178.047C212.563 178.587 212.233 179.109 211.807 179.596Z" fill="#6C6E94"/>
<path d="M212.081 172.109C211.282 172.563 210.677 173.563 210.351 174.691C212.08 174.154 212.805 174.949 212.805 178.047C213.717 176.01 213.365 173.718 212.081 172.109Z" fill="#352E4D"/>
<path d="M197.086 168.753C199.371 164.622 194.728 163.735 193.787 165.397C193.688 165.555 193.603 165.712 193.533 165.865C194.419 165.424 195.371 165.587 196.071 166.291C196.595 166.818 196.978 167.648 197.086 168.753Z" fill="#6C6E94"/>
<path d="M193.533 165.865C193.038 166.947 193.242 167.884 193.787 168.502C193.485 167.235 195.075 165.79 196.071 166.291C195.371 165.587 194.419 165.424 193.533 165.865Z" fill="#352E4D"/>
<path d="M198.863 186.309C202.631 186.379 205.668 177.406 200.386 176.498C199.639 176.504 198.948 176.879 198.355 177.48C200.178 177.774 201.735 180.704 200.285 183.469C199.817 184.361 199.035 185.237 197.848 186C198.139 186.158 198.476 186.265 198.863 186.309Z" fill="#6C6E94"/>
<path d="M200.285 183.469C201.735 180.704 200.178 177.774 198.355 177.48C197.7 178.146 197.166 179.089 196.814 180.113C198.863 179.338 200.285 180.887 200.285 183.469Z" fill="#352E4D"/>
<path d="M206.731 195.673C206.079 196.45 205.226 196.938 204.193 197.669C205.12 198.989 208.784 197.641 209.879 195.345C208.502 196.116 207.861 196.191 206.731 195.673Z" fill="#6C6E94"/>
<path d="M209.777 192.505C209.455 192.086 208.779 192.102 208 192.399C207.757 194.006 207.329 194.961 206.731 195.673C207.861 196.191 208.502 196.116 209.879 195.345C210.283 194.498 210.338 193.523 209.777 192.505Z" fill="#352E4D"/>
<path d="M186.426 206.963C186.924 209.412 193.533 208.512 193.533 204.639C193.39 204.331 193.122 204.111 192.772 203.969C191.985 205.781 190.977 206.601 189.98 206.86C188.659 207.202 187.36 206.558 186.626 205.93C186.434 206.256 186.354 206.604 186.426 206.963Z" fill="#6C6E94"/>
<path d="M189.98 206.86C190.977 206.601 191.985 205.781 192.772 203.969C192.18 203.727 191.351 203.706 190.487 203.85C191.229 204.585 190.995 205.93 189.98 206.86Z" fill="#352E4D"/>
<path d="M154.23 201.541C156.542 202.224 159.357 201.781 159.777 199.218C159.777 196.861 156.755 195.163 154.23 195.554C157.203 195.798 158.062 199.667 155.462 201.108C155.114 201.301 154.705 201.45 154.23 201.541Z" fill="#6C6E94"/>
<path d="M154.23 195.554C153.035 195.74 151.951 196.394 151.352 197.669C154.654 195.017 154.94 197.172 155.438 200.928L155.462 201.108C158.062 199.667 157.203 195.798 154.23 195.554Z" fill="#352E4D"/>
<path d="M153.939 186.825C155.716 177.014 145.31 176.24 143.279 182.436C143.068 182.996 143.047 183.721 143.188 184.502C144.874 179.141 151.656 179.251 152.058 186.349C152.102 187.115 152.071 187.961 151.952 188.891C152.601 188.381 153.266 187.702 153.939 186.825Z" fill="#6C6E94"/>
<path d="M143.188 184.502C143.296 185.101 143.5 185.733 143.787 186.349C146.422 180.086 150.833 182.436 152.058 186.349C151.656 179.251 144.874 179.141 143.188 184.502Z" fill="#352E4D"/>
<path d="M144.041 172.884C146.833 169.786 142.01 166.429 140.234 168.753C140.026 168.99 139.864 169.252 139.743 169.527C141.449 168.366 142.916 168.955 143.023 171.076C143.058 171.774 142.946 172.637 142.648 173.658C143.083 173.526 143.55 173.276 144.041 172.884Z" fill="#6C6E94"/>
<path d="M139.743 169.527C139.25 170.654 139.456 172.012 140.138 172.884C140.138 171.076 141.503 169.527 143.023 171.076C142.916 168.955 141.449 168.366 139.743 169.527Z" fill="#352E4D"/>
<path d="M129.827 193.28C134.396 186.567 126.476 181.941 123.736 184.502C125.63 184.563 128.622 187.624 128.713 190.698C128.747 191.885 128.35 193.073 127.289 194.092C128.136 194.153 129.007 193.916 129.827 193.28Z" fill="#6C6E94"/>
<path d="M123.736 184.502C122.436 185.716 122.085 187.332 122.352 188.891C123.029 186.805 125.513 186.567 128.713 190.698C128.622 187.624 125.63 184.563 123.736 184.502Z" fill="#352E4D"/>
<path d="M228.051 155.328C231.858 146.137 230.309 142.04 229.066 144.226C228.48 145.817 227.77 146.583 227.036 146.819C226.888 146.867 226.739 146.893 226.59 146.9L222.816 147.582L222.762 149.131L222.213 164.88L221.874 166.687C224.244 163.589 228.051 162.556 228.051 155.328Z" fill="url(#paint2_linear_200_116)"/>
<path fill-rule="evenodd" clip-rule="evenodd" d="M113.584 157.135L115.36 163.847C111.302 167.526 108.71 170.167 106.733 172.884C113.583 194.18 119.731 204.072 142.01 211.688C171.883 218.625 209.155 209.299 217.899 187.858L221.874 166.687L222.213 164.88L222.762 149.131L222.816 147.582L222.941 143.99L223.482 128.477L223.075 128.609C215.596 131.022 211.28 132.415 204.954 135.965C212.569 129.51 220.623 126.953 220.869 123.572C220.688 122.443 220.271 121.21 219.172 120.89C217.735 120.472 216.207 120.067 214.599 119.675C213.774 119.474 212.927 119.277 212.061 119.084C207.689 118.108 202.811 117.234 197.594 116.489C195.783 116.231 193.932 115.988 192.046 115.763C192.034 115.761 192.022 115.76 192.01 115.758C179.393 114.871 167.305 114.666 156.363 115.063C156.912 116.678 156.752 119.183 155.462 119.183C156.698 119.728 157.115 120.612 157.239 123.314C157.393 126.67 147.754 125.632 147.086 123.314C147.084 119.743 146.936 117.546 145.755 115.663C133.093 116.655 122.556 118.551 115.36 121.194C108.41 123.747 104.576 126.996 104.954 130.801C107.691 132.661 109.615 134.059 111.278 135.448L104.447 134.157C104.214 145.211 104.248 151.185 104.954 161.524L113.584 157.135ZM215.36 144.226C212.315 163.331 179.574 167.204 178.558 151.713L205.97 146.137L209.523 145.414L215.36 144.226ZM170.944 151.713C164.277 162.93 153.01 163.868 143.787 160.551C142.742 160.176 141.724 159.746 140.741 159.27V162.557C137.043 167.747 136.421 169.839 135.157 173.658C135.665 168.236 137.054 164.466 137.015 157.135C131.53 153.457 127.988 148.421 128.812 144.226L160.538 149.864L167.391 151.082L170.944 151.713ZM188.457 124.347C194.041 123.572 195.817 133.899 187.949 133.899C187.684 133.899 187.43 133.87 187.188 133.815C185.047 133.326 183.841 130.805 184.155 128.477C184.331 127.164 184.992 125.911 186.241 125.121C186.84 124.742 187.575 124.469 188.457 124.347ZM204.193 124.347C206.025 121.958 210.792 125.121 208.508 129.51C208.335 129.573 208.166 129.624 208 129.664C205.548 130.256 203.786 128.475 203.696 126.412C203.667 125.729 203.82 125.016 204.193 124.347ZM157.239 136.481C155.587 136.481 155.17 135.194 155.436 133.899C155.66 132.805 156.372 132.17 157.239 131.834C159.806 130.914 161.478 135.141 158.254 136.268C157.96 136.373 157.623 136.446 157.239 136.481ZM138.457 130.801C139.54 133.335 138.769 135.257 137.374 136.268C136.076 137.208 134.239 137.359 132.851 136.481C132.233 136.09 131.703 135.494 131.35 134.674C130.939 133.717 130.932 132.728 131.203 131.834C132.101 128.866 136.061 126.951 138.457 130.801ZM113.584 125.696C115.77 124.608 119.55 129.254 115.36 131.317C114.708 131.426 114.103 131.326 113.584 131.083C112.225 130.448 111.45 128.838 111.921 127.445C112.105 126.903 112.477 126.393 113.076 125.987C113.23 125.883 113.399 125.786 113.584 125.696ZM116.883 142.161C120.944 141.128 123.736 149.131 118.914 150.681C118.581 150.804 118.254 150.794 117.941 150.681C116.295 150.082 115.037 146.594 115.454 144.226C115.623 143.261 116.071 142.483 116.883 142.161ZM123.736 184.502C126.476 181.941 134.396 186.567 129.827 193.28C129.007 193.916 128.136 194.153 127.289 194.092C124.953 193.924 122.797 191.486 122.352 188.891C122.085 187.332 122.436 185.716 123.736 184.502ZM143.279 182.436C145.31 176.24 155.716 177.014 153.939 186.825C153.266 187.702 152.601 188.381 151.952 188.891C148.288 191.766 145.13 189.235 143.787 186.349C143.5 185.733 143.296 185.101 143.188 184.502C143.047 183.721 143.068 182.996 143.279 182.436ZM154.23 201.541C152.352 200.987 150.806 199.69 151.147 198.185C151.207 198.003 151.275 197.831 151.352 197.669C151.951 196.394 153.035 195.74 154.23 195.554C156.755 195.163 159.777 196.861 159.777 199.218C159.357 201.781 156.542 202.224 154.23 201.541ZM140.234 168.753C142.01 166.429 146.833 169.786 144.041 172.884C143.55 173.276 143.083 173.526 142.648 173.658C141.574 173.985 140.697 173.597 140.138 172.884C139.456 172.012 139.25 170.654 139.743 169.527C139.864 169.252 140.026 168.99 140.234 168.753ZM193.533 204.639C193.533 208.512 186.924 209.412 186.426 206.963C186.354 206.604 186.434 206.256 186.626 205.93C187.226 204.915 188.916 204.11 190.487 203.85C191.351 203.706 192.18 203.727 192.772 203.969C193.122 204.111 193.39 204.331 193.533 204.639ZM200.386 176.498C205.668 177.406 202.631 186.379 198.863 186.309C198.476 186.265 198.139 186.158 197.848 186C196.152 185.077 196.031 182.393 196.814 180.113C197.166 179.089 197.7 178.146 198.355 177.48C198.948 176.879 199.639 176.504 200.386 176.498ZM204.193 197.669C203.278 195.807 205.986 193.165 208 192.399C208.779 192.102 209.455 192.086 209.777 192.505C210.338 193.523 210.283 194.498 209.879 195.345C208.784 197.641 205.12 198.989 204.193 197.669ZM213.076 171.851C217.137 172.367 215.614 179.854 211.807 179.596C210.086 179.158 209.767 176.717 210.351 174.691C210.677 173.563 211.282 172.563 212.081 172.109C212.386 171.936 212.719 171.842 213.076 171.851ZM193.787 165.397C194.728 163.735 199.371 164.622 197.086 168.753C195.97 169.604 194.547 169.364 193.787 168.502C193.242 167.884 193.038 166.947 193.533 165.865C193.603 165.712 193.688 165.555 193.787 165.397ZM216.376 156.619C219.204 155.47 220.69 161.524 216.883 163.073C216.032 163.073 215.462 162.29 215.188 161.266C214.819 159.887 214.986 158.071 215.719 157.135C215.902 156.901 216.121 156.722 216.376 156.619ZM216.883 134.674C219.177 133.718 222.213 138.03 219.421 141.386C218.349 142.237 216.996 140.415 216.376 138.441C216.031 137.346 215.912 136.205 216.191 135.448C216.325 135.087 216.549 134.813 216.883 134.674Z" fill="url(#paint3_linear_200_116)"/>
<path d="M125.259 116.343C121.379 117.484 118.116 118.519 115.36 119.475M125.259 116.343C120.833 107.848 116.043 100.842 111.278 95.2147M125.259 116.343C125.512 116.299 125.766 116.255 126.02 116.211M86.4262 145.243C85.6001 144.069 85.2508 143.805 84.9034 143.968C84.4336 144.314 84.2765 144.577 84.3958 144.772M86.4262 145.243C86.8031 145.261 87.2273 145.27 87.6952 145.272M86.4262 145.243C85.2731 145.187 84.5629 145.046 84.3958 144.772M87.6952 145.272C89.6942 145.278 92.4923 145.146 95.8171 145.001C96.3874 145.001 96.8003 144.625 97.0985 143.968M87.6952 145.272C86.4262 142.161 80.3348 141.902 80.3348 143.968V144.772M87.1876 162.298C88.2029 163.073 86.4262 163.331 86.4262 163.331C83.4568 163.249 82.3766 162.487 81.3496 161.264M87.1876 162.298C83.5924 162.298 84.7504 157.924 84.4629 146.808M87.1876 162.298H89.2183M84.3958 144.772C84.424 145.474 84.446 146.153 84.4629 146.808M99.878 162.298V155.844M99.878 162.298C100.64 164.106 103.965 163.644 101.909 161.264L101.655 148.615M99.878 162.298L100.132 169.269M99.878 162.298H89.2183M99.878 148.615C97.9769 146.811 97.8927 144.547 98.9549 143.163M99.878 148.615V155.844M99.878 148.615H101.655M98.9549 143.163H97.375M98.9549 143.163C99.2029 142.84 99.5135 142.565 99.878 142.355M97.375 143.163C97.8644 141.297 97.8696 138.221 97.8475 134.932C99.1055 134.005 99.2893 133.346 98.3552 131.834C99.0943 130.21 99.6601 128.804 100.717 127.445M97.375 143.163C97.2961 143.464 97.2045 143.734 97.0985 143.968M80.3348 144.772C71.7054 143.163 66.1216 142.677 64.0912 139.837C63.6153 139.172 62.911 140.219 63.011 141.386M80.3348 144.772V146.033M80.3348 146.033V159.975C80.7063 160.446 81.0253 160.878 81.3496 161.264M80.3348 146.033C67.9069 144.826 65.2413 144.21 64.0912 143.163C63.3681 142.714 63.0664 142.032 63.011 141.386M63.011 141.386C62.4394 143.394 65.6905 155.815 67.1367 157.651C75.8674 160.543 80.2497 161.265 81.3496 161.264M84.4629 146.808H97.375M97.375 146.808C98.3787 149.6 98.9184 151.659 99.878 155.844M97.375 146.808L97.0985 143.968M101.655 148.615C102.284 148.385 102.416 147.324 101.909 146.808C99.6244 146.55 99.1505 144.462 101.909 144.226C102.416 143.71 102.416 141.902 101.655 141.902C100.976 141.902 100.377 142.068 99.878 142.355M223.482 128.477C222.731 125.994 221.124 125.163 220.869 123.572M223.482 128.477L222.941 143.99M223.482 128.477L223.075 128.609M223.482 128.477C223.346 128.521 223.21 128.565 223.075 128.609M103.681 179.596C103.593 179.255 103.51 178.91 103.432 178.563C104.428 176.437 105.451 174.644 106.733 172.884M103.681 179.596C103.034 179.531 102.323 179.002 101.702 178.047M103.681 179.596C104.036 180.988 104.462 182.335 104.954 183.637M100.132 169.269C100.104 169.622 100.085 169.966 100.073 170.302M100.132 169.269C95.9331 164.095 93.5343 162.991 89.2183 162.298M104.954 161.524L113.584 157.135L115.36 163.847C111.302 167.526 108.71 170.167 106.733 172.884M104.954 161.524L100.073 170.302M104.954 161.524C104.248 151.185 104.214 145.211 104.447 134.157L111.278 135.448M100.073 170.302C100.03 171.535 100.092 172.656 100.233 173.658M101.702 178.047C105.219 172.141 106.978 168.799 113.584 163.331M101.702 178.047C101.05 177.042 100.5 175.565 100.233 173.658M104.954 183.637C103.079 181.448 98.911 180.8 100.233 173.658M104.954 183.637C110.637 198.669 125.144 207.771 142.01 211.688M142.772 114.292C137.582 114.642 132.549 115.177 127.797 115.921M142.772 114.292C141.978 112.524 141.168 110.798 140.344 109.114M142.772 114.292C143.362 114.252 143.954 114.215 144.548 114.18M127.797 115.921C110.031 82.0059 90.5886 70.2666 79.3196 75.5872M127.797 115.921C127.2 116.015 126.608 116.111 126.02 116.211M79.3196 75.5872C81.075 72.9688 86.086 70.8397 87.6952 68.8388C92.3944 64.0587 99.0573 63.9265 106.475 67.8059M79.3196 75.5872C78.5835 76.6852 78.4198 77.8692 79.3196 79.1659C79.4694 78.8816 79.6497 78.6232 79.8592 78.3914M151.401 113.881C145.83 113.259 143.22 112.395 140.344 109.114M151.401 113.881C149.097 113.948 146.809 114.046 144.548 114.18M151.401 113.881C152.75 113.842 154.104 113.815 155.462 113.798M140.344 109.114C134.148 96.4563 127.15 86.1963 120.183 78.7729M192.01 115.758C180.561 114.389 167.862 113.644 155.462 113.798M192.01 115.758C179.393 114.871 167.305 114.666 156.363 115.063M192.01 115.758C192.022 115.76 192.034 115.761 192.046 115.763M212.569 117.376C219.929 75.5515 205.97 72.9697 200.132 72.9697L203.178 76.326C203.178 84.6792 202.456 91.8786 201.325 97.7546M212.569 117.376L214.599 119.675M212.569 117.376L212.061 119.084M214.599 119.675C216.207 120.067 217.735 120.472 219.172 120.89C220.271 121.21 220.688 122.443 220.869 123.572M214.599 119.675C213.774 119.474 212.927 119.277 212.061 119.084M220.869 123.572C220.623 126.953 212.569 129.51 204.954 135.965C211.28 132.415 215.596 131.022 223.075 128.609M144.548 114.18C145.038 114.665 145.434 115.152 145.755 115.663M155.462 113.798C155.848 113.972 156.155 114.454 156.363 115.063M145.755 115.663C146.936 117.546 147.084 119.743 147.086 123.314C147.754 125.632 157.393 126.67 157.239 123.314C157.115 120.612 156.698 119.728 155.462 119.183C156.752 119.183 156.912 116.678 156.363 115.063M145.755 115.663C133.093 116.655 122.556 118.551 115.36 121.194M115.36 139.321C113.957 137.843 112.715 136.649 111.278 135.448M111.278 135.448C109.615 134.059 107.691 132.661 104.954 130.801C104.576 126.996 108.41 123.747 115.36 121.194M102.416 125.696L115.36 121.194M102.416 125.696C101.722 126.279 101.174 126.858 100.717 127.445M102.416 125.696C104.643 123.825 108.367 121.902 115.36 119.475M106.733 172.884C113.583 194.18 119.731 204.072 142.01 211.688M142.01 211.688C171.883 218.625 209.155 209.299 217.899 187.858L221.874 166.687M142.01 197.669C151.42 192.255 156.394 189.195 164.091 183.637M172.721 172.884C176.789 171.555 178.678 171.522 180.589 174.175M178.558 151.713C179.574 167.204 212.315 163.331 215.36 144.226L209.523 145.414M178.558 151.713L205.97 146.137M178.558 151.713C182.161 161.709 194.007 160.063 201.003 155.328M205.97 146.137L209.523 145.414M205.97 146.137C207.23 149.187 204.849 152.724 201.003 155.328M209.523 145.414C209.596 150.043 206.332 151.902 201.003 155.328M143.787 160.551C153.01 163.868 164.277 162.93 170.944 151.713L167.391 151.082M143.787 160.551C145.237 160.733 146.585 160.856 147.848 160.913M143.787 160.551C142.742 160.176 141.724 159.746 140.741 159.27M167.391 151.082L160.538 149.864M167.391 151.082C161.24 158.608 156.584 161.311 147.848 160.913M160.538 149.864L128.812 144.226C127.988 148.421 131.53 153.457 137.015 157.135M160.538 149.864C165.107 150.676 162.315 160.913 147.848 160.913M157.239 128.477C169.627 125.421 176.88 123.487 184.904 123.572M120.437 134.157C125.546 128.54 129.615 125.756 139.218 121.507M167.391 137.772C173.419 134.587 176.798 133.104 182.873 134.157M115.36 155.844C116.317 154.893 116.837 154.326 117.391 152.488M127.289 156.619C126.38 155.257 125.824 154.291 125.767 152.488M127.289 155.07C127.746 154.551 127.805 154.046 127.289 152.488M137.015 157.135C137.054 164.466 135.665 168.236 135.157 173.658C136.421 169.839 137.043 167.747 140.741 162.557V159.27M137.015 157.135C138.177 157.914 139.427 158.633 140.741 159.27M100.717 127.445L99.878 131.834L104.447 133.383C102.139 133.864 100.882 134.17 99.3706 135.448L99.878 142.355M115.36 119.475C125.259 113.798 113.584 109.114 111.278 95.2147M111.278 95.2147C97.3913 78.8188 83.7107 74.1276 79.8592 78.3914M197.594 116.489C195.783 116.231 193.932 115.988 192.046 115.763M197.594 116.489L201.12 98.7829M197.594 116.489C202.811 117.234 207.689 118.108 212.061 119.084M201.325 97.7546L201.12 98.7829M201.325 97.7546C201.258 98.102 201.19 98.4448 201.12 98.7829M186.241 125.121C186.84 124.742 187.575 124.469 188.457 124.347C194.041 123.572 195.817 133.899 187.949 133.899C187.684 133.899 187.43 133.87 187.188 133.815M186.241 125.121C184.992 125.911 184.331 127.164 184.155 128.477M186.241 125.121C189.415 125.506 191.146 128.428 189.472 131.369M187.188 133.815C185.047 133.326 183.841 130.805 184.155 128.477M187.188 133.815C188.252 133.036 188.998 132.202 189.472 131.369M184.155 128.477C185.36 126.821 189.472 127.187 189.472 131.369M204.193 124.347C206.025 121.958 210.792 125.121 208.508 129.51C208.335 129.573 208.166 129.624 208 129.664M204.193 124.347C203.82 125.016 203.667 125.729 203.696 126.412M204.193 124.347C205.776 124.993 206.315 125.464 206.874 126.412M203.696 126.412C203.786 128.475 205.548 130.256 208 129.664M203.696 126.412C204.732 125.318 205.987 125.473 206.874 126.412M208 129.664C208 128.268 207.541 127.118 206.874 126.412M157.239 136.481C155.587 136.481 155.17 135.194 155.436 133.899M157.239 136.481C157.623 136.446 157.96 136.373 158.254 136.268M157.239 136.481C156.206 135.411 155.816 134.809 156.935 133.705M155.436 133.899C155.66 132.805 156.372 132.17 157.239 131.834C159.806 130.914 161.478 135.141 158.254 136.268M155.436 133.899C155.884 133.671 156.429 133.612 156.935 133.705M158.254 136.268C158.95 134.821 158.037 133.905 156.935 133.705M137.374 136.268C138.769 135.257 139.54 133.335 138.457 130.801C136.061 126.951 132.101 128.866 131.203 131.834M137.374 136.268C136.076 137.208 134.239 137.359 132.851 136.481M137.374 136.268C137.454 135.359 137.404 134.564 137.212 133.899M131.203 131.834C130.932 132.728 130.939 133.717 131.35 134.674C131.703 135.494 132.233 136.09 132.851 136.481M131.203 131.834C134.748 131.057 136.632 131.886 137.212 133.899M132.851 136.481C131.35 133.705 134.65 130.801 137.212 133.899M113.584 131.083C114.103 131.326 114.708 131.426 115.36 131.317C119.55 129.254 115.77 124.608 113.584 125.696C113.399 125.786 113.23 125.883 113.076 125.987M113.584 131.083C116.376 129.252 115.695 125.874 113.076 125.987M113.584 131.083C112.225 130.448 111.45 128.838 111.921 127.445M113.076 125.987C112.477 126.393 112.105 126.903 111.921 127.445M113.076 125.987C114.946 125.906 115.828 127.606 115.162 129.252C114.156 127.478 113.463 126.82 111.921 127.445M116.883 142.161C120.944 141.128 123.736 149.131 118.914 150.681C118.581 150.804 118.254 150.794 117.941 150.681M116.883 142.161C116.071 142.483 115.623 143.261 115.454 144.226M116.883 142.161C119.021 142.902 119.908 145.148 119.384 147.582M117.941 150.681C116.295 150.082 115.037 146.594 115.454 144.226M117.941 150.681C118.684 149.681 119.161 148.615 119.384 147.582M115.454 144.226C117.307 144.252 118.251 144.662 119.384 147.582M123.736 184.502C126.476 181.941 134.396 186.567 129.827 193.28C129.007 193.916 128.136 194.153 127.289 194.092M123.736 184.502C122.436 185.716 122.085 187.332 122.352 188.891M123.736 184.502C125.63 184.563 128.622 187.624 128.713 190.698M127.289 194.092C124.953 193.924 122.797 191.486 122.352 188.891M127.289 194.092C128.35 193.073 128.747 191.885 128.713 190.698M122.352 188.891C123.029 186.805 125.513 186.567 128.713 190.698M143.188 184.502C143.047 183.721 143.068 182.996 143.279 182.436C145.31 176.24 155.716 177.014 153.939 186.825C153.266 187.702 152.601 188.381 151.952 188.891M143.188 184.502C143.296 185.101 143.5 185.733 143.787 186.349M143.188 184.502C144.874 179.141 151.656 179.251 152.058 186.349M151.952 188.891C148.288 191.766 145.13 189.235 143.787 186.349M151.952 188.891C152.071 187.961 152.102 187.115 152.058 186.349M143.787 186.349C146.422 180.086 150.833 182.436 152.058 186.349M154.23 201.541C152.352 200.987 150.806 199.69 151.147 198.185C151.207 198.003 151.275 197.831 151.352 197.669M154.23 201.541C156.542 202.224 159.357 201.781 159.777 199.218C159.777 196.861 156.755 195.163 154.23 195.554M154.23 201.541C154.705 201.45 155.114 201.301 155.462 201.108M154.23 195.554C153.035 195.74 151.951 196.394 151.352 197.669M154.23 195.554C157.203 195.798 158.062 199.667 155.462 201.108M151.352 197.669C154.654 195.017 154.94 197.172 155.438 200.928M155.462 201.108L155.438 200.928M155.462 201.108C155.454 201.047 155.446 200.987 155.438 200.928M142.648 173.658C143.083 173.526 143.55 173.276 144.041 172.884C146.833 169.786 142.01 166.429 140.234 168.753C140.026 168.99 139.864 169.252 139.743 169.527M142.648 173.658C141.574 173.985 140.697 173.597 140.138 172.884M142.648 173.658C142.946 172.637 143.058 171.774 143.023 171.076M139.743 169.527C139.25 170.654 139.456 172.012 140.138 172.884M139.743 169.527C141.449 168.366 142.916 168.955 143.023 171.076M140.138 172.884C140.138 171.076 141.503 169.527 143.023 171.076M186.626 205.93C186.434 206.256 186.354 206.604 186.426 206.963C186.924 209.412 193.533 208.512 193.533 204.639C193.39 204.331 193.122 204.111 192.772 203.969M186.626 205.93C187.36 206.558 188.659 207.202 189.98 206.86M186.626 205.93C187.226 204.915 188.916 204.11 190.487 203.85M192.772 203.969C191.985 205.781 190.977 206.601 189.98 206.86M192.772 203.969C192.18 203.727 191.351 203.706 190.487 203.85M189.98 206.86C190.995 205.93 191.229 204.585 190.487 203.85M198.355 177.48C198.948 176.879 199.639 176.504 200.386 176.498C205.668 177.406 202.631 186.379 198.863 186.309C198.476 186.265 198.139 186.158 197.848 186M198.355 177.48C200.178 177.774 201.735 180.704 200.285 183.469M198.355 177.48C197.7 178.146 197.166 179.089 196.814 180.113M197.848 186C199.035 185.237 199.817 184.361 200.285 183.469M197.848 186C196.152 185.077 196.031 182.393 196.814 180.113M200.285 183.469C200.285 180.887 198.863 179.338 196.814 180.113M204.193 197.669C203.278 195.807 205.986 193.165 208 192.399M204.193 197.669C205.226 196.938 206.079 196.45 206.731 195.673M204.193 197.669C205.12 198.989 208.784 197.641 209.879 195.345M208 192.399C208.779 192.102 209.455 192.086 209.777 192.505C210.338 193.523 210.283 194.498 209.879 195.345M208 192.399C207.757 194.006 207.329 194.961 206.731 195.673M206.731 195.673C207.861 196.191 208.502 196.116 209.879 195.345M211.807 179.596C215.614 179.854 217.137 172.367 213.076 171.851C212.719 171.842 212.386 171.936 212.081 172.109M211.807 179.596C210.086 179.158 209.767 176.717 210.351 174.691M211.807 179.596C212.233 179.109 212.563 178.587 212.805 178.047M212.081 172.109C211.282 172.563 210.677 173.563 210.351 174.691M212.081 172.109C213.365 173.718 213.717 176.01 212.805 178.047M210.351 174.691C212.08 174.154 212.805 174.949 212.805 178.047M197.086 168.753C199.371 164.622 194.728 163.735 193.787 165.397C193.688 165.555 193.603 165.712 193.533 165.865M197.086 168.753C195.97 169.604 194.547 169.364 193.787 168.502M197.086 168.753C196.978 167.648 196.595 166.818 196.071 166.291M193.533 165.865C193.038 166.947 193.242 167.884 193.787 168.502M193.533 165.865C194.419 165.424 195.371 165.587 196.071 166.291M193.787 168.502C193.485 167.235 195.075 165.79 196.071 166.291M216.883 163.073C220.69 161.524 219.204 155.47 216.376 156.619C216.121 156.722 215.902 156.901 215.719 157.135M216.883 163.073C216.032 163.073 215.462 162.29 215.188 161.266M216.883 163.073C217.577 161.779 217.688 160.658 217.47 159.717M215.719 157.135C214.986 158.071 214.819 159.887 215.188 161.266M215.719 157.135C216.482 157.726 217.211 158.592 217.47 159.717M215.188 161.266C215.258 159.344 216.874 158.509 217.47 159.717M219.421 141.386C222.213 138.03 219.177 133.718 216.883 134.674C216.549 134.813 216.325 135.087 216.191 135.448M219.421 141.386C218.349 142.237 216.996 140.415 216.376 138.441M219.421 141.386C219.497 140.226 219.424 139.248 219.228 138.441M216.191 135.448C215.912 136.205 216.031 137.346 216.376 138.441M216.191 135.448C217.643 135.604 218.771 136.555 219.228 138.441M216.376 138.441C217.1 137.441 217.711 137.391 219.228 138.441M79.8592 78.3914C85.22 69.8752 109.523 83.0383 126.02 116.211M106.475 67.8059C106.777 71.8407 107.456 73.9657 112.061 76.8421C114.094 75.3527 114.999 75.6181 115.868 78.133L120.183 78.7729M106.475 67.8059C110.863 70.1012 115.516 73.8008 120.183 78.7729M192.046 115.763C194.996 116.089 198.809 110.002 201.12 98.7829M222.941 143.99L222.816 147.582M222.941 143.99C223.728 145.308 225.171 146.967 226.59 146.9M221.874 166.687L222.213 164.88L222.762 149.131M221.874 166.687C224.244 163.589 228.051 162.556 228.051 155.328C231.858 146.137 230.309 142.04 229.066 144.226C228.48 145.817 227.77 146.583 227.036 146.819M222.816 147.582L222.762 149.131M222.816 147.582L226.59 146.9M227.036 146.819C226.888 146.867 226.739 146.893 226.59 146.9M227.036 146.819L226.59 146.9M222.762 149.131C226.495 149.306 227.934 148.391 229.574 145.414" stroke="black" stroke-width="0.5"/>
<defs>
<linearGradient id="paint0_linear_200_116" x1="146.701" y1="65.0603" x2="146.701" y2="213.949" gradientUnits="userSpaceOnUse">
<stop stop-color="#E98A5C"/>
<stop offset="1" stop-color="#DF5C61"/>
</linearGradient>
<linearGradient id="paint1_linear_200_116" x1="146.701" y1="65.0603" x2="146.701" y2="213.949" gradientUnits="userSpaceOnUse">
<stop stop-color="#E9885C"/>
<stop offset="1" stop-color="#E67B5E"/>
</linearGradient>
<linearGradient id="paint2_linear_200_116" x1="146.701" y1="65.0603" x2="146.701" y2="213.949" gradientUnits="userSpaceOnUse">
<stop stop-color="#E9895D"/>
<stop offset="1" stop-color="#E67A5E"/>
</linearGradient>
<linearGradient id="paint3_linear_200_116" x1="146.701" y1="65.0603" x2="146.701" y2="213.949" gradientUnits="userSpaceOnUse">
<stop stop-color="#C76BC9"/>
<stop offset="1" stop-color="white"/>
</linearGradient>
</defs>
</svg>
