<svg width="300" height="300" viewBox="0 0 300 300" fill="none" xmlns="http://www.w3.org/2000/svg">
<path d="M230.327 160.643H217.308H181.597C179.388 160.643 177.597 158.852 177.597 156.643V127.798C177.597 125.57 179.418 123.771 181.647 123.799L230.378 124.408C232.567 124.436 234.327 126.218 234.327 128.408V156.643C234.327 158.852 232.537 160.643 230.327 160.643Z" fill="#E31D3A" fill-opacity="0.4"/>
<path d="M219.113 150.71H232.007M230.459 146.216H228.139V148.581H230.459M230.459 146.216V148.581M230.459 146.216H232.007V148.581H230.459M226.849 148.581V146.216H225.302V148.345M221.95 146.216V148.581H223.755V146.453M184.946 158.987H187.654V157.805H182.238V158.987H184.946ZM184.946 158.987V158.041M203.383 158.987H198.226V157.095H203.383M203.383 158.987V157.095M203.383 158.987H209.056M203.383 157.095H209.056M209.056 158.987H213.956V157.095H209.056M209.056 158.987V157.095M210.346 128.951H231.491V127.532H230.459M183.528 133.918V136.519H184.559V146.216L185.848 137.702L186.364 145.743L187.138 141.722L188.169 147.399L188.943 128.478L189.974 152.365L190.748 128.478L191.522 145.743L192.553 140.776L193.327 146.216L194.358 133.918L195.39 147.872L196.163 129.897L196.421 142.669L197.452 138.175L197.968 144.088L198.742 139.83L200.031 150.237V132.262L201.32 145.034L201.836 138.648L202.61 146.926L203.383 132.972L204.157 143.378L204.673 139.594L205.446 146.453L206.22 133.681L207.251 145.034L207.767 139.594L208.283 141.959L208.541 140.067L209.056 141.249L209.572 140.067L209.83 141.013H210.346M208.799 137.938V133.208M210.346 133.681H212.667M232.007 132.262H227.365M227.365 132.262H226.076V133.327M227.365 132.262V134.391H226.076V133.327M224.786 133.327V134.391H222.981V132.262H224.786V133.327ZM224.786 133.327H226.076M219.113 135.337H214.987V135.81H211.377V136.519H216.277V140.067H217.308V136.046H218.082V140.067H219.113V135.81V135.337ZM219.113 135.337H220.661M220.661 135.337V140.54H221.95V135.337M220.661 135.337H221.95M221.95 135.337H223.497M223.497 135.337V140.54H225.302V135.337M223.497 135.337H225.302M225.302 135.337H227.365M227.365 135.337V140.54H227.881V135.337M227.365 135.337H227.881M227.881 135.337H229.428M229.428 135.337H232.007V140.067H229.428V135.337ZM227.881 141.959H225.302V144.088H227.881M227.881 141.959V144.088M227.881 141.959L229.944 144.088L232.007 141.959V144.088H227.881M203.799 150.71V154.494H210.77M203.799 150.71L210.77 154.494M203.799 150.71H210.77M217.741 150.71V154.494H210.77M217.741 150.71L210.77 154.494M217.741 150.71H210.77M210.77 154.494V150.71M217.308 160.643H230.328C232.537 160.643 234.327 158.852 234.327 156.643V128.408C234.327 126.218 232.567 124.436 230.378 124.408L181.647 123.799C179.418 123.771 177.597 125.57 177.597 127.798V156.643C177.597 158.852 179.388 160.643 181.597 160.643H217.308ZM228.654 153.075V154.73H231.491V153.075H228.654ZM223.497 153.075V154.73H226.334V153.075H223.497ZM224.013 157.095H227.365V158.987H224.013V157.095ZM222.208 157.095V158.987H222.981V157.095H222.208ZM221.176 157.095V158.987H216.277V157.095H221.176ZM182.238 153.548C180.691 153.548 180.433 155.913 182.238 155.676C184.043 155.44 183.785 153.548 182.238 153.548ZM189.974 157.805H196.421V158.751H189.974V157.805ZM209.572 126.113V127.532H212.409V126.113H209.572ZM213.956 126.113V127.532H221.176V126.113H213.956ZM222.723 126.113V127.532H228.139V127.059H229.428V126.586H228.139V126.113H222.723ZM181.207 125.167V127.532H184.946V127.059H186.364V125.64H184.946V125.167H181.207ZM188.169 125.64H187.654V127.059H188.169V127.532H193.842V127.059H194.358V125.64H193.842V125.167H188.169V125.64ZM184.946 128.478V131.316H187.138V128.478H184.946ZM180.433 133.918V137.229H181.207V133.918H180.433ZM216.793 132.972V133.918H217.308V132.972H216.793ZM219.113 132.499V134.391H219.629V132.262H219.113V132.499ZM220.661 131.316V134.864H221.176V131.316H220.661ZM193.327 151.858C193.864 151.384 194.236 151.389 195.145 152.365C195.463 151.563 195.715 151.29 196.421 151.419C196.522 153.084 196.243 153.743 195.145 154.494C193.738 153.943 193.497 153.257 193.327 151.858Z" stroke="#E31D3A" stroke-width="1.5"/>
</svg>
