<svg width="300" height="300" viewBox="0 0 300 300" fill="none" xmlns="http://www.w3.org/2000/svg">
<path d="M180.253 155.682C180.253 156.973 180.679 158.214 184.313 157.489C186.11 157 186.393 156.315 186.09 154.65C183.05 142.848 182.219 137.089 190.405 136.319C199.551 135.103 205.436 134.563 214.111 134.343C216.123 134.292 217.681 136.888 217.682 138.901C217.86 138.294 218.131 137.762 218.5 137.344C218.838 136.962 219.357 136.82 219.864 136.772C226.059 136.192 225.02 134.336 224.706 132.215C224.678 132.026 224.642 131.836 224.578 131.656C223.828 129.54 222.497 129.348 219.086 129.348C212.486 129.348 194.005 129.446 182.537 131.93C175.242 133.484 170.354 128.574 150.303 127.799C144.899 127.793 127.461 126.767 116.039 128.832C114.902 128.135 112.997 128.198 104.753 130.329C103.47 130.661 102.546 131.805 102.539 133.13C102.522 136.054 102.812 137.976 104.383 138.999C105.353 139.631 106.187 140.459 106.789 141.448C107.031 141.846 107.341 142.157 107.778 142.431C108.185 142.687 108.605 142.961 108.813 143.394C109.978 145.816 107.895 149.059 107.681 151.216C107.659 151.439 107.638 151.653 107.601 151.874C106.784 156.755 108.609 176.834 116.293 165.235C118.933 161.25 111.046 161.349 110.487 157.884C110.445 157.625 110.495 157.362 110.544 157.104C111.013 154.643 109.724 152.356 111.423 149.716C111.75 149.207 112.018 148.647 112.059 148.043C112.155 146.669 112.1 145.603 111.838 144.3C111.653 143.38 111.949 142.579 112.545 141.855C113.328 140.904 114.638 139.869 115.576 139.072C116.086 138.638 116.499 138.03 116.688 137.363C116.831 136.861 116.919 136.319 117.294 135.956C118.621 134.675 121.584 133.814 125.43 133.288C138.323 131.525 161.14 133.524 165.532 136.061C168.222 137.242 168.891 138.992 167.562 145.355L165.608 153.803C165.557 154.023 165.477 154.234 165.394 154.444C164.97 155.514 165.349 156.026 166.703 156.199C166.983 156.234 167.305 156.256 167.671 156.264C169.087 156.298 170.251 155.192 170.474 153.792C171.57 146.915 172.541 142.71 174.384 140.614C175.419 139.437 177.104 140.304 177.588 141.795C179.86 148.796 179.824 151.12 180.253 155.682Z" fill="white"/>
<path d="M167.562 145.355C168.891 138.992 168.222 137.242 165.532 136.061C161.14 133.524 138.323 131.525 125.43 133.288C126.752 135.442 120.946 140.941 119.296 141.893C119.157 141.973 119.006 142.016 118.85 142.053C116.78 142.545 116.244 143.065 116.293 144.323C116.039 154.133 158.679 165.235 166.703 156.199C165.349 156.026 164.97 155.514 165.394 154.444C165.477 154.234 165.557 154.023 165.608 153.803L167.562 145.355Z" fill="#00E16D" fill-opacity="0.3"/>
<path d="M211.471 156.199C220.176 152.969 222.78 151.074 220.249 147.617C220.153 147.487 220.041 147.366 219.927 147.252C217.796 145.115 216.952 141.387 217.682 138.901C217.681 136.888 216.123 134.292 214.111 134.343C205.436 134.563 199.551 135.103 190.405 136.319C182.219 137.089 183.05 142.848 186.09 154.65C186.393 156.315 186.11 157 184.313 157.489C189.635 161.166 207.41 157.705 211.471 156.199Z" fill="#00E16D" fill-opacity="0.3"/>
<path d="M184.313 157.489C189.635 161.166 207.41 157.705 211.471 156.199C220.176 152.969 222.78 151.074 220.249 147.617C220.153 147.487 220.041 147.366 219.927 147.252C217.796 145.115 216.952 141.387 217.682 138.901M184.313 157.489C180.679 158.214 180.253 156.973 180.253 155.682C179.824 151.12 179.86 148.796 177.588 141.795C177.104 140.304 175.419 139.437 174.384 140.614C172.541 142.71 171.57 146.915 170.474 153.792C170.251 155.192 169.087 156.298 167.671 156.264C167.305 156.256 166.983 156.234 166.703 156.199M184.313 157.489C186.11 157 186.393 156.315 186.09 154.65C183.05 142.848 182.219 137.089 190.405 136.319C199.551 135.103 205.436 134.563 214.111 134.343C216.123 134.292 217.681 136.888 217.682 138.901M217.682 138.901C217.86 138.294 218.131 137.762 218.5 137.344C218.838 136.962 219.357 136.82 219.864 136.772C226.059 136.192 225.02 134.336 224.706 132.215C224.678 132.026 224.642 131.836 224.578 131.656C223.828 129.54 222.497 129.348 219.086 129.348C212.486 129.348 194.005 129.446 182.537 131.93C175.242 133.484 170.354 128.574 150.303 127.799C144.899 127.793 127.461 126.767 116.039 128.832M116.039 128.832C113.701 129.88 113.584 132.128 114.263 137.352M116.039 128.832C114.902 128.135 112.997 128.198 104.753 130.329C103.47 130.661 102.546 131.805 102.539 133.13C102.522 136.054 102.812 137.976 104.383 138.999C105.353 139.631 106.187 140.459 106.789 141.448C107.031 141.846 107.341 142.157 107.778 142.431C108.185 142.687 108.605 142.961 108.813 143.394C109.978 145.816 107.895 149.059 107.681 151.216C107.659 151.439 107.638 151.653 107.601 151.874C106.784 156.755 108.609 176.834 116.293 165.235C118.933 161.25 111.046 161.349 110.487 157.884C110.445 157.625 110.495 157.362 110.544 157.104C111.013 154.643 109.724 152.356 111.423 149.716C111.75 149.207 112.018 148.647 112.059 148.043C112.155 146.669 112.1 145.603 111.838 144.3C111.653 143.38 111.949 142.579 112.545 141.855C113.328 140.904 114.638 139.869 115.576 139.072C116.086 138.638 116.499 138.03 116.688 137.363C116.831 136.861 116.919 136.319 117.294 135.956C118.621 134.675 121.584 133.814 125.43 133.288M166.703 156.199C165.349 156.026 164.97 155.514 165.394 154.444C165.477 154.234 165.557 154.023 165.608 153.803L167.562 145.355C168.891 138.992 168.222 137.242 165.532 136.061C161.14 133.524 138.323 131.525 125.43 133.288M166.703 156.199C158.679 165.235 116.039 154.133 116.293 144.323C116.244 143.065 116.78 142.545 118.85 142.053C119.006 142.016 119.157 141.973 119.296 141.893C120.946 140.941 126.752 135.442 125.43 133.288" stroke="#4C4C4C"/>
<path d="M105.82 136.297C104.351 136.525 103.59 138.595 104.888 139.32C105.694 139.771 106.218 140.316 106.68 141.116C107.045 141.748 107.568 142.172 108.435 142.565C108.76 142.712 109.082 142.886 109.304 143.165C110.694 144.908 109.963 147.854 108.376 150.556C108.089 151.045 107.912 151.596 107.906 152.163C107.851 157.406 108.194 159.965 109.948 162.395C112.807 165.395 113.318 166.356 110.673 165.25C109.843 164.903 109.029 165.685 109.608 166.374C112.875 170.26 118.559 164.649 116.461 162.862C115.837 162.33 115.032 161.99 114.465 161.397C111.805 158.615 110.529 161.978 110.459 155.263C110.455 154.862 110.369 154.461 110.235 154.082C109.552 152.154 109.943 151.063 111.229 149.513C111.388 149.323 111.53 149.115 111.635 148.891C112.184 147.72 112.378 146.839 112.33 146.021C112.237 144.414 112.22 142.289 113.119 140.954C113.303 140.681 113.504 140.411 113.728 140.16C114.751 139.017 115.971 137.605 116.923 136.401C120.897 131.375 137.629 132.123 153.857 133.479C164.039 134.331 167.816 135.057 168.567 140.192C168.07 145.614 166.019 151.513 165.278 154.65C165.247 154.762 165.222 154.865 165.206 154.958C165.009 156.097 166.801 154.984 167.179 153.892C172.107 139.648 170.946 136.218 166.031 134.099C165.87 134.03 165.735 133.958 165.579 133.88C160.849 131.518 124.245 128.267 116.407 133.996C115.302 134.804 114.066 135.777 112.696 135.784C110.096 135.796 108.103 135.943 105.82 136.297Z" fill="black" fill-opacity="0.3"/>
<path d="M217.347 134.042C218.183 134.018 218.793 134.839 218.518 135.63C218.167 136.642 219.218 137.572 220.18 137.099L223.409 135.514C224.334 135.059 225.157 133.892 224.358 133.241C223.788 132.776 222.789 132.727 221.37 132.705C195.636 133.182 183.625 134.086 183.598 139.188C184.77 137.213 193.016 134.744 217.347 134.042Z" fill="black" fill-opacity="0.3"/>
<path d="M176.7 139.159C179.045 144.892 180.507 153.875 180.507 156.973C180.507 157.586 182.572 157.876 183.812 157.458C184.302 157.294 184.272 156.71 183.886 156.367L183.329 155.871C182.817 155.415 182.475 154.785 182.361 154.109C179.6 137.707 178.553 138.232 176.727 139.145L176.7 139.159Z" fill="black" fill-opacity="0.3"/>
<g filter="url(#filter0_f_191_485)">
<path d="M137.056 156.713L147.208 132.96L153.553 133.477L143.655 158.52C141.131 157.931 139.662 157.534 137.056 156.713Z" fill="white" fill-opacity="0.2"/>
</g>
<g filter="url(#filter1_f_191_485)">
<path d="M194.162 158.778L204.061 135.026L210.66 134.768L201.015 158.262C197.969 158.52 196.954 159.036 194.162 158.778Z" fill="white" fill-opacity="0.2"/>
</g>
<defs>
<filter id="filter0_f_191_485" x="133.056" y="128.96" width="24.4971" height="33.5593" filterUnits="userSpaceOnUse" color-interpolation-filters="sRGB">
<feFlood flood-opacity="0" result="BackgroundImageFix"/>
<feBlend mode="normal" in="SourceGraphic" in2="BackgroundImageFix" result="shape"/>
<feGaussianBlur stdDeviation="2" result="effect1_foregroundBlur_191_485"/>
</filter>
<filter id="filter1_f_191_485" x="190.162" y="130.768" width="24.4971" height="32.0807" filterUnits="userSpaceOnUse" color-interpolation-filters="sRGB">
<feFlood flood-opacity="0" result="BackgroundImageFix"/>
<feBlend mode="normal" in="SourceGraphic" in2="BackgroundImageFix" result="shape"/>
<feGaussianBlur stdDeviation="2" result="effect1_foregroundBlur_191_485"/>
</filter>
</defs>
</svg>
