<svg width="300" height="300" viewBox="0 0 300 300" fill="none" xmlns="http://www.w3.org/2000/svg">
<path fill-rule="evenodd" clip-rule="evenodd" d="M79.5693 159.812C76.5233 158.521 77.4961 156.351 81.3459 154.907C92.4853 151.692 98.0667 149.934 107.459 146.974L108.502 146.646C116.709 144.034 118.835 144.735 118.908 149.744C119.67 171.689 162.817 180.983 169.162 146.129C172.995 145.945 174.775 146.456 174.492 148.711C173.477 175.303 214.848 180.725 219.924 149.744H224.873C225.311 148.122 224.908 147.417 224.873 145.613H219.924C214.34 122.377 188.452 119.021 176.015 139.417C175.598 140.873 175 141.74 168.401 141.74C162.309 116.181 126.776 119.021 119.67 139.933C117.515 140.239 83.2292 150.408 75.0004 153.358C73.477 154.132 76.7764 162.394 80.3304 161.103L79.5693 159.812ZM122.969 148.711C121.7 122.636 161.04 119.796 164.086 144.322C164.086 174.271 125 169.882 122.969 148.711ZM178.299 148.711C178.299 128.31 209.178 121.095 215.281 145.784C215.756 147.704 215.87 149.727 215.579 151.684C211.943 176.13 178.299 169.84 178.299 148.711Z" fill="#584968"/>
<path d="M178.299 148.711C178.299 128.31 209.178 121.095 215.281 145.784C215.756 147.704 215.87 149.727 215.579 151.684C211.943 176.13 178.299 169.84 178.299 148.711Z" fill="#584968" fill-opacity="0.6"/>
<path d="M122.969 148.711C121.7 122.636 161.04 119.796 164.086 144.322C164.086 174.271 125 169.882 122.969 148.711Z" fill="#584968" fill-opacity="0.6"/>
<path d="M108.502 146.646C116.709 144.034 118.835 144.735 118.908 149.744C119.67 171.689 162.817 180.983 169.162 146.129C172.995 145.945 174.775 146.456 174.492 148.711C173.477 175.303 214.848 180.725 219.924 149.744H224.873C225.311 148.122 224.908 147.417 224.873 145.613H219.924C214.34 122.377 188.452 119.021 176.015 139.417C175.598 140.873 175 141.74 168.401 141.74C162.309 116.181 126.776 119.021 119.67 139.933C117.515 140.239 83.2292 150.408 75.0004 153.358C73.477 154.132 76.7764 162.394 80.3304 161.103L79.5693 159.812C76.5233 158.521 77.4961 156.351 81.3459 154.907C92.4853 151.692 98.0667 149.934 107.459 146.974M108.502 146.646C108.149 146.757 107.802 146.867 107.459 146.974M108.502 146.646L107.459 146.974M122.969 148.711C121.7 122.636 161.04 119.796 164.086 144.322C164.086 174.271 125 169.882 122.969 148.711ZM178.299 148.711C178.299 128.31 209.178 121.095 215.281 145.784C215.756 147.704 215.87 149.727 215.579 151.684C211.943 176.13 178.299 169.84 178.299 148.711Z" stroke="black"/>
<g filter="url(#filter0_f_191_510)">
<path d="M90.9902 152.068L94.0359 147.42L106.472 143.806L104.188 148.195L90.9902 152.068Z" fill="#D9D9D9" fill-opacity="0.3"/>
<path d="M128.554 164.976C130.5 161.104 136.422 147.782 145.559 123.41C151.95 123.623 154.792 125.185 159.518 128.057L142.259 169.107C136.929 168.849 134.137 168.333 128.554 164.976Z" fill="#D9D9D9" fill-opacity="0.3"/>
</g>
<g filter="url(#filter1_f_191_510)">
<path d="M185.696 167.658C187.279 163.771 191.994 150.452 199.009 126.202C205.085 125.97 207.125 128.696 211.802 131.155L198.974 170.722C193.902 170.837 191.219 170.528 185.696 167.658Z" fill="#D9D9D9" fill-opacity="0.3"/>
</g>
<defs>
<filter id="filter0_f_191_510" x="82.9902" y="115.41" width="84.5283" height="61.697" filterUnits="userSpaceOnUse" color-interpolation-filters="sRGB">
<feFlood flood-opacity="0" result="BackgroundImageFix"/>
<feBlend mode="normal" in="SourceGraphic" in2="BackgroundImageFix" result="shape"/>
<feGaussianBlur stdDeviation="4" result="effect1_foregroundBlur_191_510"/>
</filter>
<filter id="filter1_f_191_510" x="177.696" y="118.188" width="42.1064" height="60.5542" filterUnits="userSpaceOnUse" color-interpolation-filters="sRGB">
<feFlood flood-opacity="0" result="BackgroundImageFix"/>
<feBlend mode="normal" in="SourceGraphic" in2="BackgroundImageFix" result="shape"/>
<feGaussianBlur stdDeviation="4" result="effect1_foregroundBlur_191_510"/>
</filter>
</defs>
</svg>
