<svg width="300" height="300" viewBox="0 0 300 300" fill="none" xmlns="http://www.w3.org/2000/svg">
<path d="M115.163 217.012C113.484 217.012 111.871 217.592 110.398 218.398C105.814 220.906 102.069 220.559 98.7971 223.329C105.696 228.025 109.384 230.772 115.163 236.167C119.697 239.663 116.898 245.513 115.139 250.142C114.289 252.38 114.781 254.944 116.92 256.018C123.579 259.361 138.491 259.568 153.709 271.266C155.966 268.513 158.141 265.774 160.204 263.066C159.022 261.905 157.861 260.776 156.723 259.676C150.716 253.871 145.328 248.902 140.573 244.628C120.611 226.684 111.807 220.982 115.163 217.012Z" fill="#7B4E3A"/>
<path d="M80.0626 233.722C89.41 239.423 104.568 270.152 91.9063 283.111C91.4418 283.586 90.9399 284.037 90.3989 284.463L89.7145 290.372L89.2898 294.04C96.194 296.35 104.755 297.459 114.086 297.024L110.856 287.92C111.004 287.932 111.148 287.941 111.287 287.948L109.349 283.036C105.889 283.323 105.123 282.926 104.611 281.814C104.267 281.329 104.112 280.851 104.149 280.387C104.289 278.622 107.21 277.08 113.009 276.312C114.333 276.136 115.357 276.396 116.024 276.888C117.687 278.117 117.129 280.796 113.44 281.814L115.594 287.319C115.733 287.275 115.876 287.229 116.024 287.181L119.039 296.653C129.039 295.624 139.71 292.843 150.04 287.92L149.797 282.064C149.679 279.227 150.284 276.406 151.555 273.866C143.588 265.919 129.591 263.881 114.732 258.583C110.417 256.682 109.74 255.882 110.856 252.47C114.086 244.319 115.537 240.394 112.579 237.798C105.208 231.294 101.603 228.938 95.3517 225.163L82.0007 229.647C77.7526 231.073 76.7409 232.084 77.0479 235.036C78.0072 234.594 79.0114 234.156 80.0626 233.722Z" fill="#7B4E3A"/>
<path d="M98.7971 223.329C96.1141 223.64 95.6979 224.144 95.3517 225.163C101.603 228.938 105.208 231.294 112.579 237.798C115.537 240.394 114.086 244.319 110.856 252.47C109.74 255.882 110.417 256.682 114.732 258.583C129.591 263.881 143.588 265.919 151.555 273.866C152.281 272.998 152.999 272.131 153.709 271.266C138.491 259.568 123.579 259.361 116.92 256.018C114.781 254.944 114.289 252.38 115.139 250.142C116.898 245.513 119.697 239.663 115.163 236.167C109.384 230.772 105.696 228.025 98.7971 223.329Z" fill="#99664A"/>
<path d="M155.001 285.372C154.441 280.606 153.709 277.127 161.676 271.829C168.156 268.087 172.405 265.353 180.23 260.226C178.776 260.034 177.921 258.654 177.18 257.768C177.18 259.194 172.512 262.096 168.998 264.493C159.849 269.167 156.335 271.951 154.165 274.843C152.165 277.509 151.562 280.937 151.559 284.27C151.558 284.81 151.557 285.37 151.557 285.977V285.978L151.555 287.181C152.709 286.605 153.858 286.003 155.001 285.372Z" fill="#9C674C"/>
<path d="M151.555 273.866C150.284 276.406 149.679 279.227 149.797 282.064L150.04 287.92C150.546 287.679 151.051 287.432 151.555 287.181L151.557 285.978V285.977C151.557 285.37 151.558 284.81 151.559 284.27C151.562 280.937 152.165 277.509 154.165 274.843C156.335 271.951 159.849 269.167 168.998 264.493C172.512 262.096 177.18 259.194 177.18 257.768C176.104 255.323 175.242 253.489 177.611 250.636H179.334L182.133 254.507C185.579 253.489 183.425 249.209 180.626 248.598C181.038 246.353 183.822 246.072 186.185 247.171C186.806 245.065 187.283 242.861 187.621 240.651C183.856 235.76 184.146 232.165 188.045 227.918C187.389 221.472 185.253 217.148 181.924 218.702C181.952 219.115 182.024 219.572 182.133 220.069C180.479 218.484 179.545 217.785 177.827 217.624C178.234 218.399 178.558 219.214 178.802 220.069C180.472 225.927 178.38 233.599 173.853 242.281C171.924 245.979 169.554 249.861 166.844 253.864C166.284 254.691 165.71 255.523 165.122 256.36C163.571 258.567 161.926 260.806 160.204 263.066C158.141 265.774 155.966 268.513 153.709 271.266C152.999 272.131 152.281 272.998 151.555 273.866Z" fill="#885943"/>
<path d="M165.768 276.312C172.031 270.621 175.385 267.738 178.903 267.346C179.049 267.501 179.192 267.654 179.334 267.805C181.562 264.663 182.499 262.916 184.071 259.806C182.571 260.257 181.297 260.367 180.23 260.226C172.405 265.353 168.156 268.087 161.676 271.829C153.709 277.127 154.441 280.606 155.001 285.372C158.319 283.541 161.585 281.477 164.762 279.165C164.394 278.04 164.625 277.217 165.768 276.312Z" fill="#885A42"/>
<path d="M178.903 294.652C177.239 296.036 176.27 296.079 174.596 294.652C174.474 294.514 174.354 294.379 174.235 294.244L166.414 299.339H178.257H181.918H209.051L207.974 282.017C209.294 278.77 209.304 275.756 208.673 271.829C208.453 270.461 208.156 268.983 207.809 267.346C207.673 266.705 207.53 266.04 207.381 265.348C207.38 265.345 207.379 265.341 207.378 265.337L207.328 265.104C207.974 255.526 208.325 244.638 207.328 232.499C207.035 231.263 206.563 230.719 205.175 230.054V249.413C207.328 251.655 206.682 255.323 202.59 256.138L200.437 266.938L201.729 268.364C201.616 268.647 201.504 268.919 201.394 269.179C201.119 272.971 200.771 275.743 200.222 277.819C200.09 278.315 199.947 278.771 199.791 279.192C198.994 281.337 197.852 282.561 196.13 283.444C194.468 281.983 193.786 280.731 193.62 279.192C193.573 278.76 193.567 278.306 193.591 277.819C193.622 277.178 193.706 276.481 193.818 275.7C192.705 278.25 191.652 279.783 189.67 282.017L189.701 282.062C190.521 283.267 190.99 283.957 189.67 285.685C185.847 289.756 183.448 291.666 178.903 294.652Z" fill="#784C38"/>
<path d="M241.136 299.339L230.8 270.606C230.2 267.736 229.132 265.521 225.632 260.213C223.114 253.237 222.369 252.316 220.894 250.024C221.256 245.006 219.819 241.965 216.885 239.224C214.577 237.069 211.342 235.099 207.328 232.499C208.325 244.638 207.974 255.526 207.328 265.104L207.378 265.337L207.381 265.348C207.53 266.04 207.673 266.705 207.809 267.346C208.156 268.983 208.453 270.461 208.673 271.829C209.304 275.756 209.294 278.77 207.974 282.017L209.051 299.339H218.095C221.971 299.339 223.263 299.339 228.216 299.339C231.661 299.339 238.121 299.339 241.136 299.339Z" fill="#F0E8D1"/>
<path d="M53.7913 275.497L45.1777 299.339H88.6762L89.101 295.671L89.2898 294.04L89.7145 290.372L90.3989 284.463C90.9399 284.037 91.4418 283.586 91.9063 283.111C104.568 270.152 89.41 239.423 80.0626 233.722C79.0114 234.156 78.0072 234.594 77.0479 235.036C59.6319 243.075 57.0214 252.647 57.0214 263.27C53.5253 267.175 53.2128 270.004 53.7913 275.497Z" fill="#F0E8D1"/>
<path d="M147.248 233.518C128.729 231.277 113.44 220.069 115.163 217.012C111.807 220.982 120.611 226.684 140.573 244.628C142.555 239.847 143.956 237.378 147.248 233.518Z" fill="#F0E8D1"/>
<path d="M117.747 206.024C115.045 206.406 113.997 209.132 116.279 212.733C115.681 213.858 115.336 214.635 115.213 215.809C115.176 216.166 115.159 216.561 115.163 217.012C113.44 220.069 128.729 231.277 147.248 233.518L148.325 232.499C148.251 231.431 148.223 230.388 148.262 229.443C148.35 227.294 148.786 225.65 149.832 225.367L148.971 224.552C148.754 224.531 148.539 224.51 148.325 224.487C147.061 223.392 146.565 221.985 146.243 219.661C146.135 218.888 146.047 218.012 145.956 217.012C145.709 215.84 145.102 215.67 143.803 215.586C143.585 215.573 143.37 215.56 143.157 215.547C141.266 215.43 139.552 215.299 137.989 215.151C137.546 215.108 137.116 215.065 136.697 215.02C136.177 214.964 135.675 214.905 135.189 214.844C132.497 214.505 130.325 214.085 128.495 213.548C127.657 213.302 126.891 213.032 126.179 212.733C124.688 212.107 123.437 211.358 122.269 210.454C120.737 209.268 119.348 207.816 117.747 206.024Z" fill="#F0E8D1"/>
<path d="M167.215 232.499C170.817 235.512 172.01 237.861 173.853 242.281C178.38 233.599 180.472 225.927 178.802 220.069C177.342 227.769 171.582 230.054 167.362 231.684C167.328 231.959 167.279 232.231 167.215 232.499Z" fill="#F0E8D1"/>
<path d="M162.107 237.594L162.174 237.759C164.531 243.524 165.873 246.808 165.122 256.36C165.71 255.523 166.284 254.691 166.844 253.864C169.554 249.861 171.924 245.979 173.853 242.281C172.01 237.861 170.817 235.512 167.215 232.499C166.929 233.697 166.335 234.824 165.346 235.76C164.542 236.519 163.478 237.153 162.107 237.594Z" fill="#F0E8D1"/>
<path d="M177.827 217.624L178.903 213.548C177.659 213.651 176.44 213.747 175.242 213.836C173.483 215.505 171.637 215.913 167.49 215.809C167.281 215.804 167.066 215.797 166.844 215.79C165.241 215.562 165.061 215.966 164.906 216.809C165.036 218.396 165.064 219.539 165.007 220.365C164.865 222.412 164.202 222.524 163.285 222.679C163.211 222.691 163.136 222.704 163.059 222.718C163.622 222.938 164.176 223.327 164.691 223.84C164.788 223.937 164.884 224.039 164.979 224.145C166.574 225.933 167.707 228.918 167.362 231.684C171.582 230.054 177.342 227.769 178.802 220.069C178.558 219.214 178.234 218.399 177.827 217.624Z" fill="#F0E8D1"/>
<path d="M147.248 233.518C143.956 237.378 142.555 239.847 140.573 244.628C145.328 248.902 150.716 253.871 156.723 259.676C157.152 250.117 156.656 245.587 154.785 238.613C154.647 238.649 154.503 238.67 154.355 238.678C152.86 238.756 150.933 237.459 149.664 235.76C148.907 234.747 148.384 233.592 148.325 232.499L147.248 233.518Z" fill="#F0E8D1"/>
<path d="M165.549 280.825L165.532 280.795C140.573 299.339 109.779 301.988 89.101 295.671L88.6762 299.339H166.414L174.235 294.244C170.119 289.577 168.307 286.613 165.768 281.202C165.692 281.073 165.619 280.947 165.549 280.825Z" fill="#764935"/>
<path d="M186.871 283.036L178.903 271.266C178.803 271.168 178.707 271.085 178.614 271.013C174.596 276.312 170.935 278.366 168.628 278.895C168.987 279.982 169.723 281.257 172.047 284.259L174.235 282.425C175.469 282.42 176.118 282.495 176.319 284.463L173.735 286.908L176.534 290.984C177.429 291.936 177.955 291.925 178.903 291.595L186.655 285.372C187.39 284.533 187.42 284.022 186.871 283.036Z" fill="#814F3A"/>
<path d="M183.771 263.881C182.569 265.883 181.616 267.138 180.23 268.772C183.804 272.661 186.065 275.578 188.994 280.795C189.215 281.189 189.44 281.596 189.67 282.017C191.652 279.783 192.705 278.25 193.818 275.7C194.011 275.258 194.206 274.786 194.408 274.274L183.771 263.881Z" fill="#794B37"/>
<path d="M200.437 266.938L199.145 265.512L196.997 262.862L195.344 260.825L194.022 259.194C192.9 264.9 188.378 265.715 186.655 265.104L184.244 263.078C184.082 263.359 183.925 263.626 183.771 263.881L194.408 274.274C198.057 274.804 199.595 273.423 201.394 269.179C201.504 268.919 201.616 268.647 201.729 268.364L200.437 266.938Z" fill="#774A3B"/>
<path d="M184.071 259.806C182.499 262.916 181.562 264.663 179.334 267.805C179.642 268.135 179.94 268.457 180.23 268.772C181.616 267.138 182.569 265.883 183.771 263.881C183.925 263.626 184.082 263.359 184.244 263.078C184.564 262.524 184.905 261.915 185.277 261.232L184.071 259.806Z" fill="#6F4134"/>
<path fill-rule="evenodd" clip-rule="evenodd" d="M174.596 294.652C176.27 296.079 177.239 296.036 178.903 294.652C183.448 291.666 185.847 289.756 189.67 285.685C190.99 283.957 190.521 283.267 189.701 282.062L189.67 282.017C189.44 281.596 189.215 281.189 188.994 280.795C186.065 275.578 183.804 272.661 180.23 268.772C179.94 268.457 179.642 268.135 179.334 267.805C179.192 267.654 179.049 267.501 178.903 267.346C175.385 267.738 172.031 270.621 165.768 276.312C164.625 277.217 164.394 278.04 164.762 279.165C164.918 279.643 165.183 280.177 165.532 280.795L165.549 280.825C165.619 280.947 165.692 281.073 165.768 281.202C168.307 286.613 170.119 289.577 174.235 294.244C174.354 294.379 174.474 294.514 174.596 294.652ZM168.352 277.819L176.319 271.266C177.274 270.694 177.847 270.429 178.614 271.013C178.707 271.085 178.803 271.168 178.903 271.266L186.871 283.036C187.42 284.022 187.39 284.533 186.655 285.372L178.903 291.595C177.955 291.925 177.429 291.936 176.534 290.984L173.735 286.908L172.012 288.335C170.464 288.041 170.111 287.453 169.859 286.093L172.047 284.259C169.723 281.257 168.987 279.982 168.628 278.895C168.509 278.534 168.432 278.194 168.352 277.819Z" fill="#D8B26C"/>
<path d="M192.039 256.749H190.532L192.47 259.194C192.288 259.829 192.094 260.366 191.88 260.825C191.428 261.798 190.891 262.419 190.209 262.862C189.494 263.328 188.619 263.6 187.517 263.881L185.277 261.232C184.905 261.915 184.564 262.524 184.244 263.078L186.655 265.104C188.378 265.715 192.9 264.9 194.022 259.194L192.039 256.749Z" fill="#6B4435"/>
<path d="M205.175 230.054C204.205 224.813 202.957 223.623 200.222 222.718C198.796 221.2 197.812 220.522 195.269 220.069C190.238 217.512 186.9 216.252 184.819 216.042C191.88 219.254 192.254 238.001 187.523 247.987C189.377 249.432 190.459 251.878 188.809 254.915L190.532 256.749H192.039L194.022 259.194L195.344 260.825C196.1 259.17 196.203 257.947 196.13 255.526C190.747 251.655 195.083 247.519 197.207 247.171C198.714 246.764 200.04 246.738 200.868 247.171C198.068 251.043 199.956 253.235 201.729 253.172V250.228C202.178 248.921 202.669 248.79 203.452 248.598L205.175 249.413V230.054Z" fill="#80523C"/>
<path d="M186.185 247.171C186.655 247.39 187.108 247.663 187.523 247.987C192.254 238.001 191.88 219.254 184.819 216.042C182.578 215.815 181.795 216.805 181.924 218.702C185.253 217.148 187.389 221.472 188.045 227.918C188.203 229.475 188.276 231.155 188.257 232.907C188.245 234.102 188.191 235.331 188.093 236.575C187.987 237.922 187.83 239.287 187.621 240.651C187.283 242.861 186.806 245.065 186.185 247.171Z" fill="#5C352C"/>
<path d="M188.045 227.918C184.146 232.165 183.856 235.76 187.621 240.651C187.83 239.287 187.987 237.922 188.093 236.575C186.655 235.76 187.086 232.907 188.257 232.907C188.276 231.155 188.203 229.475 188.045 227.918Z" fill="#664034"/>
<path d="M188.093 236.575C188.191 235.331 188.245 234.102 188.257 232.907C187.086 232.907 186.655 235.76 188.093 236.575Z" fill="black"/>
<path d="M201.394 269.179C199.595 273.423 198.057 274.804 194.408 274.274C194.206 274.786 194.011 275.258 193.818 275.7C193.706 276.481 193.622 277.178 193.591 277.819H200.222C200.771 275.743 201.119 272.971 201.394 269.179Z" fill="#55302A"/>
<path d="M196.13 283.444C197.852 282.561 198.994 281.337 199.791 279.192H193.62C193.786 280.731 194.468 281.983 196.13 283.444Z" fill="#55312A"/>
<path d="M193.62 279.192H199.791C199.947 278.771 200.09 278.315 200.222 277.819H193.591C193.567 278.306 193.573 278.76 193.62 279.192Z" fill="#18100B"/>
<path d="M165.532 280.795C165.183 280.177 164.918 279.643 164.762 279.165C161.585 281.477 158.319 283.541 155.001 285.372C153.858 286.003 152.709 286.605 151.555 287.181C151.051 287.432 150.546 287.679 150.04 287.92C139.71 292.843 129.039 295.624 119.039 296.653C117.368 296.825 115.715 296.948 114.086 297.024C104.755 297.459 96.194 296.35 89.2898 294.04L89.101 295.671C109.779 301.988 140.573 299.339 165.532 280.795Z" fill="#654234"/>
<path d="M173.735 286.908L176.319 284.463C176.118 282.495 175.469 282.42 174.235 282.425L172.047 284.259L169.859 286.093C170.111 287.453 170.464 288.041 172.012 288.335L173.735 286.908Z" fill="#C9A85E"/>
<path d="M176.319 271.266L168.352 277.819C168.432 278.194 168.509 278.534 168.628 278.895C170.935 278.366 174.596 276.312 178.614 271.013C177.847 270.429 177.274 270.694 176.319 271.266Z" fill="#6F4134"/>
<path d="M190.532 256.749L188.809 254.915C190.459 251.878 189.377 249.432 187.523 247.987C187.108 247.663 186.655 247.39 186.185 247.171C183.822 246.072 181.038 246.353 180.626 248.598L182.779 247.987C187.517 249.005 186.44 256.953 182.133 254.507L179.334 250.636C178.042 253.081 179.334 261.028 186.225 257.768L190.209 262.862C190.891 262.419 191.428 261.798 191.88 260.825C192.094 260.366 192.288 259.829 192.47 259.194L190.532 256.749Z" fill="#96A4A4"/>
<path d="M179.334 250.636H177.611C175.242 253.489 176.104 255.323 177.18 257.768C177.921 258.654 178.776 260.034 180.23 260.226C181.297 260.367 182.571 260.257 184.071 259.806L185.277 261.232L187.517 263.881C188.619 263.6 189.494 263.328 190.209 262.862L186.225 257.768C179.334 261.028 178.042 253.081 179.334 250.636Z" fill="#666A75"/>
<path d="M202.59 256.138C206.682 255.323 207.328 251.655 205.175 249.413L203.452 248.598C204.51 251.693 203.161 253.121 201.729 253.172C199.956 253.235 198.068 251.043 200.868 247.171C198.284 246.941 193.116 251.451 198.714 254.915L196.997 262.862L199.145 265.512L200.437 266.938L202.59 256.138Z" fill="#9DA4A4"/>
<path d="M200.868 247.171C200.04 246.738 198.714 246.764 197.207 247.171C195.083 247.519 190.747 251.655 196.13 255.526C196.203 257.947 196.1 259.17 195.344 260.825L196.997 262.862L198.714 254.915C193.116 251.451 198.284 246.941 200.868 247.171Z" fill="#696974"/>
<path d="M109.349 283.036L113.44 281.814C117.129 280.796 117.687 278.117 116.024 276.888C114.086 279.776 107.142 281.357 104.149 280.387C104.112 280.851 104.267 281.329 104.611 281.814C105.123 282.926 105.889 283.323 109.349 283.036Z" fill="#B6A074"/>
<path d="M113.009 276.312C107.21 277.08 104.289 278.622 104.149 280.387C107.142 281.357 114.086 279.776 116.024 276.888C115.357 276.396 114.333 276.136 113.009 276.312Z" fill="#927A60"/>
<path d="M115.594 287.319L113.44 281.814L109.349 283.036L111.287 287.948C112.912 288.035 113.981 287.827 115.594 287.319Z" fill="#C1AC7D"/>
<path fill-rule="evenodd" clip-rule="evenodd" d="M119.039 296.653L116.024 287.181C115.876 287.229 115.733 287.275 115.594 287.319C113.981 287.827 112.912 288.035 111.287 287.948C111.148 287.941 111.004 287.932 110.856 287.92L114.086 297.024C115.715 296.948 117.368 296.825 119.039 296.653ZM114.948 290.169H113.44V289.761V289.353H114.948V289.761V290.169ZM114.086 291.595H115.378V292.003V292.41H114.086V292.003V291.595ZM115.809 294.04H114.732V293.633V293.225H115.809V293.633V294.04ZM117.101 295.671H115.809V295.263V294.855H117.101V295.263V295.671Z" fill="#C1AC7D"/>
<path d="M180.626 248.598C183.425 249.209 185.579 253.489 182.133 254.507C186.44 256.953 187.517 249.005 182.779 247.987L180.626 248.598Z" fill="#666A75"/>
<path d="M203.452 248.598C202.669 248.79 202.178 248.921 201.729 250.228V253.172C203.161 253.121 204.51 251.693 203.452 248.598Z" fill="#696974"/>
<path d="M148.325 232.499C148.384 233.592 148.907 234.747 149.664 235.76C150.933 237.459 152.86 238.756 154.355 238.678C154.503 238.67 154.647 238.649 154.785 238.613C156.656 245.587 157.152 250.117 156.723 259.676C157.861 260.776 159.022 261.905 160.204 263.066C161.926 260.806 163.571 258.567 165.122 256.36C165.873 246.808 164.531 243.524 162.174 237.759L162.107 237.594C163.478 237.153 164.542 236.519 165.346 235.76C166.335 234.824 166.929 233.697 167.215 232.499C167.279 232.231 167.328 231.959 167.362 231.684C167.707 228.918 166.574 225.933 164.979 224.145C164.884 224.039 164.788 223.937 164.691 223.84C164.176 223.327 163.622 222.938 163.059 222.718C162.391 222.457 161.711 222.433 161.071 222.718C160.771 222.852 160.481 223.053 160.204 223.329C159.765 223.098 159.348 222.895 158.955 222.718C156.615 221.665 155.082 221.533 154.355 221.89C153.695 222.212 153.696 222.936 154.355 223.737C153.322 223.497 152.514 223.387 151.77 223.442C150.84 223.511 150.011 223.902 148.971 224.552L149.832 225.367C148.786 225.65 148.35 227.294 148.262 229.443C148.223 230.388 148.251 231.431 148.325 232.499Z" fill="#F0E8D1"/>
<path d="M53.7913 275.497L45.1777 299.339H88.6762M53.7913 275.497C53.2128 270.004 53.5253 267.175 57.0214 263.27M53.7913 275.497C55.2679 280.956 56.5602 283.921 61.1128 288.742M57.0214 263.27V268.364M57.0214 263.27C57.0214 252.647 59.6319 243.075 77.0479 235.036M58.0981 271.217C60.4668 280.591 63.0509 281.202 74.4638 278.757M64.3429 248.19C69.2402 248.138 75.1098 253.692 80.924 269.587M88.6762 299.339L89.101 295.671M88.6762 299.339H166.414M70.157 297.708L87.1688 285.482M91.9063 283.111C104.568 270.152 89.41 239.423 80.0626 233.722C79.0114 234.156 78.0072 234.594 77.0479 235.036M91.9063 283.111C91.4418 283.586 90.9399 284.037 90.3989 284.463L89.7145 290.372M91.9063 283.111C91.9582 276.861 91.8371 273.682 90.3989 270.606M90.3989 257.972C92.4871 263.83 93.913 266.983 93.629 274.07M89.7145 290.372C95.66 286.602 98.663 283.677 102.243 274.07M89.7145 290.372L89.2898 294.04M100.304 265.715C98.2759 244.087 89.7145 233.722 83.0774 231.073M189.67 282.017C191.652 279.783 192.705 278.25 193.818 275.7M189.67 282.017C189.44 281.596 189.215 281.189 188.994 280.795M189.67 282.017L189.701 282.062M189.67 282.017C189.68 282.033 189.691 282.048 189.701 282.062M89.2898 294.04L89.101 295.671M89.2898 294.04C96.194 296.35 104.755 297.459 114.086 297.024M164.762 279.165C164.394 278.04 164.625 277.217 165.768 276.312C172.031 270.621 175.385 267.738 178.903 267.346C179.049 267.501 179.192 267.654 179.334 267.805M164.762 279.165C164.918 279.643 165.183 280.177 165.532 280.795M164.762 279.165C161.585 281.477 158.319 283.541 155.001 285.372M165.532 280.795C140.573 299.339 109.779 301.988 89.101 295.671M165.532 280.795L165.549 280.825M165.532 280.795C165.538 280.805 165.544 280.815 165.549 280.825M166.414 299.339L174.235 294.244M166.414 299.339H178.257M174.235 294.244C170.119 289.577 168.307 286.613 165.768 281.202C165.692 281.073 165.619 280.947 165.549 280.825M174.235 294.244C174.354 294.379 174.474 294.514 174.596 294.652C176.27 296.079 177.239 296.036 178.903 294.652C183.448 291.666 185.847 289.756 189.67 285.685C190.99 283.957 190.521 283.267 189.701 282.062M220.894 250.024C222.369 252.316 223.114 253.237 225.632 260.213C229.132 265.521 230.2 267.736 230.8 270.606L241.136 299.339C238.121 299.339 231.661 299.339 228.216 299.339C223.263 299.339 221.971 299.339 218.095 299.339H209.051M220.894 250.024V261.028M220.894 250.024C221.256 245.006 219.819 241.965 216.885 239.224M207.328 232.499C208.325 244.638 207.974 255.526 207.328 265.104M207.328 232.499C211.342 235.099 214.577 237.069 216.885 239.224M207.328 232.499C207.035 231.263 206.563 230.719 205.175 230.054M207.328 265.104L207.378 265.337M207.328 265.104C207.345 265.182 207.362 265.26 207.378 265.337M209.051 299.339L207.974 282.017C209.294 278.77 209.304 275.756 208.673 271.829M209.051 299.339H181.918M208.673 271.829C211.397 268.476 212.911 265.79 215.511 259.194M208.673 271.829C208.453 270.461 208.156 268.983 207.809 267.346M207.809 267.346C209.627 263.416 210.586 260.931 211.635 253.489M207.809 267.346C207.673 266.705 207.53 266.04 207.381 265.348M216.885 239.224L215.511 247.375M214.003 285.685C215.608 282.379 216.723 280.518 220.894 277.127M210.343 296.689C214.473 288.395 218.03 285.566 226.924 284.259M77.0479 235.036C76.7409 232.084 77.7526 231.073 82.0007 229.647M82.0007 229.647C87.2146 227.896 90.1378 226.914 95.3517 225.163M82.0007 229.647L95.3517 225.163M95.3517 225.163C95.6979 224.144 96.1141 223.64 98.7971 223.329M95.3517 225.163C101.603 228.938 105.208 231.294 112.579 237.798C115.537 240.394 114.086 244.319 110.856 252.47C109.74 255.882 110.417 256.682 114.732 258.583C129.591 263.881 143.588 265.919 151.555 273.866M98.7971 223.329C102.069 220.559 105.814 220.906 110.398 218.398C111.871 217.592 113.484 217.012 115.163 217.012M98.7971 223.329C105.696 228.025 109.384 230.772 115.163 236.167C119.697 239.663 116.898 245.513 115.139 250.142C114.289 252.38 114.781 254.944 116.92 256.018C123.579 259.361 138.491 259.568 153.709 271.266M115.163 217.012C113.44 220.069 128.729 231.277 147.248 233.518M115.163 217.012C111.807 220.982 120.611 226.684 140.573 244.628M115.163 217.012C115.159 216.561 115.176 216.166 115.213 215.809C115.336 214.635 115.681 213.858 116.279 212.733M151.555 273.866C152.281 272.998 152.999 272.131 153.709 271.266M151.555 273.866C150.284 276.406 149.679 279.227 149.797 282.064L150.04 287.92M150.04 287.92C150.546 287.679 151.051 287.432 151.555 287.181M150.04 287.92C139.71 292.843 129.039 295.624 119.039 296.653M177.827 217.624C179.545 217.785 180.479 218.484 182.133 220.069M177.827 217.624L178.903 213.548C177.659 213.651 176.44 213.747 175.242 213.836C173.483 215.505 171.637 215.913 167.49 215.809C167.281 215.804 167.066 215.797 166.844 215.79C165.241 215.562 165.061 215.966 164.906 216.809C165.036 218.396 165.064 219.539 165.007 220.365C164.865 222.412 164.202 222.524 163.285 222.679C163.211 222.691 163.136 222.704 163.059 222.718M177.827 217.624C178.234 218.399 178.558 219.214 178.802 220.069M177.827 217.624C173.772 222.428 171.98 224.213 169.644 225.775M205.175 230.054C204.205 224.813 202.957 223.623 200.222 222.718C198.796 221.2 197.812 220.522 195.269 220.069C190.238 217.512 186.9 216.252 184.819 216.042M205.175 230.054V249.413M182.133 220.069C182.024 219.572 181.952 219.115 181.924 218.702M182.133 220.069C185.113 221.568 186.092 222.778 186.225 225.775M153.709 271.266C155.966 268.513 158.141 265.774 160.204 263.066M160.204 263.066C159.022 261.905 157.861 260.776 156.723 259.676M160.204 263.066C161.926 260.806 163.571 258.567 165.122 256.36M131.313 223.329C122.923 219.79 118.298 215.919 116.279 212.733M116.279 212.733C113.997 209.132 115.045 206.406 117.747 206.024C119.348 207.816 120.737 209.268 122.269 210.454C123.437 211.358 124.688 212.107 126.179 212.733C126.891 213.032 127.657 213.302 128.495 213.548C130.325 214.085 132.497 214.505 135.189 214.844C135.675 214.905 136.177 214.964 136.697 215.02C137.116 215.065 137.546 215.108 137.989 215.151C139.552 215.299 141.266 215.43 143.157 215.547C143.37 215.56 143.585 215.573 143.803 215.586C145.102 215.67 145.709 215.84 145.956 217.012C146.047 218.012 146.135 218.888 146.243 219.661C146.565 221.985 147.061 223.392 148.325 224.487M147.248 233.518C143.956 237.378 142.555 239.847 140.573 244.628M147.248 233.518L148.325 232.499M140.573 244.628C145.328 248.902 150.716 253.871 156.723 259.676M148.325 232.499C148.384 233.592 148.907 234.747 149.664 235.76M148.325 232.499C148.251 231.431 148.223 230.388 148.262 229.443M149.832 225.367C151.124 224.552 153.709 230.665 150.048 233.111M149.832 225.367L148.971 224.552M149.832 225.367C148.786 225.65 148.35 227.294 148.262 229.443M154.785 238.613C154.647 238.649 154.503 238.67 154.355 238.678M154.785 238.613C156.656 245.587 157.152 250.117 156.723 259.676M154.785 238.613C155.108 238.529 155.515 238.168 155.971 237.594M160.384 228.424C159.14 232.225 157.338 235.869 155.971 237.594M149.664 235.76C147.773 237.584 146.907 238.926 145.956 242.281M149.664 235.76C150.933 237.459 152.86 238.756 154.355 238.678M154.355 238.678C152.21 244.806 151.594 248.231 152.417 254.304M121.838 213.344C128.511 218.396 134.224 222.288 144.664 223.999M148.971 224.552C148.754 224.531 148.539 224.51 148.325 224.487M148.971 224.552C150.011 223.902 150.84 223.511 151.77 223.442C152.514 223.387 153.322 223.497 154.355 223.737C153.696 222.936 153.695 222.212 154.355 221.89C155.082 221.533 156.615 221.665 158.955 222.718C159.348 222.895 159.765 223.098 160.204 223.329C160.481 223.053 160.771 222.852 161.071 222.718C161.711 222.433 162.391 222.457 163.059 222.718M148.325 224.487C147.041 224.352 145.824 224.189 144.664 223.999M139.496 217.42C142.279 219.281 143.599 220.547 144.664 223.999M137.989 226.182C142.041 227.666 144.341 228.648 148.262 229.443M146.387 249.209C146.676 246.496 146.626 244.97 148.262 242.281M155.971 237.594C157.475 240.217 165.122 239.428 164.691 229.035M162.107 237.594C163.478 237.153 164.542 236.519 165.346 235.76M162.107 237.594L162.174 237.759M162.107 237.594C162.129 237.649 162.152 237.704 162.174 237.759M165.122 256.36C165.71 255.523 166.284 254.691 166.844 253.864M165.122 256.36C165.873 246.808 164.531 243.524 162.174 237.759M166.844 253.864C166.988 248.593 166.482 245.874 164.691 241.466M166.844 253.864C169.554 249.861 171.924 245.979 173.853 242.281M173.853 242.281C172.01 237.861 170.817 235.512 167.215 232.499M173.853 242.281C178.38 233.599 180.472 225.927 178.802 220.069M167.215 232.499C166.929 233.697 166.335 234.824 165.346 235.76M167.215 232.499C167.279 232.231 167.328 231.959 167.362 231.684M165.346 235.76C167.138 237.54 167.775 238.782 168.136 241.466M167.362 231.684C171.582 230.054 177.342 227.769 178.802 220.069M167.362 231.684C167.707 228.918 166.574 225.933 164.979 224.145M163.059 222.718C163.622 222.938 164.176 223.327 164.691 223.84M164.979 224.145C168.604 222.281 170.409 220.978 174.166 218.235M164.979 224.145C164.884 224.039 164.788 223.937 164.691 223.84M167.49 217.624C166.826 220.226 166.597 221.742 164.691 223.84M174.166 223.84C175.242 223.161 175.822 222.58 176.75 220.477M205.175 249.413C207.328 251.655 206.682 255.323 202.59 256.138L200.437 266.938M205.175 249.413L203.452 248.598M200.437 266.938L199.145 265.512M200.437 266.938L201.729 268.364M199.145 265.512L201.729 268.364M199.145 265.512L196.997 262.862M199.145 265.512L201.394 254.507M201.729 268.364C201.616 268.647 201.504 268.919 201.394 269.179M194.408 274.274L183.771 263.881M194.408 274.274C198.057 274.804 199.595 273.423 201.394 269.179M194.408 274.274C194.206 274.786 194.011 275.258 193.818 275.7M190.532 256.749H192.039L194.022 259.194M190.532 256.749L188.809 254.915C190.459 251.878 189.377 249.432 187.523 247.987M190.532 256.749L192.47 259.194C192.288 259.829 192.094 260.366 191.88 260.825M180.626 248.598C183.425 249.209 185.579 253.489 182.133 254.507M180.626 248.598L182.779 247.987C187.517 249.005 186.44 256.953 182.133 254.507M180.626 248.598C181.038 246.353 183.822 246.072 186.185 247.171M182.133 254.507L179.334 250.636M179.334 250.636H177.611C175.242 253.489 176.104 255.323 177.18 257.768M179.334 250.636C178.042 253.081 179.334 261.028 186.225 257.768L190.209 262.862M184.071 259.806C182.499 262.916 181.562 264.663 179.334 267.805M184.071 259.806L185.277 261.232M184.071 259.806C182.571 260.257 181.297 260.367 180.23 260.226M190.209 262.862C189.494 263.328 188.619 263.6 187.517 263.881L185.277 261.232M190.209 262.862C190.891 262.419 191.428 261.798 191.88 260.825M187.086 254.915L191.88 260.825M179.334 267.805C179.642 268.135 179.94 268.457 180.23 268.772M180.23 268.772C181.616 267.138 182.569 265.883 183.771 263.881M180.23 268.772C183.804 272.661 186.065 275.578 188.994 280.795M185.277 261.232C184.905 261.915 184.564 262.524 184.244 263.078M183.771 263.881C183.925 263.626 184.082 263.359 184.244 263.078M184.244 263.078L186.655 265.104C188.378 265.715 192.9 264.9 194.022 259.194M194.022 259.194L195.344 260.825M201.394 269.179C201.119 272.971 200.771 275.743 200.222 277.819M193.818 275.7C193.706 276.481 193.622 277.178 193.591 277.819M199.791 279.192C198.994 281.337 197.852 282.561 196.13 283.444C194.468 281.983 193.786 280.731 193.62 279.192M199.791 279.192H193.62M199.791 279.192C199.947 278.771 200.09 278.315 200.222 277.819M193.62 279.192C193.573 278.76 193.567 278.306 193.591 277.819M200.222 277.819H193.591M188.994 280.795C190.727 278.668 191.716 277.523 193.116 274.478M203.452 248.598C202.669 248.79 202.178 248.921 201.729 250.228V253.172M203.452 248.598C204.51 251.693 203.161 253.121 201.729 253.172M200.868 247.171C198.068 251.043 199.956 253.235 201.729 253.172M200.868 247.171C200.04 246.738 198.714 246.764 197.207 247.171C195.083 247.519 190.747 251.655 196.13 255.526C196.203 257.947 196.1 259.17 195.344 260.825M200.868 247.171C198.284 246.941 193.116 251.451 198.714 254.915L196.997 262.862M195.344 260.825L196.997 262.862M164.762 298.32C167.643 296.526 169.265 295.526 172.012 293.633M178.257 299.339C180.331 297.531 181.815 296.413 180.626 295.671M178.257 299.339H181.918M182.349 295.467C183.961 294.682 183.641 296.486 181.918 299.339M195.7 291.187C198.334 287.133 199.606 284.863 203.236 280.795M155.001 285.372C154.441 280.606 153.709 277.127 161.676 271.829C168.156 268.087 172.405 265.353 180.23 260.226M155.001 285.372C153.858 286.003 152.709 286.605 151.555 287.181M180.23 260.226C178.776 260.034 177.921 258.654 177.18 257.768M151.555 287.181L151.557 285.978M151.555 287.181C151.556 286.757 151.556 286.358 151.557 285.978M177.18 257.768C177.18 259.194 172.512 262.096 168.998 264.493C159.849 269.167 156.335 271.951 154.165 274.843C152.165 277.509 151.562 280.937 151.559 284.27C151.558 284.81 151.557 285.37 151.557 285.977V285.978M186.185 247.171C186.655 247.39 187.108 247.663 187.523 247.987M186.185 247.171C186.806 245.065 187.283 242.861 187.621 240.651M181.924 218.702C181.795 216.805 182.578 215.815 184.819 216.042M181.924 218.702C185.253 217.148 187.389 221.472 188.045 227.918M187.523 247.987C192.254 238.001 191.88 219.254 184.819 216.042M188.045 227.918C184.146 232.165 183.856 235.76 187.621 240.651M188.045 227.918C188.203 229.475 188.276 231.155 188.257 232.907M187.621 240.651C187.83 239.287 187.987 237.922 188.093 236.575M188.257 232.907C188.245 234.102 188.191 235.331 188.093 236.575M188.257 232.907C187.086 232.907 186.655 235.76 188.093 236.575M139.066 256.36C141.564 258.084 142.848 259.238 144.664 262.047C140.66 258.827 138.396 257.817 134.328 256.749M147.679 263.066C145.814 261.006 144.488 259.991 142.942 258.492M150.478 265.715C151.458 266.098 152.005 266.308 153.063 267.346M124.422 255.526C126.302 255.971 127.465 256.381 130.021 257.768M141.865 250.636C143.779 253.289 144.785 254.481 146.387 255.934M167.49 257.36C165.484 259.965 164.397 261.356 162.107 264.493M169.644 255.526C170.443 254.376 170.95 253.951 172.012 253.864M170.505 255.934C171.536 255.648 171.894 255.366 172.228 254.711M95.1364 237.594C93.1088 234.45 91.8684 232.87 89.3222 230.665M95.9977 236.983C94.9846 234.632 94.0302 233.342 91.9063 231.073M102.673 249.413C102.9 254.389 102.935 257.094 102.673 261.64M147.679 278.553C144.28 278.749 141.456 277.1 136.266 273.866M173.735 286.908L176.534 290.984C177.429 291.936 177.955 291.925 178.903 291.595L186.655 285.372C187.39 284.533 187.42 284.022 186.871 283.036L178.903 271.266C178.803 271.168 178.707 271.085 178.614 271.013M173.735 286.908L176.319 284.463C176.118 282.495 175.469 282.42 174.235 282.425L172.047 284.259M173.735 286.908L172.012 288.335C170.464 288.041 170.111 287.453 169.859 286.093L172.047 284.259M172.047 284.259C169.723 281.257 168.987 279.982 168.628 278.895M168.628 278.895C168.509 278.534 168.432 278.194 168.352 277.819L176.319 271.266C177.274 270.694 177.847 270.429 178.614 271.013M168.628 278.895C170.935 278.366 174.596 276.312 178.614 271.013M184.933 283.648C182.265 286.841 180.629 288.033 177.611 289.761M119.039 296.653L116.024 287.181C115.876 287.229 115.733 287.275 115.594 287.319M119.039 296.653C117.368 296.825 115.715 296.948 114.086 297.024M114.086 297.024L110.856 287.92C111.004 287.932 111.148 287.941 111.287 287.948M115.594 287.319L113.44 281.814M115.594 287.319C113.981 287.827 112.912 288.035 111.287 287.948M113.44 281.814L109.349 283.036M113.44 281.814C117.129 280.796 117.687 278.117 116.024 276.888M109.349 283.036L111.287 287.948M109.349 283.036C105.889 283.323 105.123 282.926 104.611 281.814C104.267 281.329 104.112 280.851 104.149 280.387M104.149 280.387C104.289 278.622 107.21 277.08 113.009 276.312C114.333 276.136 115.357 276.396 116.024 276.888M104.149 280.387C107.142 281.357 114.086 279.776 116.024 276.888M107.411 279.572C109.703 278.541 110.98 278.114 113.225 277.942M113.44 289.761V289.353H114.948V289.761M113.44 289.761V290.169H114.948V289.761M113.44 289.761H114.948M114.086 292.003V292.41H115.378V292.003M114.086 292.003V291.595H115.378V292.003M114.086 292.003H115.378M114.732 293.633V293.225H115.809V293.633M114.732 293.633V294.04H115.809V293.633M114.732 293.633H115.809M115.809 295.263V294.855H117.101V295.263M115.809 295.263V295.671H117.101V295.263M115.809 295.263H117.101M207.378 265.337L207.381 265.348M207.378 265.337C207.379 265.341 207.38 265.345 207.381 265.348" stroke="black"/>
<path d="M102.243 274.732C104.611 269.433 104.833 260.208 102.673 251.909C102.716 264.111 102.33 268.446 98.3664 255.984C99.5848 263.383 100.031 267.497 100.089 274.732C100.93 275.641 101.401 275.936 102.243 274.732Z" fill="black" fill-opacity="0.15"/>
<path d="M166.844 232.346C172.493 230.326 175.245 228.415 178.382 222.565C171.284 228.416 168.367 228.47 164.59 225.107C165.933 226.384 166.504 227.678 166.724 229.697C166.807 230.463 166.839 231.333 166.844 232.346Z" fill="black" fill-opacity="0.15"/>
<path fill-rule="evenodd" clip-rule="evenodd" d="M55.9448 287.773C55.7823 292.57 56.2238 295.25 57.8829 300H45.1777L53.3606 275.954V269.433L57.0214 262.913C55.0583 251.767 63.2956 241.129 76.1865 235.939C74.8658 231.542 79.2765 229.542 94.4903 226.64C94.4899 226.247 94.5202 225.91 94.5951 225.621C101.062 229.397 104.065 231.764 109.349 236.014C115.475 240.497 114.625 242.468 112.935 246.385C112.478 247.443 111.96 248.644 111.502 250.075C111.28 250.607 111.07 251.098 110.876 251.552L110.875 251.553C109.881 253.876 109.302 255.227 109.687 256.256C110.222 257.687 112.618 258.494 118.348 260.424C118.775 260.568 119.221 260.718 119.685 260.875C135.99 265.452 143.035 268.371 151.124 274.324C148.927 276.621 149.235 280.817 150.048 288.792L147.894 289.404L147.464 282.068C138.494 279.069 135.49 276.872 131.959 272.49L143.372 277.788C147.679 279.826 148.006 279.861 148.54 275.139C138.206 269.32 131.413 266.785 118.393 262.913C107.841 259.774 106.061 257.062 109.349 249.056C113.299 241.41 110.662 239.573 103.311 234.449C101.846 233.427 100.192 232.275 98.3664 230.92L94.4903 233.365C95.8796 235.087 96.4972 236.12 96.8591 238.256L95.7824 237.848C96.8196 240.201 97.1822 241.361 97.7204 243.35L91.2603 234.588L87.3842 235.939C96.3037 251.546 99.0125 260.875 99.0125 275.139L104.611 276.973L112.148 268.007C110.146 272.038 109.034 274.311 107.195 278.603C105.404 278.86 104.693 279.413 103.75 281.049C103.963 284.728 105.366 285.174 109.349 284.106L113.44 297.555H110.425C110.218 296.664 110.385 296.319 111.071 295.925C109.04 292.61 108.741 290.94 108.272 287.977C102.552 288.95 101.515 286.929 100.735 282.068C98.7377 285.997 97.2668 287.861 94.4903 291.034L100.735 289.2C103.558 288.011 103.955 288.226 103.319 289.608C101.555 293.627 102.044 295.897 107.841 300H88.4609H81.3547L83.9387 293.683L71.0184 300H66.2809C69.5141 297.807 72.3541 295.936 74.8382 294.3L74.839 294.299C89.8924 284.384 91.8794 283.075 89.1069 270.656L90.3989 269.433C88.889 259.616 86.926 254.25 82.6467 244.776C86.3754 250.277 88.2388 253.646 91.2603 260.06C89.3222 246.61 84.6008 241.859 78.5553 239.071L71.0184 244.369L74.0331 248.648L69.0804 245.795L67.3576 249.056C74.0023 255.068 76.7395 259.768 80.0628 270.249C66.7118 249.667 63.2664 248.852 61.113 269.433C62.4205 274.346 65.641 276.363 75.9714 278.603C64.112 283.693 60.2514 280.438 56.3755 270.656C54.4429 276.663 55.9445 284.106 64.9891 290.83C61.5364 291.428 59.5629 290.91 55.9448 287.773ZM97.7204 223.991C101.69 222.617 104.501 221.286 106.835 220.181C109.691 218.829 111.834 217.814 114.517 217.47C114.682 215.602 115.026 214.925 116.24 214.414C113.871 210.746 113.499 207.951 116.67 206.262C116.723 206.282 116.775 206.301 116.826 206.319L116.827 206.319C118.081 206.774 118.83 207.046 119.685 209.523C124.127 214.201 130.291 214.921 141.585 216.241C142.703 216.372 143.872 216.508 145.095 216.655C145.357 219.978 145.787 221.851 147.248 225.214C144.223 219.974 143.671 220.072 144.449 224.806L141.865 224.195C139.977 219.432 136.325 218.426 131.553 217.112C128.158 216.177 124.197 215.086 119.9 212.376C121.236 217.114 124.169 219.684 131.313 224.195C132.182 225.341 132.381 225.814 131.313 225.825L128.945 224.195C119.47 218.897 115.163 219.1 129.16 226.64C136.617 231.162 140.107 232.084 145.741 232.346C146.202 232.028 146.186 231.848 145.741 231.531C140.573 230.512 137.497 228.548 136.481 226.233L136.673 226.312C140.272 227.799 142.35 228.657 145.741 229.289C146.62 227.172 147.353 226.709 148.563 225.947C148.626 225.907 148.69 225.867 148.756 225.825C151.699 225.947 152.749 227.645 152.632 236.014C154.61 238.178 156.091 236.494 159.092 230.716C160.276 228.01 160.732 226.493 159.092 223.787C162.064 223.936 162.968 227.455 160.599 230.716C159.856 233.896 159.41 235.62 157.8 237.033C159.426 237.89 163.399 236.014 164.26 229.697C163.315 236.625 165.552 237.644 166.724 229.697C166.807 230.463 166.839 231.333 166.844 232.346C172.493 230.326 175.245 228.415 178.382 222.565C178.454 222.431 178.526 222.295 178.598 222.157C179.7 228.445 177.201 235.722 172.596 244.165C170.41 248.175 167.748 252.448 164.771 257.003C163.307 259.244 161.766 261.552 160.169 263.932L153.063 272.49L150.694 270.249L158.231 262.301L156.508 260.72L151.555 256.173L145.741 250.836L122.269 229.289C116.524 227.145 113.299 226.752 107.626 227.252C109.276 228.824 110.16 230.568 111.717 234.18C106.859 230.326 103.907 228.119 97.7204 223.991ZM164.26 224.806C164.375 224.907 164.485 225.007 164.59 225.107C164.481 225.009 164.371 224.909 164.26 224.806ZM158.231 260.06C161.817 259.258 163.081 257.893 164.771 254.762C165.178 250.301 165.035 247.699 163.614 242.739C160.599 240.09 157.19 240.285 157.154 241.924C156.785 248.796 157.303 252.686 158.223 259.592L158.231 259.652V260.06ZM166.724 249.871L163.614 239.478C166.001 237.636 167.096 238.937 168.782 244.98L166.724 249.871ZM172.265 241.312C171.412 237.622 169.052 234.563 166.844 233.569C166.474 234.245 166.087 234.855 165.684 235.403C168.339 238.042 169.143 239.971 169.428 244.165C170.259 243.828 170.735 243.114 171.161 242.476C171.508 241.956 171.821 241.487 172.265 241.312ZM177.396 227.863L169.859 233.569C171.968 235.46 172.885 236.584 173.304 238.867L177.396 227.863ZM151.555 252.724C147.739 250.209 147.888 247.5 149.832 241.72H153.493C151.797 245.3 151.229 247.601 151.555 252.724ZM154.139 246.814C152.632 246.814 152.201 254.965 154.139 255.373C155.647 255.373 155.578 248.303 154.139 246.814ZM145.741 248.444C141.646 245.758 142.729 242.849 146.172 237.033L147.248 238.867C144.664 243.817 144.022 245.633 147.679 243.146L145.741 248.444ZM128.945 231.938L139.065 241.924L142.942 236.014C137.536 234.749 134.483 233.879 128.945 231.938Z" fill="black" fill-opacity="0.15"/>
<path d="M152.632 224.195C154.285 226.011 154.827 227.409 155.001 230.716C157.154 228.882 158.795 224.919 154.139 222.565C153.905 223.709 153.685 224.225 152.632 224.195Z" fill="black" fill-opacity="0.15"/>
<path d="M206.467 232.346C209.402 250.412 205.605 261.894 209.051 277.788C207.357 282.657 207.281 287.039 209.051 299.796H217.449C218.667 297.018 219.72 295.08 220.966 293.276C221.973 291.818 223.106 290.448 224.555 288.792C219.233 289.771 217.303 291.757 215.08 296.944C212.509 297.356 211.783 296.936 210.773 295.925C214.219 288.181 218.095 286.755 227.354 284.513C222.186 283.29 213.357 288.181 214.219 285.94C218.164 284.384 220.409 283.262 224.555 280.234C220.185 280.052 217.727 280.984 213.357 285.94C207.543 277.788 214.865 271.268 215.941 257.411C207.543 270.452 212.711 259.245 212.281 243.554C209.912 257.207 211.204 241.108 207.974 233.772L206.467 232.346Z" fill="black" fill-opacity="0.15"/>
<path d="M209.051 277.788C205.605 261.894 209.402 250.412 206.467 232.346L204.529 230.308C205.551 237.063 205.901 241.058 204.744 249.871C206.534 252.18 206.467 256.173 201.514 257.003C201.712 259.364 201.39 261.276 199.576 266.377C201.131 268.271 201.751 269.338 201.514 271.268L204.744 264.747C206.251 280.234 204.79 276.9 194.838 292.46C198.931 289.839 201.265 288.493 204.744 284.106L205.39 299.796H209.051C207.281 287.039 207.357 282.657 209.051 277.788Z" fill="black" fill-opacity="0.15"/>
<path d="M182.133 266.377L192.254 277.788L193.762 274.324L183.425 263.932L182.133 266.377Z" fill="black" fill-opacity="0.15"/>
<path d="M186.009 247.833L187.301 241.72L186.009 239.478C184.059 241.199 183.518 242.878 184.071 247.833H186.009Z" fill="black" fill-opacity="0.15"/>
<path d="M177.396 259.041L172.596 262.301C175.027 259.041 172.797 256.024 175.027 252.724L175.888 253.335C175.108 256.061 175.383 257.336 177.396 259.041Z" fill="black" fill-opacity="0.15"/>
<path d="M175.888 294.091C170.609 287.668 168.52 284.102 165.983 277.788C164.725 277.077 164.329 277.348 164.26 279.215C170.013 290.701 173.735 297.962 177.396 296.128C183.426 292.04 186.637 289.711 190.316 285.124C189.642 284.342 189.268 284.432 188.593 285.124C183.854 290.071 181.072 292.123 175.888 294.091Z" fill="black" fill-opacity="0.15"/>
<path d="M190.316 285.124C186.637 289.711 183.426 292.04 177.396 296.128C178.894 296.828 179.865 297.058 182.995 295.721C186.653 292.584 188.45 290.611 190.962 286.551L190.316 285.124Z" fill="black" fill-opacity="0.15"/>
<path d="M220.248 251.501C222.786 251.414 222.315 254.519 220.248 262.098C220.377 257.957 220.161 255.636 220.248 251.501Z" fill="black" fill-opacity="0.15"/>
<path d="M235.968 284.513C230.461 291.495 228.236 295.029 223.478 299.796H229.454C233.246 294.989 233.35 292.879 236.704 287.366C235.938 286.633 236.455 285.147 235.968 284.513Z" fill="white" fill-opacity="0.15"/>
<path d="M233.599 277.788L224.555 288.792C223.106 290.448 221.973 291.818 220.966 293.276C219.921 295.579 219.742 296.669 220.248 298.166L235.107 282.657C234.789 281.566 233.46 279.064 233.599 277.788Z" fill="white" fill-opacity="0.15"/>
</svg>
