<svg width="300" height="301" viewBox="0 0 300 301" fill="none" xmlns="http://www.w3.org/2000/svg">
<path d="M82.1711 270.471L77.8918 288.146C75.6955 289.056 73.6746 289.797 71.7785 290.371L69.9446 299.719H93.99H148.602C145.403 281.163 143.555 269.892 140.858 259.108C133.426 256.689 127.061 254.524 121.376 252.222L121.092 252.375C104.625 259.11 96.3304 263.133 82.1711 270.471Z" fill="#393B49"/>
<path d="M173.666 287.514L181.42 293.196C180.687 282.358 179.769 274.828 178.356 265.21L170.406 271.523V272.365H157.976V271.523L144.697 265.21L150.157 294.879L159.606 287.514H173.666Z" fill="#393B49"/>
<path d="M151.047 299.719H181.817C181.762 298.708 181.705 297.727 181.648 296.773L172.24 290.25H160.421L150.737 298.035L151.047 299.719Z" fill="#393B49"/>
<path d="M241.116 299.719C240.829 294.997 240.413 292.428 238.671 288.146C234.629 288.301 232.313 288.057 227.667 284.148L222.98 265.842C211.304 259.135 204.649 255.563 191.395 251.592C187.398 255.021 182.944 257.666 179.372 258.688C181.92 274.349 183.178 283.241 184.466 299.719H220.127H241.116Z" fill="#393B49"/>
<path d="M228.482 254.479V251.113C221.146 244.8 212.497 240.71 201.787 235.331C201.69 236.839 201.269 238.397 200.597 239.961C199.126 243.383 196.449 246.836 193.313 249.85C204.478 252.907 211.166 256.781 222.98 263.106V263.738C223.518 263.693 224.008 263.453 224.519 262.896C225.563 261.759 226.692 259.299 228.482 254.479Z" fill="#393B49"/>
<path d="M234.391 263.738L228.482 254.479C226.692 259.299 225.563 261.759 224.519 262.896L229.704 282.044C233.548 285.063 235.703 286.365 239.547 285.831C239.863 283.798 239.461 280.975 238.671 276.573C234.391 278.887 230.927 265 234.391 263.738Z" fill="#393B49"/>
<path d="M240.179 274.258C241.17 271.154 240.323 266.375 237.448 264.511C237.071 266.88 237.043 271.464 240.179 274.258Z" fill="#617090"/>
<path d="M240.179 274.258C237.043 271.464 237.071 266.88 237.448 264.511C237.08 264.272 236.68 264.082 236.246 263.948C235.845 269.269 236.295 271.899 239.735 275.31C239.91 274.99 240.058 274.637 240.179 274.258Z" fill="#647B99"/>
<path d="M236.246 263.948C235.684 263.775 235.066 263.698 234.391 263.738C230.927 265 234.391 278.887 238.671 276.573C239.095 276.263 239.451 275.831 239.735 275.31C236.295 271.899 235.845 269.269 236.246 263.948Z" fill="#2B2934"/>
<path d="M91.7485 233.017C85.717 233.017 73.6846 239.912 62.192 247.536L74.0201 251.744L98.8807 239.439C96.4959 237.523 94.1376 235.401 91.7485 233.017Z" fill="#393B49"/>
<path fill-rule="evenodd" clip-rule="evenodd" d="M58.3294 254.69C57.5245 255.2 56.7446 255.838 55.9944 256.583C50.0941 262.444 46.0272 274.915 46.0821 283.727C60.6556 291.437 66.7993 290.965 75.854 285.621L79.7258 268.067C71.9654 260.559 66.2803 256.408 58.3294 254.69ZM50.9935 275.731C49.9746 272.365 50.5733 268.012 55.4765 266.894C70.9634 266.263 56.9029 291.723 50.9935 275.731Z" fill="#393B49"/>
<path d="M71.7785 290.371C62.2873 293.243 55.921 291.939 46.3066 286.883L42.7551 299.719H69.9446L71.7785 290.371Z" fill="#393B49"/>
<path d="M82.1711 270.471C81.3313 269.634 80.5177 268.833 79.7258 268.067L75.854 285.621C66.7993 290.965 60.6556 291.437 46.0821 283.727C46.089 284.845 46.1623 285.904 46.3066 286.883C55.921 291.939 62.2873 293.243 71.7785 290.371C73.6746 289.797 75.6955 289.056 77.8918 288.146L82.1711 270.471Z" fill="#292936"/>
<path d="M50.9935 275.731C49.9746 272.365 50.5733 268.012 55.4765 266.894C63.22 268.788 54.8652 282.044 50.9935 275.731Z" fill="#434759"/>
<path d="M55.4765 266.894C63.22 268.788 54.8652 282.044 50.9935 275.731C55.6803 285.621 67.0917 268.788 55.4765 266.894Z" fill="#414052"/>
<path d="M50.9935 275.731C56.9029 291.723 70.9634 266.263 55.4765 266.894C67.0917 268.788 55.6803 285.621 50.9935 275.731Z" fill="#3A3948"/>
<path d="M82.1711 270.471C96.3304 263.133 104.625 259.11 121.092 252.375L121.376 252.222C120.378 251.817 119.401 251.409 118.443 250.994C105.469 255.921 97.3531 259.58 81.4998 267.525L82.1711 270.471Z" fill="#292532"/>
<path fill-rule="evenodd" clip-rule="evenodd" d="M55.9944 253.006V251.744C58.0158 250.342 60.0949 248.927 62.192 247.536L74.0201 251.744L98.8807 239.439C104.922 244.293 111.134 247.829 118.443 250.994C105.469 255.921 97.3531 259.58 81.4998 267.525L81.356 266.894C68.1074 253.628 63.0517 253.03 57.7551 252.404C57.6749 252.394 57.5946 252.385 57.5143 252.375L55.9944 253.006Z" fill="#393B49"/>
<path d="M55.9944 256.583C56.7446 255.838 57.5245 255.2 58.3294 254.69C66.2803 256.408 71.9654 260.559 79.7258 268.067C80.5177 268.833 81.3313 269.634 82.1711 270.471L81.4998 267.525L81.356 266.894C68.1074 253.628 63.0517 253.03 57.7551 252.404L57.5143 252.375L55.9944 253.006V256.583Z" fill="#292934"/>
<path d="M150.737 298.035L160.421 290.25H172.24L181.648 296.773C181.574 295.539 181.498 294.348 181.42 293.196L173.666 287.514H159.606L150.157 294.879L150.737 298.035Z" fill="#272632"/>
<path d="M144.697 265.21L157.976 271.523V272.365H170.406V271.523L178.356 265.21C178.225 264.318 178.09 263.408 177.95 262.475L170.406 268.788L168.776 268.817L159.402 268.987L158.791 268.998L156.549 267.952L144.136 262.159L144.697 265.21Z" fill="#48495C"/>
<path d="M144.435 247.956L147.787 248.588L156.549 267.952L158.791 268.998L159.402 268.987L151.526 250.481L150.675 248.482L149.824 246.484L147.49 246.215L144.333 245.852L144.435 247.956Z" fill="#31313F"/>
<path fill-rule="evenodd" clip-rule="evenodd" d="M159.402 268.987L168.776 268.817L169.779 250.481H168.979H160.253H151.526L159.402 268.987ZM165.515 260.161H160.013L157.976 257.425H166.534L165.515 260.161Z" fill="#393849"/>
<path fill-rule="evenodd" clip-rule="evenodd" d="M160.013 260.161H165.515L166.534 257.425H157.976L160.013 260.161ZM160.013 258.267H164.904L164.496 259.319H160.828L160.013 258.267Z" fill="#484C5E"/>
<path d="M164.904 258.267H160.013L160.828 259.319H164.496L164.904 258.267Z" fill="#323547"/>
<path d="M144.934 258.267C144.439 258.678 144.003 258.947 143.574 259.108L144.136 262.159L156.549 267.952L147.787 248.588L144.435 247.956L144.934 258.267Z" fill="#2D2B3D"/>
<path d="M177.334 258.407L176.315 258.267L177.464 246.484L172.444 247.956L170.406 268.788L177.95 262.475C177.754 261.167 177.549 259.815 177.334 258.407Z" fill="#2B2B3B"/>
<path d="M191.395 251.592C204.649 255.563 211.304 259.135 222.98 265.842V263.738V263.106C211.166 256.781 204.478 252.907 193.313 249.85C192.69 250.449 192.048 251.031 191.395 251.592Z" fill="#2E2539"/>
<path d="M227.667 284.148C232.313 288.057 234.629 288.301 238.671 288.146C239.124 287.484 239.407 286.736 239.547 285.831C235.703 286.365 233.548 285.063 229.704 282.044L224.519 262.896C224.008 263.453 223.518 263.693 222.98 263.738V265.842L227.667 284.148Z" fill="#352F3E"/>
<path d="M177.334 258.407L179.372 258.688C181.368 248.487 181.945 242.292 182.836 231.123C183.003 229.47 183.253 228.657 184.466 227.757C195.686 221.137 202.22 217.413 201.787 213.846C201.504 211.517 198.252 209.254 191.395 206.294L188.338 207.767C197.752 211.328 198.814 214.441 194.247 218.306C193.532 218.911 192.679 219.535 191.698 220.182C190.759 220.8 189.704 221.44 188.542 222.104C187.475 222.714 186.318 223.345 185.078 224C184.047 224.545 182.959 225.105 181.817 225.685C181.027 226.086 180.212 226.496 179.372 226.915L179.29 227.757L177.71 243.959L177.464 246.484L176.315 258.267L177.334 258.407Z" fill="#282635"/>
<path d="M139.636 230.071L140.858 259.108C141.982 259.335 142.768 259.412 143.574 259.108C144.003 258.947 144.439 258.678 144.934 258.267L144.435 247.956L144.333 245.852L143.951 237.962L143.569 230.071L143.507 228.809C143.054 227.128 142.584 226.186 140.655 225.127C140.465 225.023 140.262 224.918 140.043 224.811C137.841 224.291 135.737 223.782 133.726 223.283C132.895 223.077 132.08 222.872 131.281 222.67C128.274 221.907 125.493 221.168 122.926 220.453C119.496 219.497 116.448 218.582 113.756 217.707C112.054 217.153 110.494 216.615 109.069 216.092C107.477 215.507 106.053 214.941 104.79 214.393C102.532 213.412 100.786 212.488 99.4979 211.616C98.7151 211.086 98.1014 210.575 97.6446 210.082C95.2732 207.521 97.133 205.441 101.53 203.675L100.426 201C98.4422 201.775 96.809 202.566 95.5251 203.373C95.1339 205.398 95.0186 207.472 95.0089 210.082C94.1192 208.746 93.2821 207.458 92.4952 206.199C88.912 212.395 104.018 219.509 137.394 227.757C138.875 228.136 139.267 228.729 139.636 230.071Z" fill="#292838"/>
<path d="M121.376 252.222C127.061 254.524 133.426 256.689 140.858 259.108L139.636 230.071C139.267 228.729 138.875 228.136 137.394 227.757C104.018 219.509 88.912 212.395 92.4952 206.199C92.4794 206.173 92.4636 206.148 92.4478 206.123L90.5259 208.188C90.5505 218.218 90.742 223.709 91.7485 233.017C94.1376 235.401 96.4959 237.523 98.8807 239.439C104.922 244.293 111.134 247.829 118.443 250.994C119.401 251.409 120.378 251.817 121.376 252.222Z" fill="#353345"/>
<path d="M179.372 258.688C182.944 257.666 187.398 255.021 191.395 251.592C192.048 251.031 192.69 250.449 193.313 249.85C196.449 246.836 199.126 243.383 200.597 239.961C201.269 238.397 201.69 236.839 201.787 235.331C202.342 223.889 203.335 213.712 201.787 213.846C202.22 217.413 195.686 221.137 184.466 227.757C183.253 228.657 183.003 229.47 182.836 231.123C181.945 242.292 181.368 248.487 179.372 258.688Z" fill="#373649"/>
<path d="M140.858 259.108C143.555 269.892 145.403 281.163 148.602 299.719H151.047L150.737 298.035L150.157 294.879L144.697 265.21L144.136 262.159L143.574 259.108C142.768 259.412 141.982 259.335 140.858 259.108Z" fill="#272932"/>
<path d="M184.466 299.719C183.178 283.241 181.92 274.349 179.372 258.688L177.334 258.407C177.549 259.815 177.754 261.167 177.95 262.475C178.09 263.408 178.225 264.318 178.356 265.21C179.769 274.828 180.687 282.358 181.42 293.196C181.498 294.348 181.574 295.539 181.648 296.773C181.705 297.727 181.762 298.708 181.817 299.719H184.466Z" fill="#2F303B"/>
<path d="M172.444 247.956L177.464 246.484L177.71 243.959L171.425 246.016L169.998 246.484L169.779 250.481L168.776 268.817L170.406 268.788L172.444 247.956Z" fill="#303043"/>
<path d="M177.71 243.959L179.29 227.757C178.254 226.907 177.835 225.339 177.61 223.548C177.508 222.729 177.445 221.863 177.383 220.999L177.37 220.813C177.274 219.481 177.171 218.16 176.913 217.025C176.81 216.571 176.682 216.146 176.519 215.763C176.45 215.688 176.383 215.618 176.317 215.552C174.565 217.533 173.485 218.368 171.425 219.55V246.016L177.71 243.959Z" fill="#2E2C41"/>
<path d="M174.481 214.711L169.794 218.919L169.403 234.069L168.979 250.481H169.779L169.998 246.484L171.425 246.016V219.55C173.485 218.368 174.565 217.533 176.317 215.552C175.783 215.021 175.345 214.808 174.481 214.711Z" fill="#2C293E"/>
<path d="M133.726 223.283C133.544 218.539 133.945 215.421 130.262 213.869C124.232 211.319 121.449 209.682 117.832 206.294C117.79 206.656 117.749 207.01 117.709 207.358C117.703 207.407 117.698 207.457 117.692 207.506C117.578 208.499 117.472 209.43 117.36 210.294C117.175 211.731 116.977 212.983 116.713 214.03C116.709 214.045 116.705 214.059 116.702 214.074C116.701 214.076 116.701 214.078 116.7 214.08C116.155 216.206 115.327 217.474 113.756 217.707C116.448 218.582 119.496 219.497 122.926 220.453C124.567 216.081 124.08 214.38 121.092 212.49L131.281 217.707V222.67C132.08 222.872 132.895 223.077 133.726 223.283Z" fill="#3F4156"/>
<path d="M131.281 222.67V217.707L121.092 212.49C124.08 214.38 124.567 216.081 122.926 220.453C125.493 221.168 128.274 221.907 131.281 222.67Z" fill="#302D42"/>
<path d="M149.745 211.327L150.378 217.707L150.675 220.453C153.212 222.494 155.091 222.412 157.141 220.453L157.705 211.977C155.015 211.875 152.474 211.612 149.745 211.327Z" fill="#272A3E"/>
<path d="M157.141 241.434C157.752 235.957 158.859 227.764 159.693 221.234C157.388 224.005 153.732 225.134 150.675 223.225L151.862 241.434H157.141Z" fill="#2F3346"/>
<path d="M147.015 218.498C147.274 225.349 148.027 230.143 149.37 235.121C149.514 235.657 149.666 236.196 149.824 236.739L149.071 221.865C148.297 221.009 147.598 219.897 147.015 218.498Z" fill="#1B1E2E"/>
<path d="M151.307 241.434H151.862L150.675 223.225C150.116 222.876 149.578 222.425 149.071 221.865L149.824 236.739C150.264 238.246 150.757 239.791 151.307 241.434Z" fill="#28F9F8"/>
<path d="M152.677 245.431C154.598 246.332 155.393 246.072 156.753 245.431C156.827 244.404 156.963 243.035 157.141 241.434H151.862H151.307C151.73 242.699 152.186 244.023 152.677 245.431Z" fill="#2F394A"/>
<path d="M161.44 218.077C161.043 219.27 160.439 220.338 159.693 221.234C158.859 227.764 157.752 235.957 157.141 241.434C156.963 243.035 156.827 244.404 156.753 245.431C155.393 246.072 154.598 246.332 152.677 245.431C152.186 244.023 151.73 242.699 151.307 241.434C150.757 239.791 150.264 238.246 149.824 236.739C149.666 236.196 149.514 235.657 149.37 235.121L151.862 246.484C154.25 247.871 155.588 247.401 157.976 246.484C158.991 235.416 159.839 229.19 161.44 218.077Z" fill="#2E1844"/>
<path d="M188.338 207.767C187.363 208.421 185.66 208.474 184.466 209.003C182.759 209.761 180.438 210.036 178.356 210.552C184.82 211.912 190.987 214.711 194.247 218.306C198.814 214.441 197.752 211.328 188.338 207.767Z" fill="#1EF5FB"/>
<path d="M178.356 210.552C176.811 210.936 176.191 210.924 174.481 211.182V213.846C181.674 214.586 187.115 216.605 191.698 220.182C192.679 219.535 193.532 218.911 194.247 218.306C190.987 214.711 184.82 211.912 178.356 210.552Z" fill="#21F5F7"/>
<path d="M176.317 215.552C176.383 215.618 176.45 215.688 176.519 215.763C176.682 216.146 176.81 216.571 176.913 217.025C181.795 218.481 184.428 219.454 188.542 222.104C189.704 221.44 190.759 220.8 191.698 220.182C187.115 216.605 181.674 214.586 174.481 213.846V214.711C175.345 214.808 175.783 215.021 176.317 215.552Z" fill="#27F6FB"/>
<path d="M188.542 222.104C184.428 219.454 181.795 218.481 176.913 217.025C177.171 218.16 177.274 219.481 177.37 220.813C180.604 221.76 182.29 222.467 185.078 224C186.318 223.345 187.475 222.714 188.542 222.104Z" fill="#1AF4F8"/>
<path d="M185.078 224C182.29 222.467 180.604 221.76 177.37 220.813L177.383 220.999C177.445 221.863 177.508 222.729 177.61 223.548C179.462 224.23 180.414 224.679 181.817 225.685C182.959 225.105 184.047 224.545 185.078 224Z" fill="#1AF6F8"/>
<path d="M179.29 227.757L179.372 226.915C180.212 226.496 181.027 226.086 181.817 225.685C180.414 224.679 179.462 224.23 177.61 223.548C177.835 225.339 178.254 226.907 179.29 227.757Z" fill="#273946"/>
<path d="M160.253 217.707V211.977C159.632 211.966 158.828 211.999 158.203 211.977L158.791 217.867L160.253 217.707Z" fill="#28F9F8"/>
<path fill-rule="evenodd" clip-rule="evenodd" d="M146.446 210.811C146.126 213.016 146.245 215.645 146.768 217.867C146.848 218.084 146.93 218.294 147.015 218.498C147.598 219.897 148.297 221.009 149.071 221.865C149.578 222.425 150.116 222.876 150.675 223.225C153.732 225.134 157.388 224.005 159.693 221.234C160.439 220.338 161.043 219.27 161.44 218.077C161.726 216.722 161.925 214.51 161.928 211.977C161.399 211.976 160.786 211.987 160.253 211.977V217.707L158.791 217.867L158.203 211.977C158.067 211.973 157.841 211.983 157.705 211.977L157.141 220.453C155.091 222.412 153.212 222.494 150.675 220.453L150.378 217.707H149.071L148.222 211.069C147.662 211.003 147.005 210.884 146.446 210.811Z" fill="#212336"/>
<path d="M149.745 211.327C149.218 211.272 148.749 211.13 148.222 211.069L149.071 217.707H150.378L149.745 211.327Z" fill="#28F9F8"/>
<path d="M113.756 217.707C115.327 217.474 116.155 216.206 116.7 214.08C112.694 214.689 110.819 215.093 109.069 216.092C110.494 216.615 112.054 217.153 113.756 217.707Z" fill="#28F6F3"/>
<path d="M109.069 216.092C110.819 215.093 112.694 214.689 116.7 214.08C115.9 213.583 114.516 211.633 113.479 210.294C113.202 209.937 112.951 209.623 112.741 209.392C109.409 209.794 108.479 209.85 106.828 210.91C106.68 211.369 105.583 213.482 106.828 214.921C106.485 214.647 106.162 214.297 105.85 213.869L104.79 214.393C106.053 214.941 107.477 215.507 109.069 216.092Z" fill="#30EFF4"/>
<path d="M109.481 204.839C107.828 207.103 107.631 208.42 106.828 210.91C108.479 209.85 109.409 209.794 112.741 209.392C111.757 208.307 110.715 206.87 109.481 204.839Z" fill="#30EFF4"/>
<path d="M104.79 214.393L105.85 213.869C105.189 212.965 104.573 211.712 103.906 210.082C101.416 210.346 100.732 210.8 99.5216 211.6L99.4979 211.616C100.786 212.488 102.532 213.412 104.79 214.393Z" fill="#1BEFEF"/>
<path d="M103.906 210.082C103.542 209.19 103.162 208.185 102.751 207.062C100.511 207.062 97.8625 208.7 97.6446 210.082C98.1014 210.575 98.7151 211.086 99.4979 211.616L99.5216 211.6C100.732 210.8 101.416 210.346 103.906 210.082Z" fill="#2CF8EF"/>
<path d="M102.751 207.062C102.374 206.034 101.971 204.906 101.53 203.675C97.133 205.441 95.2732 207.521 97.6446 210.082C97.8625 208.7 100.511 207.062 102.751 207.062Z" fill="#38F8EE"/>
<path d="M95.0089 210.082C95.0186 207.472 95.1339 205.398 95.5251 203.373C94.275 204.16 93.3561 204.961 92.7674 205.779C92.6671 205.919 92.5764 206.059 92.4952 206.199C93.2821 207.458 94.1192 208.746 95.0089 210.082Z" fill="#393B49"/>
<path d="M116.7 214.08L116.702 214.074L116.713 214.03C116.977 212.983 117.175 211.731 117.36 210.294C115.874 210.568 115.066 210.932 113.479 210.294C114.516 211.633 115.9 213.583 116.7 214.08Z" fill="#393B49"/>
<path d="M136.041 297.677C136.041 296.393 135.132 295.353 134.011 295.353C132.89 295.353 131.98 296.393 131.98 297.677C131.98 298.96 132.89 300 134.011 300C135.132 300 136.041 298.96 136.041 297.677Z" fill="#28E9E8"/>
<path d="M136.041 297.418C136.041 295.992 135.132 294.836 134.011 294.836C132.89 294.836 131.98 295.992 131.98 297.418C131.98 298.844 132.89 300 134.011 300C135.132 300 136.041 298.844 136.041 297.418Z" fill="#28E9E8"/>
<path d="M108.937 245.852L76.7807 261.825L78.4088 263.315L110.972 247.13L108.937 245.852Z" fill="#E12B85"/>
<path d="M74.949 270.13L67.6223 271.195V273.751L74.949 272.473V270.13Z" fill="#E12B85"/>
<path d="M107.512 279.927V266.51C106.829 266.099 106.479 266.361 105.884 267.149L105.477 281.844L125.829 293.77L126.846 299.733H129.492L127.864 291.64L107.512 279.927Z" fill="#E12B85"/>
<path d="M65.9942 291.427L63.959 299.733H65.9942L67.8258 291.427H65.9942Z" fill="#E12B85"/>
<path d="M235.933 288.233H234.711C235.793 292.731 236.26 295.247 236.95 299.733H238.578C237.966 294.949 237.489 292.357 235.933 288.233Z" fill="#E12B85"/>
<path d="M227.588 268.427V266.936C228.912 267.108 229.678 267.425 231.048 268.427V270.13C229.602 269.577 228.843 269.199 227.588 268.427Z" fill="#E12B85"/>
<path d="M210.696 264.167H209.679C211.028 269.481 211.905 272.548 213.749 278.223L199.503 291.853L200.317 299.733H202.352L201.945 292.918L216.191 279.288L210.696 264.167Z" fill="#E12B85"/>
<path d="M224.332 259.695L196.246 246.491L197.264 245L224.943 258.417L224.332 259.695Z" fill="#E12B85"/>
<path d="M199.356 273.575L190.615 252.469C191.455 251.703 191.894 251.641 192.648 251.836L202.406 274.419L192.241 285.606L194.274 299.747H191.428L190.005 284.55L199.356 273.575Z" fill="#28E9E8"/>
<path d="M155.647 252.258L154.834 250.992L167.032 250.569L166.219 252.258H155.647Z" fill="#28E9E8"/>
<path d="M124.949 253.735L126.982 254.791L122.306 273.786L138.774 284.973L141.213 299.747H138.367L136.334 286.45L119.257 275.686L124.949 253.735Z" fill="#28E9E8"/>
<path d="M202.203 223.131L194.274 230.307C194.121 228.961 193.617 228.034 194.274 227.352C196.917 224.609 199.313 223.621 202.203 220.176V223.131Z" fill="#28E9E8"/>
<path d="M201.796 229.041L201.999 226.086L193.054 233.895C191.968 235.615 192.296 236.058 193.258 236.639L201.796 229.041Z" fill="#28E9E8"/>
<path d="M201.593 235.584V232.629L192.648 240.649C192.21 242.345 192.386 242.872 193.461 242.971L201.593 235.584Z" fill="#28E9E8"/>
<path d="M90.7952 216.377V213C100.884 222.809 108.256 224.653 121.087 228.619C122.792 229.138 123.456 229.711 123.323 231.996C105.582 227.698 97.5041 223.342 90.7952 216.377Z" fill="#28E9E8"/>
<path d="M90.7952 221.865V219.543C99.86 226.807 106.161 230.077 119.867 234.318C124.543 235.584 123.933 237.483 122.51 237.906C106.104 233.229 96.6909 227.986 90.7952 221.865Z" fill="#28E9E8"/>
<path d="M91.4051 229.041V226.086C100.806 233.506 106.435 237.505 122.51 241.916C124.739 242.691 124.339 245.082 122.51 245.082C107.952 240.044 100.96 236.639 91.4051 229.041Z" fill="#28E9E8"/>
<path d="M65.1796 253.735C77.1156 247.109 84.0217 243.604 96.8942 237.906L97.0975 237.695L95.2678 236.217C82.1575 242.1 75.172 245.869 62.9434 252.891L65.1796 253.735Z" fill="#28E9E8"/>
<path d="M225.989 254.369C215.871 248.07 210.325 244.932 200.576 239.805L200.983 238.539C210.983 243.597 216.567 246.605 226.395 252.891L225.989 254.369Z" fill="#28E9E8"/>
<path d="M188.497 297.668C188.77 296.536 188.372 295.458 187.609 295.26C186.845 295.062 186.006 295.819 185.733 296.951C185.461 298.083 185.859 299.161 186.622 299.359C187.385 299.556 188.225 298.799 188.497 297.668Z" fill="#28E9E8"/>
<path d="M187.683 297.668C187.955 296.536 187.557 295.458 186.794 295.26C186.031 295.062 185.191 295.819 184.919 296.951C184.647 298.083 185.044 299.16 185.808 299.358C186.571 299.556 187.41 298.799 187.683 297.668Z" fill="#28E9E8"/>
<path d="M59.1628 258.144V255.19L56.9277 255.823L59.7723 252.658C70.766 256.534 75.3421 259.999 81.7163 267.639C95.5507 260.929 107.774 257.216 106.505 250.337C98.1231 244.138 92.6333 241.169 81.7163 236.623L91.6728 233.669V231.137C104.766 241.825 112.548 246.229 128.246 247.594L124.995 250.337L139.828 255.823L141.047 260.676L126.417 258.144L127.027 254.979L124.699 254.003L124.995 254.135L123.166 260.676L117.071 261.942L111.179 260.676L95.9396 270.171L99.1906 281.143L100.816 279.033L98.3779 294.225C105.575 297.815 109.686 298.861 117.071 300.133H83.9517L92.6887 286.418L91.6728 271.859C84.9045 272.479 82.9654 278.87 79.6848 290.849L72.9797 294.225L70.7447 300.133H65.6651L68.1033 291.904H66.2746L65.2587 295.069C55.0049 293.714 52.0872 292.333 48.1908 289.583C46.6039 286.881 46.8462 285.893 49.6131 285.152C64.0508 289.893 70.2715 287.148 77.2462 270.171C76.4335 264.474 67.8052 260.522 59.1628 258.144Z" fill="black" fill-opacity="0.15"/>
<path d="M150.8 300.133L144.501 265.529L146.736 266.584L153.644 292.326L159.537 287.473H173.15L177.214 289.794L174.979 265.529L171.118 267.639V265.529L177.214 259.41C180.576 274.707 181.501 283.244 181.796 295.069C181.837 296.686 181.865 298.366 181.887 300.133H177.214C177.31 295.454 176.119 294.361 173.556 292.959C160.524 291.457 158.656 294.434 155.879 300.133H150.8Z" fill="black" fill-opacity="0.15"/>
<path d="M180.058 256.034V260.676L194.891 254.768L219.679 268.694L225.572 286.418L229.839 288.95L233.293 300.133H237.356L234.512 288.95C238.551 288.933 239.665 287.826 239.591 283.886C231.813 282.108 228.814 276.329 224.149 263.63L193.875 249.282L190.827 252.658C188.795 253.743 187.645 253.865 185.544 253.08L180.058 256.034Z" fill="black" fill-opacity="0.15"/>
<path d="M172.947 237.889L174.572 218.055L175.385 217L178.636 230.715C178.2 236.787 178.053 239.732 177.823 244.852H174.572L172.947 237.889Z" fill="black" fill-opacity="0.15"/>
<path d="M160.146 241.054C155.347 248.719 152.932 248.107 148.971 240.421C151.084 249.029 152.425 251.181 152.831 251.181H159.537L160.146 241.054Z" fill="black" fill-opacity="0.15"/>
</svg>
