<svg width="300" height="301" viewBox="0 0 300 301" fill="none" xmlns="http://www.w3.org/2000/svg">
<path d="M238.325 299.651C236.4 280.855 234.652 271.175 230.71 254.91V254.101C230.71 253.005 230.113 251.995 229.149 251.473C221.719 247.452 216.917 245.207 209.137 241.462L199.238 253.1L186.04 251.548L193.058 262.166C193.914 263.461 194.12 265.081 193.615 266.549L182.233 299.651H218.274H220.812H238.325Z" fill="#29282B"/>
<path d="M50.3769 241.715C49.4997 242.042 48.8277 242.756 48.5705 243.657C43.5138 261.356 36.5685 298.903 37.3096 299.91L81.4719 299.794L85.0252 299.784L120.051 299.692C114.249 287.472 110.53 281.455 103.299 271.979C102.03 269.91 113.452 261.375 114.467 248.962C102.284 237.065 92.8932 248.962 86.2942 230.6C72.7022 234.161 63.3475 236.874 50.3769 241.715Z" fill="#29282B"/>
<path d="M86.2942 228.789V230.6C92.8932 248.962 102.284 237.065 114.467 248.962C113.452 261.375 102.03 269.91 103.299 271.979C110.53 281.455 114.249 287.472 120.051 299.692L132.487 299.66L132.741 293.444C132.233 278.703 130.762 270.583 128.934 268.1C127.739 268.505 127.181 269.91 126.142 271.979C116.386 246.615 113.959 235.255 113.198 217.41L112.944 216.893L112.69 216.376C102.284 222.065 91.1165 226.203 86.2942 228.789Z" fill="#29282B"/>
<path d="M209.137 241.462L210.66 239.651C190.863 226.203 187.056 225.686 181.726 219.22H180.71C179.01 240.769 177.775 255.888 174.114 268.934C173.9 269.695 172.932 269.897 172.394 269.319C171.367 268.216 170.528 267.511 169.289 266.806L167.49 292.668L167.005 299.651H182.233L193.615 266.549C194.12 265.081 193.914 263.461 193.058 262.166L186.04 251.548L199.238 253.1L209.137 241.462Z" fill="#29282B"/>
<path d="M172.394 269.319C172.932 269.897 173.9 269.695 174.114 268.934C177.775 255.888 179.01 240.769 180.71 219.22L177.919 216.893C176.542 221.264 165.736 235.772 154.568 249.479C154.823 249.798 155.077 250.11 155.33 250.417C160.609 256.83 165.358 260.731 169.289 266.806C170.528 267.511 171.367 268.216 172.394 269.319Z" fill="#EAE4DD"/>
<path d="M113.198 217.41C113.959 235.255 116.386 246.615 126.142 271.979C127.181 269.91 127.739 268.505 128.934 268.1C129.909 266.112 138.851 256.723 144.053 250.255C144.265 249.991 144.471 249.732 144.67 249.479C136.802 243.789 109.391 212.496 116.751 215.341C115.228 214.307 113.959 215.858 112.944 216.893L113.198 217.41Z" fill="#EAE4DD"/>
<path d="M128.934 268.1C130.762 270.583 132.233 278.703 132.741 293.444L135.787 299.651H140.355L144.416 264.479C144.618 263.26 145.003 262.717 146.446 262.151C144.859 260.96 144.415 257.926 144.053 250.255C138.851 256.723 129.909 266.112 128.934 268.1Z" fill="#EAE4DD"/>
<path d="M167.49 292.668L169.289 266.806C165.358 260.731 160.609 256.83 155.33 250.417C155.709 258.615 154.527 261.162 153.694 261.998C154.907 263.022 155.425 264.026 155.837 267.065C158.131 279.401 159.354 286.435 161.167 299.651H164.467L167.49 292.668Z" fill="#EAE4DD"/>
<path d="M154.568 249.479C150.111 247.883 147.923 247.79 144.67 249.479C144.471 249.732 144.265 249.991 144.053 250.255C144.415 257.926 144.859 260.96 146.446 262.151C148.896 262.466 150.331 262.51 153.045 262.41C153.173 262.367 153.414 262.279 153.694 261.998C154.527 261.162 155.709 258.615 155.33 250.417C155.077 250.11 154.823 249.798 154.568 249.479Z" fill="#2F3142"/>
<path d="M153.045 262.41C150.331 262.51 148.896 262.466 146.446 262.151C145.003 262.717 144.618 263.26 144.416 264.479L140.355 299.651H161.167C159.354 286.435 158.131 279.401 155.837 267.065C155.425 264.026 154.907 263.022 153.694 261.998C153.414 262.279 153.173 262.367 153.045 262.41Z" fill="#2F3142"/>
<path d="M135.787 299.651L132.741 293.444L132.487 299.66L135.787 299.651Z" fill="#29282B"/>
<path d="M164.467 299.651H167.005L167.49 292.668L164.467 299.651Z" fill="#29282B"/>
<path d="M86.2942 230.6C72.7022 234.161 63.3475 236.874 50.3769 241.715C49.4997 242.042 48.8277 242.756 48.5705 243.657C43.5138 261.356 36.5685 298.903 37.3096 299.91L81.4719 299.794M86.2942 230.6V228.789C91.1165 226.203 102.284 222.065 112.69 216.376L112.944 216.893M86.2942 230.6C92.8932 248.962 102.284 237.065 114.467 248.962C113.452 261.375 102.03 269.91 103.299 271.979C110.53 281.455 114.249 287.472 120.051 299.692M128.934 268.1C127.739 268.505 127.181 269.91 126.142 271.979C116.386 246.615 113.959 235.255 113.198 217.41L112.944 216.893M128.934 268.1C130.762 270.583 132.233 278.703 132.741 293.444M128.934 268.1C129.909 266.112 138.851 256.723 144.053 250.255M132.741 293.444L135.787 299.651M132.741 293.444L132.487 299.66M135.787 299.651L132.487 299.66M135.787 299.651H140.355M120.051 299.692L85.0252 299.784M120.051 299.692L132.487 299.66M85.0252 299.784C83.3714 289.711 81.7622 281.691 79.7755 275.082M85.0252 299.784L81.4719 299.794M53.5531 243.272C68.2013 251.645 75.0542 259.378 79.7755 275.082M54.0607 251.806C48.7704 264.243 46.1248 271.385 42.3856 284.651M53.0455 261.117C54.1663 257.74 54.6602 255.943 56.8526 251.806M57.614 251.548C58.5952 251.218 59.3906 254.134 57.3602 255.686M62.6901 255.169C63.3788 256.461 63.7187 257.281 64.213 259.048M79.7755 275.082C79.5225 270.268 79.2218 267.166 77.4373 261.1C76.941 259.412 75.9664 257.902 74.6548 256.731C65.4841 248.539 61.2403 246.002 55.0759 243.531M76.6495 289.306C78.5343 292.06 79.5906 294.223 81.4719 299.794M164.467 299.651H167.005M164.467 299.651L167.49 292.668M164.467 299.651H161.167M209.137 241.462C216.917 245.207 221.719 247.452 229.149 251.473C230.113 251.995 230.71 253.005 230.71 254.101V254.91C234.652 271.175 236.4 280.855 238.325 299.651H220.812M209.137 241.462L210.66 239.651C190.863 226.203 187.056 225.686 181.726 219.22H180.71M209.137 241.462L199.238 253.1L186.04 251.548L193.058 262.166C193.914 263.461 194.12 265.081 193.615 266.549L182.233 299.651M180.71 219.22C179.01 240.769 177.775 255.888 174.114 268.934C173.9 269.695 172.932 269.897 172.394 269.319C171.367 268.216 170.528 267.511 169.289 266.806M180.71 219.22L177.919 216.893C176.542 221.264 165.736 235.772 154.568 249.479M169.289 266.806L167.49 292.668M169.289 266.806C165.358 260.731 160.609 256.83 155.33 250.417M167.005 299.651L167.49 292.668M167.005 299.651H182.233M182.233 299.651H218.274M228.172 253.875L218.274 299.651M218.274 299.651H220.812M225.127 293.703L220.812 299.651M154.568 249.479C150.111 247.883 147.923 247.79 144.67 249.479M154.568 249.479C154.823 249.798 155.077 250.11 155.33 250.417M144.67 249.479C136.802 243.789 109.391 212.496 116.751 215.341C115.228 214.307 113.959 215.858 112.944 216.893M144.67 249.479C144.471 249.732 144.265 249.991 144.053 250.255M144.053 250.255C144.415 257.926 144.859 260.96 146.446 262.151M146.446 262.151C148.896 262.466 150.331 262.51 153.045 262.41C153.173 262.367 153.414 262.279 153.694 261.998M146.446 262.151C145.003 262.717 144.618 263.26 144.416 264.479L140.355 299.651M155.33 250.417C155.709 258.615 154.527 261.162 153.694 261.998M140.355 299.651H161.167M153.694 261.998C154.907 263.022 155.425 264.026 155.837 267.065C158.131 279.401 159.354 286.435 161.167 299.651" stroke="black" stroke-width="1.5"/>
<path d="M36.5479 299.534C40.5209 275.581 43.1817 262.868 48.7306 241.603C50.1113 242.128 50.6448 243.441 51.2687 247.034C47.3185 250.666 47.4616 255.569 46.9539 264.103C50.8183 253.33 52.5096 249.795 53.7614 251.033C53.9838 251.253 53.9977 251.604 53.8899 251.9L36.5479 299.534Z" fill="black" fill-opacity="0.4"/>
<path d="M52.7915 259.965C55.8372 257.379 61.4209 251.948 57.1062 250.655C55.2769 254.093 54.3583 256.166 52.7915 259.965Z" fill="black" fill-opacity="0.4"/>
<path d="M62.9438 254.276C60.5944 255.075 61.4209 258.931 64.2128 258.414C63.9064 256.318 63.6273 255.415 62.9438 254.276Z" fill="black" fill-opacity="0.4"/>
<path d="M66.7509 255.052C60.8365 249.128 57.445 246.464 51.2687 242.638C51.6141 241.786 52.0362 241.434 53.2991 241.086C65.228 247.896 70.7171 251.608 76.6494 257.896L79.9489 272.638L90.355 299.534H72.5885L76.1418 288.155C75.8652 283.45 72.8368 270.61 66.7509 255.052Z" fill="black" fill-opacity="0.4"/>
<path d="M86.0402 229.707L84.2636 230.483C87.7772 236.808 89.7844 239.126 93.4006 242.379C97.2077 245.741 106.599 246 114.213 250.914V247.81C111.421 243.155 103.763 240.749 94.1621 238.5C90.355 236.172 87.7674 228.827 88.8321 226.862L86.0402 227.897V229.707Z" fill="black" fill-opacity="0.4"/>
<path d="M121.827 299.276C116.176 287.184 112.402 280.686 104.314 269.793C103.656 270.399 103.543 270.88 103.553 271.862C109.869 282.876 112.886 288.899 117.005 299.276H121.827Z" fill="black" fill-opacity="0.4"/>
<path d="M123.35 268.241C117.005 256.603 111.167 233.845 111.167 216.517L113.198 216C111.605 225.31 118.158 253.566 124.873 267.207L123.35 268.241Z" fill="black" fill-opacity="0.4"/>
<path d="M199.238 252.207C203.781 248.103 206.123 245.613 209.39 240.31L212.182 241.862L200 256.862L188.578 255.31L186.04 251.172L199.238 252.207Z" fill="black" fill-opacity="0.4"/>
<path d="M179.695 299.276L192.893 263.069C195.754 264.495 193.237 274.754 186.04 299.276H179.695Z" fill="black" fill-opacity="0.4"/>
<path d="M230.964 252.207L228.172 253.241L218.02 299.276H227.411V292.81L230.964 286.345C228.172 281.948 228.34 277.757 231.726 258.155L230.964 252.207Z" fill="black" fill-opacity="0.4"/>
<path fill-rule="evenodd" clip-rule="evenodd" d="M144.416 255.052C145.672 257.689 146.382 258.866 147.715 258.414C149.113 259.371 149.815 259.482 150.761 258.155C151.847 259.165 152.856 258.719 155.583 255.569C155.421 259.517 155.023 260.745 153.807 261.517C154.781 262.347 155.102 262.863 155.33 263.845L153.299 264.103C152.242 266.027 151.393 265.916 149.492 264.103C148.035 266.052 146.897 265.811 144.416 263.586C144.866 262.158 145.155 261.477 146.193 261.776C144.996 260.551 144.795 258.646 144.462 255.484C144.453 255.402 144.444 255.319 144.435 255.236C144.429 255.175 144.422 255.113 144.416 255.052Z" fill="black" fill-opacity="0.4"/>
<path d="M155.583 255.569L165.989 267.207C166.132 274.801 166.011 278.559 165.482 284.276C164.679 289.736 164.487 292.996 164.72 299.276H167.512L169.289 271.086C170.31 271.575 170.765 271.108 171.319 268.5L173.096 269.017L173.35 268.241C173.071 267.822 172.777 267.39 172.471 266.948C167.487 259.745 159.156 249.789 155.33 248.327C154.974 248.731 155.08 249.809 155.268 251.717C155.369 252.75 155.494 254.025 155.583 255.569Z" fill="black" fill-opacity="0.4"/>
<path d="M144.416 248.845C143.169 248.396 142.388 248.732 140.863 250.138C132.183 259.764 124.835 267.673 125.38 268.758L128.68 272.638L129.949 271.086L132.487 299.276H135.786L132.995 268.241L144.416 255.052C144.083 251.956 143.852 250.127 144.416 248.845Z" fill="black" fill-opacity="0.4"/>
</svg>
